<?xml version="1.0" encoding="UTF-8" standalone="no"?> <!-- Created with Vectornator for iOS (http://vectornator.io/) --><!DOCTYPE svg PUBLIC "-//W3C//DTD SVG 1.1//EN" "http://www.w3.org/Graphics/SVG/1.1/DTD/svg11.dtd">
<svg height="100%" style="fill-rule:nonzero;clip-rule:evenodd;stroke-linecap:round;stroke-linejoin:round;" xmlns:xlink="http://www.w3.org/1999/xlink" xmlns="http://www.w3.org/2000/svg" xml:space="preserve" width="100%" xmlns:vectornator="http://vectornator.io" version="1.1" viewBox="0 0 2384.24 1683.99">
<metadata>
<vectornator:setting key="OutlineMode" value="0"/>
<vectornator:setting key="DisplayWhiteBackground" value="0"/>
<vectornator:setting key="IsolateActiveLayer" value="0"/>
<vectornator:setting key="RulersVisible" value="1"/>
<vectornator:setting key="DynamicGuides" value="0"/>
<vectornator:setting key="SnapToGrid" value="0"/>
<vectornator:setting key="DimensionsVisible" value="1"/>
<vectornator:setting key="SnapToPoints" value="0"/>
<vectornator:setting key="PencilOnly" value="0"/>
<vectornator:setting key="TimeLapseWatermarkDisabled" value="0"/>
<vectornator:setting key="CMYKEnabledKey" value="0"/>
<vectornator:setting key="GuidesVisible" value="1"/>
<vectornator:setting key="Units" value="Millimeters"/>
<vectornator:setting key="doHistoryDisabled" value="0"/>
<vectornator:setting key="SnapToGuides" value="1"/>
<vectornator:setting key="SnapToEdges" value="0"/>
</metadata>
<defs>
<radialGradient cx="1716.39" r="81.6447" id="RadialGradient" gradientUnits="userSpaceOnUse" gradientTransform="matrix(1.17948 0 0 1.16403 -213.669 232.498)" cy="215.46">
<stop stop-color="#09b2af" offset="0"/>
<stop stop-color="#1ee2de" offset="1"/>
</radialGradient>
<radialGradient cx="829.403" r="57.1297" id="RadialGradient_2" gradientUnits="userSpaceOnUse" gradientTransform="matrix(1.17948 0 0 1.16403 -213.669 232.498)" cy="218.096">
<stop stop-color="#09b2af" offset="0"/>
<stop stop-color="#1ee2de" offset="1"/>
</radialGradient>
<radialGradient cx="618.608" r="57.1304" id="RadialGradient_3" gradientUnits="userSpaceOnUse" gradientTransform="matrix(1.17948 0 0 1.16403 -213.669 232.498)" cy="379.664">
<stop stop-color="#09b2af" offset="0"/>
<stop stop-color="#1ee2de" offset="1"/>
</radialGradient>
<linearGradient y1="824.278" id="LinearGradient" x1="1462.5" y2="824.278" x2="1515.45" gradientUnits="userSpaceOnUse" gradientTransform="matrix(1.17948 0 0 1.16403 -213.669 232.498)">
<stop stop-color="#09b2af" offset="0"/>
<stop stop-color="#1ee2de" offset="1"/>
</linearGradient>
<linearGradient y1="983.215" id="LinearGradient_2" x1="1418.18" y2="983.215" x2="1471.05" gradientUnits="userSpaceOnUse" gradientTransform="matrix(1.17948 0 0 1.16403 -213.669 232.498)">
<stop stop-color="#09b2af" offset="0"/>
<stop stop-color="#1ee2de" offset="1"/>
</linearGradient>
<linearGradient y1="920.15" id="LinearGradient_3" x1="1427.4" y2="920.15" x2="1480.3" gradientUnits="userSpaceOnUse" gradientTransform="matrix(1.17948 0 0 1.16403 -213.669 232.498)">
<stop stop-color="#9c5f00" offset="0"/>
<stop stop-color="#e6a33d" offset="0.980213"/>
</linearGradient>
<linearGradient y1="879.2" id="LinearGradient_4" x1="1491.56" y2="879.2" x2="1544.54" gradientUnits="userSpaceOnUse" gradientTransform="matrix(1.17948 0 0 1.16403 -213.669 232.498)">
<stop stop-color="#09b2af" offset="0"/>
<stop stop-color="#1ee2de" offset="1"/>
</linearGradient>
<linearGradient y1="886.45" id="LinearGradient_5" x1="1491.67" y2="886.45" x2="1543.93" gradientUnits="userSpaceOnUse" gradientTransform="matrix(1.17948 0 0 1.16403 -213.669 232.498)">
<stop stop-color="#09b2af" offset="0"/>
<stop stop-color="#1ee2de" offset="1"/>
</linearGradient>
<linearGradient y1="688.442" id="LinearGradient_6" x1="331.739" y2="688.442" x2="384.684" gradientUnits="userSpaceOnUse" gradientTransform="matrix(1.17948 0 0 1.16403 -213.669 232.498)">
<stop stop-color="#9c5f00" offset="0"/>
<stop stop-color="#e6a33d" offset="0.980213"/>
</linearGradient>
<linearGradient y1="847.38" id="LinearGradient_7" x1="287.416" y2="847.38" x2="340.291" gradientUnits="userSpaceOnUse" gradientTransform="matrix(1.17948 0 0 1.16403 -213.669 232.498)">
<stop stop-color="#09b2af" offset="0"/>
<stop stop-color="#1ee2de" offset="1"/>
</linearGradient>
<linearGradient y1="784.315" id="LinearGradient_8" x1="296.635" y2="784.315" x2="349.535" gradientUnits="userSpaceOnUse" gradientTransform="matrix(1.17948 0 0 1.16403 -213.669 232.498)">
<stop stop-color="#9c5f00" offset="0"/>
<stop stop-color="#e6a33d" offset="0.980213"/>
</linearGradient>
<linearGradient y1="752.315" id="LinearGradient_9" x1="357.297" y2="752.315" x2="410.279" gradientUnits="userSpaceOnUse" gradientTransform="matrix(1.17948 0 0 1.16403 -213.669 232.498)">
<stop stop-color="#09b2af" offset="0"/>
<stop stop-color="#1ee2de" offset="1"/>
</linearGradient>
<linearGradient y1="750.614" id="LinearGradient_10" x1="360.909" y2="750.614" x2="413.171" gradientUnits="userSpaceOnUse" gradientTransform="matrix(1.17948 0 0 1.16403 -213.669 232.498)">
<stop stop-color="#09b2af" offset="0"/>
<stop stop-color="#1ee2de" offset="1"/>
</linearGradient>
<linearGradient y1="506.371" id="LinearGradient_11" x1="930.328" y2="506.371" x2="983.274" gradientUnits="userSpaceOnUse" gradientTransform="matrix(1.17948 0 0 1.16403 -213.669 232.498)">
<stop stop-color="#09b2af" offset="0"/>
<stop stop-color="#1ee2de" offset="1"/>
</linearGradient>
<linearGradient y1="665.216" id="LinearGradient_12" x1="974.634" y2="665.216" x2="1027.58" gradientUnits="userSpaceOnUse" gradientTransform="matrix(1.17948 0 0 1.16403 -213.669 232.498)">
<stop stop-color="#09b2af" offset="0"/>
<stop stop-color="#1ee2de" offset="1"/>
</linearGradient>
<linearGradient y1="602.244" id="LinearGradient_13" x1="965.399" y2="602.244" x2="1018.38" gradientUnits="userSpaceOnUse" gradientTransform="matrix(1.17948 0 0 1.16403 -213.669 232.498)">
<stop stop-color="#09b2af" offset="0"/>
<stop stop-color="#1ee2de" offset="1"/>
</linearGradient>
<linearGradient y1="561.252" id="LinearGradient_14" x1="901.075" y2="561.252" x2="954.198" gradientUnits="userSpaceOnUse" gradientTransform="matrix(1.17948 0 0 1.16403 -213.669 232.498)">
<stop stop-color="#b26f06" offset="0"/>
<stop stop-color="#f7b959" offset="1"/>
</linearGradient>
<linearGradient y1="513.372" id="LinearGradient_15" x1="930.958" y2="513.372" x2="983.322" gradientUnits="userSpaceOnUse" gradientTransform="matrix(1.17948 0 0 1.16403 -213.669 232.498)">
<stop stop-color="#09b2af" offset="0"/>
<stop stop-color="#1ee2de" offset="1"/>
</linearGradient>
<linearGradient y1="568.503" id="LinearGradient_16" x1="901.841" y2="568.503" x2="954.089" gradientUnits="userSpaceOnUse" gradientTransform="matrix(1.17948 0 0 1.16403 -213.669 232.498)">
<stop stop-color="#9c5f00" offset="0"/>
<stop stop-color="#e6a33d" offset="0.980213"/>
</linearGradient>
<linearGradient y1="609.746" id="LinearGradient_17" x1="966.592" y2="609.746" x2="1018.36" gradientUnits="userSpaceOnUse" gradientTransform="matrix(1.17948 0 0 1.16403 -213.669 232.498)">
<stop stop-color="#09b2af" offset="0"/>
<stop stop-color="#1ee2de" offset="1"/>
</linearGradient>
<linearGradient y1="524.388" id="LinearGradient_18" x1="1592.23" y2="524.388" x2="1788.16" gradientUnits="userSpaceOnUse" gradientTransform="matrix(1.17948 0 0 1.16403 -213.669 232.498)">
<stop stop-color="#07aaa7" offset="0"/>
<stop stop-color="#13dad6" offset="1"/>
</linearGradient>
<linearGradient y1="846.922" id="LinearGradient_19" x1="1071.97" y2="846.922" x2="1320.67" gradientUnits="userSpaceOnUse" gradientTransform="matrix(1.17948 0 0 1.16403 -213.669 232.498)">
<stop stop-color="#07aaa7" offset="0"/>
<stop stop-color="#13dedb" offset="1"/>
</linearGradient>
<linearGradient y1="807.074" id="LinearGradient_20" x1="1079.3" y2="807.074" x2="1313.57" gradientUnits="userSpaceOnUse" gradientTransform="matrix(1.17948 0 0 1.16403 -213.669 232.498)">
<stop stop-color="#07aaa7" offset="0"/>
<stop stop-color="#13dad6" offset="1"/>
</linearGradient>
<linearGradient y1="683.348" id="LinearGradient_21" x1="600.493" y2="683.348" x2="771.93" gradientUnits="userSpaceOnUse" gradientTransform="matrix(1.17948 0 0 1.16403 -213.669 232.498)">
<stop stop-color="#07aaa7" offset="0"/>
<stop stop-color="#13dad6" offset="1"/>
</linearGradient>
<linearGradient y1="667.935" id="LinearGradient_22" x1="1832.54" y2="667.935" x2="1885.48" gradientUnits="userSpaceOnUse" gradientTransform="matrix(1.17948 0 0 1.16403 -213.669 232.498)">
<stop stop-color="#09b2af" offset="0"/>
<stop stop-color="#1ee2de" offset="1"/>
</linearGradient>
<linearGradient y1="826.776" id="LinearGradient_23" x1="1788.23" y2="826.776" x2="1841.17" gradientUnits="userSpaceOnUse" gradientTransform="matrix(1.17948 0 0 1.16403 -213.669 232.498)">
<stop stop-color="#9c5f00" offset="0"/>
<stop stop-color="#e6a33d" offset="0.980213"/>
</linearGradient>
<linearGradient y1="763.804" id="LinearGradient_24" x1="1797.43" y2="763.804" x2="1850.34" gradientUnits="userSpaceOnUse" gradientTransform="matrix(1.17948 0 0 1.16403 -213.669 232.498)">
<stop stop-color="#09b2af" offset="0"/>
<stop stop-color="#1ee2de" offset="1"/>
</linearGradient>
<linearGradient y1="722.862" id="LinearGradient_25" x1="1861.61" y2="722.862" x2="1914.73" gradientUnits="userSpaceOnUse" gradientTransform="matrix(1.17948 0 0 1.16403 -213.669 232.498)">
<stop stop-color="#9c5f00" offset="0"/>
<stop stop-color="#e6a33d" offset="0.980213"/>
</linearGradient>
<linearGradient y1="834.778" id="LinearGradient_26" x1="1788.38" y2="834.778" x2="1838.25" gradientUnits="userSpaceOnUse" gradientTransform="matrix(1.17948 0 0 1.16403 -213.669 232.498)">
<stop stop-color="#09b2af" offset="0"/>
<stop stop-color="#1ee2de" offset="1"/>
</linearGradient>
<linearGradient y1="980.695" id="LinearGradient_27" x1="1953.28" y2="980.695" x2="2006.22" gradientUnits="userSpaceOnUse" gradientTransform="matrix(1.17948 0 0 1.16403 -213.669 232.498)">
<stop stop-color="#b26f06" offset="0"/>
<stop stop-color="#f7b959" offset="1"/>
</linearGradient>
<linearGradient y1="1138.08" id="LinearGradient_28" x1="1907.45" y2="1138.08" x2="1960.39" gradientUnits="userSpaceOnUse" gradientTransform="matrix(1.17948 0 0 1.16403 -213.669 232.498)">
<stop stop-color="#9c5f00" offset="0"/>
<stop stop-color="#e6a33d" offset="0.980213"/>
</linearGradient>
<linearGradient y1="1067.35" id="LinearGradient_29" x1="1921" y2="1067.35" x2="1973.91" gradientUnits="userSpaceOnUse" gradientTransform="matrix(1.17948 0 0 1.16403 -213.669 232.498)">
<stop stop-color="#09b2af" offset="0"/>
<stop stop-color="#1ee2de" offset="1"/>
</linearGradient>
<linearGradient y1="1035.62" id="LinearGradient_30" x1="1982.24" y2="1035.62" x2="2035.37" gradientUnits="userSpaceOnUse" gradientTransform="matrix(1.17948 0 0 1.16403 -213.669 232.498)">
<stop stop-color="#09b2af" offset="0"/>
<stop stop-color="#1ee2de" offset="1"/>
</linearGradient>
<linearGradient y1="660.68" id="LinearGradient_31" x1="462.91" y2="559.69" x2="462.91" gradientUnits="userSpaceOnUse" gradientTransform="matrix(2.53645 0 0 2.39732 -329.747 -117.961)">
<stop stop-color="#000000" offset="0"/>
<stop stop-color="#808080" offset="0.54"/>
<stop stop-color="#808080" offset="1"/>
</linearGradient>
</defs>
<g id="Layer 1" vectornator:layerName="Layer 1">
<g opacity="1">
<path d="M2123.24+1051.28C2123.24+1036.54+2132.91+1024.6+2144.83+1024.6C2156.75+1024.6+2166.41+1036.54+2166.41+1051.28C2166.41+1066.02+2156.75+1077.96+2144.83+1077.96C2132.91+1077.96+2123.24+1066.02+2123.24+1051.28Z" opacity="0.1" fill="#f3f3f3"/>
<path d="M2161.87+937.095C2164.87+932.134+2166.42+926.508+2166.36+920.794C2166.36+906.05+2156.7+894.087+2144.8+894.087C2132.91+894.087+2123.22+906.074+2123.22+920.794C2123.15+926.511+2124.71+932.141+2127.73+937.095C2121.71+947.227+2121.71+959.591+2127.73+969.723C2121.71+979.855+2121.71+992.218+2127.73+1002.35C2124.71+1007.3+2123.15+1012.93+2123.22+1018.65C2123.22+1033.4+2132.88+1045.36+2144.8+1045.36C2156.72+1045.36+2166.36+1033.37+2166.36+1018.65C2166.42+1012.94+2164.87+1007.31+2161.87+1002.35C2167.84+992.206+2167.84+979.867+2161.87+969.723C2167.84+959.579+2167.84+947.239+2161.87+937.095Z" opacity="0.1" fill="#f3f3f3"/>
<path d="M2123.24+888.166C2123.24+873.43+2132.91+861.484+2144.83+861.484C2156.75+861.484+2166.41+873.43+2166.41+888.166C2166.41+902.902+2156.75+914.848+2144.83+914.848C2132.91+914.848+2123.24+902.902+2123.24+888.166Z" opacity="0.1" fill="#f3f3f3"/>
<path d="M2123.24+855.538C2123.24+840.802+2132.91+828.856+2144.83+828.856C2156.75+828.856+2166.41+840.802+2166.41+855.538C2166.41+870.275+2156.75+882.221+2144.83+882.221C2132.91+882.221+2123.24+870.275+2123.24+855.538Z" opacity="0.1" fill="#f3f3f3"/>
<path d="M2064.07+632.276C2061.1+628.74+2058.42+625.007+2056.03+621.105L2112.72+612.306L2051.41+612.738C2039.52+588.288+2038.81+560.292+2049.43+535.328L2131.69+575.675L2055.82+522.934C2075.16+491.23+2111.63+472.4+2150.3+474.148C2188.98+475.896+2223.38+497.928+2239.43+531.232C2255.48+564.536+2250.49+603.526+2226.5+632.252C2231.09+637.776+2235.04+643.747+2238.29+650.064L2164.74+686.192L2243.19+661.308C2254.38+692.579+2248.12+727.079+2226.53+753.029C2259.9+793.058+2255.09+850.61+2215.5+885.2C2175.9+919.789+2114.82+919.789+2075.22+885.2C2035.62+850.61+2030.82+793.058+2064.19+753.029C2034.7+717.596+2034.7+667.686+2064.19+632.252L2064.07+632.276Z" opacity="0.1" fill="#f3f3f3"/>
<path d="M2248.62+692.665C2248.65+714.574+2240.86+735.853+2226.5+753.053C2259.87+793.082+2255.07+850.634+2215.47+885.223C2175.87+919.813+2114.79+919.813+2075.2+885.223C2035.6+850.634+2030.8+793.082+2064.17+753.053C2050.27+736.44+2248.62+681.709+2248.62+692.665Z" opacity="0.1" fill="#f3f3f3"/>
</g>
<g opacity="1">
<path d="M989.306+1140.03C989.306+1120.3+1002.23+1104.31+1018.17+1104.31C1034.11+1104.31+1047.04+1120.3+1047.04+1140.03C1047.04+1159.76+1034.11+1175.75+1018.17+1175.75C1002.23+1175.75+989.306+1159.76+989.306+1140.03Z" opacity="0.1" fill="#f9f9f9"/>
<path d="M1041.02+987.203C1045.05+980.559+1047.13+973.021+1047.06+965.364C1047.06+945.634+1034.12+929.644+1018.17+929.644C1002.22+929.644+989.205+945.682+989.205+965.412C989.131+973.069+991.214+980.607+995.241+987.251C987.194+1000.81+987.194+1017.35+995.241+1030.91C987.194+1044.46+987.194+1061+995.241+1074.56C991.208+1081.2+989.124+1088.74+989.205+1096.4C989.205+1116.11+1002.14+1132.12+1018.07+1132.12C1034+1132.12+1046.96+1116.11+1046.96+1096.4C1047.04+1088.74+1044.96+1081.2+1040.92+1074.56C1048.97+1061+1048.97+1044.46+1040.92+1030.91C1048.97+1017.35+1048.97+1000.81+1040.92+987.251L1041.02+987.203Z" opacity="0.1" fill="#f9f9f9"/>
<path d="M989.306+921.757C989.306+902.029+1002.23+886.036+1018.17+886.036C1034.11+886.036+1047.04+902.029+1047.04+921.757C1047.04+941.484+1034.11+957.477+1018.17+957.477C1002.23+957.477+989.306+941.484+989.306+921.757Z" opacity="0.1" fill="#f9f9f9"/>
<path d="M989.306+878.101C989.306+858.374+1002.23+842.381+1018.17+842.381C1034.11+842.381+1047.04+858.374+1047.04+878.101C1047.04+897.829+1034.11+913.821+1018.17+913.821C1002.23+913.821+989.306+897.829+989.306+878.101Z" opacity="0.1" fill="#f9f9f9"/>
<path d="M910.118+579.323C906.162+574.584+902.569+569.585+899.364+564.364L975.203+552.593L893.175+553.169C877.303+520.444+876.386+482.988+890.638+449.604L1000.69+503.568L899.237+433.039C924.952+390.312+973.853+364.831+1025.81+367.087C1077.76+369.342+1123.98+398.953+1145.45+443.728C1166.91+488.503+1159.98+540.872+1127.52+579.275C1133.67+586.66+1138.96+594.649+1143.29+603.105L1044.8+651.579L1149.79+618.28C1164.78+660.126+1156.39+706.298+1127.49+741.023C1172.09+794.603+1165.62+871.583+1112.64+917.842C1059.66+964.101+977.953+964.101+924.97+917.842C871.987+871.583+865.521+794.603+910.118+741.023C870.649+693.604+870.649+626.814+910.118+579.395L910.118+579.323Z" opacity="0.1" fill="#f9f9f9"/>
<path d="M1157.09+660.137C1157.14+689.458+1146.71+717.935+1127.49+740.951C1172.09+794.532+1165.62+871.511+1112.64+917.77C1059.66+964.029+977.953+964.029+924.97+917.77C871.987+871.511+865.521+794.532+910.118+740.951C891.577+718.704+1157.09+645.465+1157.09+660.137Z" opacity="0.1" fill="#f9f9f9"/>
</g>
<g opacity="1">
<path d="M1333.58+1063.65C1333.58+1048.92+1343.24+1036.97+1355.16+1036.97C1367.08+1036.97+1376.75+1048.92+1376.75+1063.65C1376.75+1078.39+1367.08+1090.34+1355.16+1090.34C1343.24+1090.34+1333.58+1078.39+1333.58+1063.65Z" opacity="0.1" fill="#f9f9f9"/>
<path d="M1372.21+949.47C1375.21+944.508+1376.76+938.882+1376.7+933.168C1376.7+918.424+1367.03+906.462+1355.14+906.462C1343.24+906.462+1333.55+918.448+1333.55+933.168C1333.49+938.886+1335.05+944.515+1338.07+949.47C1332.05+959.602+1332.05+971.965+1338.07+982.097C1332.05+992.229+1332.05+1004.59+1338.07+1014.72C1335.05+1019.68+1333.49+1025.31+1333.55+1031.03C1333.55+1045.77+1343.22+1057.73+1355.14+1057.73C1367.06+1057.73+1376.7+1045.75+1376.7+1031.03C1376.76+1025.31+1375.21+1019.69+1372.21+1014.72C1378.18+1004.58+1378.18+992.241+1372.21+982.097C1378.18+971.953+1378.18+959.614+1372.21+949.47Z" opacity="0.1" fill="#f9f9f9"/>
<path d="M1333.58+900.54C1333.58+885.804+1343.24+873.858+1355.16+873.858C1367.08+873.858+1376.75+885.804+1376.75+900.54C1376.75+915.276+1367.08+927.222+1355.16+927.222C1343.24+927.222+1333.58+915.276+1333.58+900.54Z" opacity="0.1" fill="#f9f9f9"/>
<path d="M1333.58+867.913C1333.58+853.177+1343.24+841.231+1355.16+841.231C1367.08+841.231+1376.75+853.177+1376.75+867.913C1376.75+882.649+1367.08+894.595+1355.16+894.595C1343.24+894.595+1333.58+882.649+1333.58+867.913Z" opacity="0.1" fill="#f9f9f9"/>
<path d="M1274.4+644.65C1271.44+641.115+1268.75+637.381+1266.36+633.479L1323.05+624.681L1261.75+625.112C1249.86+600.662+1249.14+572.667+1259.77+547.703L1342.02+588.05L1266.16+535.309C1285.5+503.604+1321.96+484.774+1360.64+486.522C1399.32+488.27+1433.71+510.302+1449.77+543.606C1465.82+576.91+1460.83+615.9+1436.84+644.626C1441.43+650.15+1445.38+656.122+1448.63+662.438L1375.07+698.566L1453.53+673.682C1464.72+704.953+1458.45+739.453+1436.86+765.403C1470.23+805.432+1465.43+862.984+1425.83+897.574C1386.24+932.164+1325.16+932.164+1285.56+897.574C1245.96+862.984+1241.16+805.432+1274.53+765.403C1245.04+729.97+1245.04+680.06+1274.53+644.626L1274.4+644.65Z" opacity="0.1" fill="#f9f9f9"/>
<path d="M1458.95+705.039C1458.99+726.948+1451.2+748.227+1436.84+765.427C1470.21+805.456+1465.4+863.008+1425.81+897.598C1386.21+932.188+1325.13+932.188+1285.53+897.598C1245.94+863.008+1241.13+805.456+1274.5+765.427C1260.6+748.814+1458.95+694.083+1458.95+705.039Z" opacity="0.1" fill="#f9f9f9"/>
</g>
<g opacity="1">
<path d="M215.411+1049.27C215.411+1034.53+225.075+1022.59+236.996+1022.59C248.917+1022.59+258.581+1034.53+258.581+1049.27C258.581+1064.01+248.917+1075.95+236.996+1075.95C225.075+1075.95+215.411+1064.01+215.411+1049.27Z" opacity="0.1" fill="#f9f9f9"/>
<path d="M254.067+935.086C257.067+930.125+258.617+924.498+258.556+918.784C258.556+904.04+248.918+892.078+236.996+892.078C225.075+892.078+215.411+904.064+215.411+918.784C215.358+924.5+216.917+930.127+219.926+935.086C213.907+945.218+213.907+957.581+219.926+967.713C213.907+977.845+213.907+990.209+219.926+1000.34C216.917+1005.3+215.358+1010.93+215.411+1016.64C215.411+1031.39+225.075+1043.35+236.996+1043.35C248.918+1043.35+258.556+1031.36+258.556+1016.64C258.617+1010.93+257.067+1005.3+254.067+1000.34C260.036+990.197+260.036+977.857+254.067+967.713C260.036+957.569+260.036+945.23+254.067+935.086Z" opacity="0.1" fill="#f9f9f9"/>
<path d="M215.411+886.156C215.411+871.42+225.075+859.474+236.996+859.474C248.917+859.474+258.581+871.42+258.581+886.156C258.581+900.892+248.917+912.839+236.996+912.839C225.075+912.839+215.411+900.892+215.411+886.156Z" opacity="0.1" fill="#f9f9f9"/>
<path d="M215.411+853.529C215.411+838.793+225.075+826.847+236.996+826.847C248.917+826.847+258.581+838.793+258.581+853.529C258.581+868.265+248.917+880.211+236.996+880.211C225.075+880.211+215.411+868.265+215.411+853.529Z" opacity="0.1" fill="#f9f9f9"/>
<path d="M156.236+630.266C153.283+626.725+150.596+622.992+148.195+619.095L204.885+610.297L143.579+610.728C131.693+586.278+130.978+558.283+141.601+533.319L223.858+573.666L147.993+520.925C167.332+489.22+203.798+470.391+242.474+472.138C281.15+473.886+315.548+495.918+331.599+529.222C347.649+562.526+342.659+601.516+318.67+630.242C323.278+635.755+327.233+641.728+330.464+648.055L256.907+684.182L335.36+659.298C346.555+690.569+340.287+725.069+318.695+751.019C352.066+791.048+347.264+848.6+307.667+883.19C268.069+917.78+206.989+917.78+167.391+883.19C127.794+848.6+122.992+791.048+156.363+751.019C126.869+715.586+126.869+665.676+156.363+630.242L156.236+630.266Z" opacity="0.1" fill="#f9f9f9"/>
<path d="M340.788+690.655C340.822+712.564+333.029+733.843+318.67+751.043C352.041+791.072+347.238+848.624+307.641+883.214C268.044+917.804+206.963+917.804+167.366+883.214C127.769+848.624+122.967+791.072+156.337+751.043C142.387+734.43+340.788+679.699+340.788+690.655Z" opacity="0.1" fill="#f9f9f9"/>
</g>
<path d="M48.5806+1087.44C48.5806+1074.23+554.426+1063.52+1178.42+1063.52C1802.41+1063.52+2308.25+1074.23+2308.25+1087.44C2308.25+1100.65+1802.41+1111.36+1178.42+1111.36C554.426+1111.36+48.5806+1100.65+48.5806+1087.44Z" opacity="0.1" fill="#13cfcc"/>
<path d="M-5.02041+1280.81C-5.02041+1266.27+527.557+1254.49+1184.52+1254.49C1841.49+1254.49+2374.07+1266.27+2374.07+1280.81C2374.07+1295.35+1841.49+1307.13+1184.52+1307.13C527.557+1307.13-5.02041+1295.35-5.02041+1280.81Z" opacity="0.1" fill="#13cfcc"/>
<path d="M947.949+1201.63C947.949+1069.29+1061.46+961.998+1201.49+961.998C1341.52+961.998+1455.03+1069.29+1455.03+1201.63C1455.03+1333.98+1341.52+1441.27+1201.49+1441.27C1061.46+1441.27+947.949+1333.98+947.949+1201.63Z" opacity="1" fill="#f1f1f1"/>
<path d="M1201.49+961.926C1061.39+961.86+947.767+1069.16+947.72+1201.58C947.673+1333.99+1061.22+1441.37+1201.32+1441.39C1341.42+1441.41+1455.01+1334.07+1455.01+1201.66C1455.01+1069.3+1341.53+961.992+1201.49+961.926ZM1201.49+1409.31C1080.06+1409.31+981.634+1316.27+981.658+1201.5C981.681+1086.73+1080.15+993.718+1201.58+993.763C1323+993.807+1421.4+1086.89+1421.33+1201.66C1421.31+1316.4+1322.89+1409.41+1201.49+1409.41L1201.49+1409.31Z" opacity="0.1" fill="#000000"/>
<path d="M-2.99748+1479.25C-2.99748+1464.72+529.58+1452.93+1186.55+1452.93C1843.51+1452.93+2376.09+1464.72+2376.09+1479.25C2376.09+1493.79+1843.51+1505.58+1186.55+1505.58C529.58+1505.58-2.99748+1493.79-2.99748+1479.25Z" opacity="0.1" fill="#13cfcc"/>
<path d="M6.54278+1650.22C6.54278+1635.68+539.12+1623.89+1196.09+1623.89C1853.05+1623.89+2385.63+1635.68+2385.63+1650.22C2385.63+1664.75+1853.05+1676.54+1196.09+1676.54C539.12+1676.54+6.54278+1664.75+6.54278+1650.22Z" opacity="0.1" fill="#13cfcc"/>
<path d="M1853.6+536.507C1844.54+534.891+1835.18+535.859+1826.71+539.288C1816.43+543.619+1804.68+543.619+1794.4+539.288C1782.22+534.237+1768.31+534.491+1756.35+539.983C1752.99+541.674+1749.23+542.563+1745.42+542.572C1730+542.572+1717.19+527.901+1714.53+508.555C1717.56+506.416+1720.14+503.757+1722.14+500.715C1731.17+486.955+1745.14+478.109+1760.87+478.109C1776.59+478.109+1790.39+486.835+1799.42+500.452C1804.89+508.82+1814.61+513.862+1825.01+513.733L1825.42+513.733C1837.82+513.613+1848.45+522.914+1853.6+536.507Z" opacity="0.1" fill="#6c63ff"/>
<path d="M1900.55+475.735L1875.64+490.647L1890.86+464.66C1886.57+461.435+1881.27+459.655+1875.79+459.601L1875.39+459.601C1873.69+459.623+1871.99+459.503+1870.31+459.242L1861.74+464.3L1865.37+458.067C1859.38+456.106+1854.2+452.396+1850.58+447.471L1835.36+456.533L1844.9+440.135C1836.07+430.114+1824.15+423.977+1811.06+423.977C1795.34+423.977+1781.36+432.799+1772.31+446.56C1766.87+454.936+1757.1+459.914+1746.71+459.601L1745.88+459.601C1728.53+459.601+1714.48+478.18+1714.48+501.099C1714.48+524.017+1728.53+542.62+1745.88+542.62C1749.69+542.596+1753.44+541.709+1756.81+540.031C1768.76+534.525+1782.68+534.262+1794.86+539.312C1805.13+543.674+1816.89+543.674+1827.17+539.312C1839.25+534.376+1853+534.63+1864.86+540.007C1868.2+541.657+1871.9+542.529+1875.67+542.549C1893.02+542.549+1907.07+523.945+1907.07+501.027C1907.17+492.213+1904.93+483.516+1900.55+475.735Z" opacity="0.1" fill="url(#RadialGradient)"/>
<path d="M794.558+523.538C788.211+522.404+781.651+523.08+775.712+525.48C768.521+528.516+760.303+528.516+753.112+525.48C744.596+521.944+734.865+522.129+726.505+525.983C724.154+527.142+721.547+527.758+718.896+527.781C708.116+527.781+699.137+517.52+697.26+503.976C699.412+502.485+701.245+500.622+702.662+498.486C708.978+488.896+718.769+482.663+729.777+482.663C740.785+482.663+750.449+488.777+756.765+498.294C760.601+504.154+767.407+507.684+774.697+507.596L774.976+507.596C783.499+507.548+790.931+514.068+794.558+523.538Z" opacity="0.1" fill="#6c63ff"/>
<path d="M827.405+481.033L809.979+491.486L820.556+473.29C817.566+471.028+813.86+469.778+810.03+469.742L809.726+469.742C808.519+469.762+807.313+469.674+806.124+469.478L800.214+473.026L802.75+468.663C798.561+467.286+794.94+464.693+792.402+461.255L781.825+467.584L788.521+456.125C782.826+449.175+774.128+445.012+764.831+444.786C753.822+444.786+744.032+450.971+737.716+460.608C733.906+466.473+727.062+469.959+719.783+469.742L719.2+469.742C707.05+469.742+697.209+482.735+697.209+498.797C697.209+514.859+707.05+527.853+719.2+527.853C721.855+527.834+724.465+527.208+726.809+526.031C735.168+522.198+744.884+522.023+753.391+525.552C756.969+527.093+760.848+527.91+764.78+527.949C768.65+527.942+772.477+527.175+776.016+525.695C784.468+522.238+794.09+522.413+802.395+526.175C804.743+527.337+807.354+527.946+810.005+527.949C822.129+527.949+831.97+514.931+831.97+498.893C832.073+492.671+830.502+486.525+827.405+481.033Z" opacity="0.1" fill="url(#RadialGradient_2)"/>
<path d="M485.948+711.512C492.287+710.38+498.838+711.056+504.769+713.453C511.968+716.491+520.195+716.491+527.394+713.453C535.91+709.924+545.634+710.099+554.001+713.933C556.344+715.113+558.956+715.738+561.611+715.755C572.39+715.755+581.37+705.47+583.221+691.925C581.071+690.44+579.245+688.576+577.844+686.436C571.503+676.846+561.712+670.637+550.729+670.637C539.746+670.637+530.057+676.726+523.716+686.268C519.884+692.12+513.09+695.65+505.809+695.569L505.53+695.569C496.982+695.617+489.525+702.114+485.948+711.512Z" opacity="0.1" fill="#6c63ff"/>
<path d="M453.076+669.079L470.527+679.531L459.925+661.36C462.922+659.09+466.636+657.833+470.476+657.788L470.755+657.788C471.969+657.804+473.182+657.724+474.382+657.548L480.292+661.072L477.756+656.733C481.936+655.353+485.549+652.76+488.079+649.325L498.656+655.654L492.061+644.171C497.759+637.227+506.457+633.072+515.752+632.856C526.734+632.856+536.551+639.041+542.866+648.678C546.672+654.536+553.504+658.02+560.774+657.812L561.382+657.812C573.507+657.812+583.348+670.829+583.348+686.867C583.348+702.905+573.507+715.923+561.382+715.923C558.73+715.912+556.119+715.295+553.773+714.125C545.413+710.27+535.682+710.086+527.166+713.621C523.602+715.176+519.728+715.994+515.802+716.019C511.924+716.015+508.088+715.248+504.541+713.765C496.097+710.309+486.483+710.484+478.187+714.245C475.839+715.407+473.228+716.016+470.578+716.019C458.428+716.019+448.587+703.025+448.587+686.963C448.468+680.74+450.012+674.589+453.076+669.079Z" opacity="0.1" fill="url(#RadialGradient_3)"/>
<path stroke="#f3f3f3" stroke-width="4" d="M1487.13+1447.22C1493.75+1435.62+1486.25+1421.43+1477.62+1411.1C1469+1400.76+1458.45+1390+1458.68+1376.84C1459+1357.92+1480.26+1346.73+1497.23+1336.71C1509.83+1329.24+1521.45+1320.39+1531.85+1310.34C1536.2+1306.47+1539.8+1301.91+1542.48+1296.87C1546+1289.48+1545.9+1281.04+1545.68+1272.89C1544.95+1245.9+1543.54+1218.92+1541.44+1191.96" fill="none" stroke-linecap="butt" opacity="1" stroke-linejoin="miter"/>
<path d="M1573.73+1190.62C1573.23+1180.57+1567.35+1171.45+1558.13+1166.43L1551.13+1179.49L1551.36+1163.67C1538.33+1160.04+1524.32+1164.79+1516.7+1175.42C1509.07+1186.04+1509.59+1200.1+1517.97+1210.2C1526.36+1220.29+1540.68+1224.11+1553.41+1219.64C1566.14+1215.17+1574.36+1203.44+1573.73+1190.62Z" opacity="1" fill="url(#LinearGradient)"/>
<path d="M1518.03+1390.36C1511.57+1402.22+1497.5+1408.52+1483.7+1405.71C1469.9+1402.9+1459.81+1391.7+1459.08+1378.37C1458.85+1374.29+1459.54+1370.2+1461.11+1366.39C1465.82+1355+1477.46+1347.53+1490.39+1347.6C1503.33+1347.67+1514.88+1355.26+1519.45+1366.7L1499.94+1381.71L1521.4+1376.91C1521.43+1381.58+1520.27+1386.2+1518.03+1390.36Z" opacity="1" fill="url(#LinearGradient_2)"/>
<path d="M1502.61+1333.06C1486.74+1333.77+1472.84+1323.11+1470.31+1308.29C1467.78+1293.47+1477.42+1279.22+1492.71+1275.17L1492.54+1287.32L1499.61+1274.09L1499.61+1274.09C1516.84+1273.33+1531.46+1285.91+1532.27+1302.2C1533.08+1318.48+1519.76+1332.3+1502.53+1333.06L1502.61+1333.06Z" opacity="1" fill="url(#LinearGradient_3)"/>
<path d="M1578.42+1285.38C1565.14+1286.03+1552.89+1278.66+1547.88+1267.02C1542.88+1255.38+1546.22+1242.02+1556.21+1233.73C1566.21+1225.44+1580.66+1224.04+1592.22+1230.24L1586.71+1244.63L1597.95+1234.13C1607.24+1242.18+1610.5+1254.73+1606.21+1265.93C1601.91+1277.13+1590.91+1284.8+1578.32+1285.36L1578.42+1285.38Z" opacity="1" fill="url(#LinearGradient_4)"/>
<path d="M1569.52+1198.48C1562.31+1199.22+1555.31+1201.33+1548.06+1201.76C1540.81+1202.19+1532.84+1200.54+1528.33+1195.24C1526.2+1192.16+1524.27+1188.95+1522.54+1185.65C1520.57+1182.74+1517.87+1180.34+1514.68+1178.65C1509.16+1188.86+1510.41+1201.17+1517.86+1210.21C1525.32+1219.26+1537.64+1223.4+1549.47+1220.84C1561.29+1218.27+1570.47+1209.47+1573.02+1198.26C1571.88+1198.29+1570.68+1198.36+1569.52+1198.48Z" opacity="0.1" fill="#000000"/>
<path d="M1578.42+1285.38C1567.47+1285.87+1557.05+1280.9+1550.97+1272.28C1544.88+1263.66+1544.03+1252.65+1548.72+1243.28C1551.19+1244.87+1553.32+1246.88+1554.98+1249.23C1556.85+1252.59+1558.92+1255.85+1561.17+1258.99C1566.04+1264.38+1574.36+1266.18+1581.9+1265.82C1589.43+1265.46+1596.71+1263.42+1604.22+1262.82C1605.26+1262.82+1606.3+1262.68+1607.36+1262.66C1604.17+1275.49+1592.36+1284.77+1578.42+1285.38Z" opacity="0.1" fill="url(#LinearGradient_5)"/>
<path d="M1502.61+1333.06C1491.77+1333.54+1481.45+1328.68+1475.34+1320.2C1469.24+1311.73+1468.22+1300.87+1472.65+1291.52C1475.22+1293.12+1477.47+1295.15+1479.27+1297.51C1481.32+1300.95+1483.58+1304.28+1486.04+1307.46C1491.29+1313+1500.17+1314.96+1508.14+1314.65C1516.1+1314.34+1523.35+1312.71+1530.96+1312.26C1527.08+1324.14+1515.75+1332.46+1502.61+1333.06Z" opacity="0.1" fill="#1ee2de"/>
<path d="M1518.03+1390.36C1511.57+1402.22+1497.5+1408.52+1483.7+1405.71C1469.9+1402.9+1459.81+1391.7+1459.08+1378.37C1458.85+1374.29+1459.54+1370.2+1461.11+1366.39C1463.68+1367.98+1465.99+1369.93+1467.96+1372.16C1470.93+1375.57+1472.88+1379.36+1476.33+1382.64C1482.7+1388.56+1493.02+1391.01+1502.18+1391.22C1507.47+1391.24+1512.77+1390.95+1518.03+1390.36Z" opacity="0.1" fill="#000000"/>
<path stroke="#f3f3f3" stroke-width="4" d="M153.428+1289.11C160.049+1277.51+152.541+1263.31+143.917+1252.98C135.293+1242.65+124.741+1231.84+124.97+1218.72C125.299+1199.81+146.555+1188.61+163.523+1178.59C176.125+1171.12+187.747+1162.27+198.146+1152.22C202.495+1148.35+206.092+1143.79+208.774+1138.75C212.299+1131.36+212.198+1122.93+211.97+1114.78C211.226+1087.78+209.814+1060.8+207.734+1033.84" fill="none" stroke-linecap="butt" opacity="1" stroke-linejoin="miter"/>
<path d="M240.023+1032.5C239.525+1022.45+233.645+1013.33+224.424+1008.31L217.423+1021.38L217.651+1005.55C204.624+1001.93+190.612+1006.68+182.99+1017.3C175.369+1027.92+175.885+1041.98+184.269+1052.08C192.652+1062.18+206.979+1066+219.708+1061.53C232.438+1057.06+240.65+1045.32+240.023+1032.5Z" opacity="1" fill="url(#LinearGradient_6)"/>
<path d="M184.322+1232.24C177.865+1244.11+163.79+1250.4+149.99+1247.59C136.191+1244.79+126.1+1233.58+125.375+1220.26C125.142+1216.17+125.834+1212.08+127.405+1208.27C132.112+1196.89+143.754+1189.42+156.687+1189.49C169.62+1189.55+181.172+1197.15+185.743+1208.58L166.237+1223.59L187.696+1218.79C187.72+1223.47+186.564+1228.08+184.322+1232.24Z" opacity="1" fill="url(#LinearGradient_7)"/>
<path d="M168.901+1174.95C153.037+1175.65+139.139+1164.99+136.607+1150.17C134.075+1135.36+143.716+1121.1+159.009+1117.05L158.831+1129.21L165.908+1115.97L165.908+1115.97C183.138+1115.21+197.759+1127.8+198.564+1144.08C199.37+1160.37+186.055+1174.19+168.825+1174.95L168.901+1174.95Z" opacity="1" fill="url(#LinearGradient_8)"/>
<path d="M240.59+1137.69C227.313+1138.33+215.058+1130.96+210.052+1119.32C205.047+1107.68+208.391+1094.32+218.383+1086.03C228.376+1077.74+242.826+1076.35+254.389+1082.55L248.885+1096.93L260.121+1086.43C269.414+1094.48+272.671+1107.03+268.378+1118.23C264.084+1129.44+253.083+1137.1+240.489+1137.66L240.59+1137.69Z" opacity="1" fill="url(#LinearGradient_9)"/>
<path d="M244.715+1127.27C233.764+1127.76+223.344+1122.78+217.261+1114.16C211.179+1105.54+210.325+1094.54+215.013+1085.17C217.489+1086.75+219.616+1088.77+221.278+1091.11C223.144+1094.47+225.21+1097.73+227.467+1100.87C232.337+1106.26+240.657+1108.06+248.19+1107.7C255.723+1107.34+263.003+1105.31+270.511+1104.71C271.551+1104.71+272.591+1104.56+273.656+1104.54C270.464+1117.37+258.651+1126.65+244.715+1127.27Z" opacity="0.1" fill="url(#LinearGradient_10)"/>
<path d="M168.901+1174.95C158.067+1175.43+147.745+1170.56+141.638+1162.09C135.53+1153.62+134.511+1142.76+138.945+1133.4C141.519+1135+143.762+1137.03+145.565+1139.4C147.611+1142.84+149.872+1146.16+152.338+1149.34C157.588+1154.88+166.466+1156.85+174.43+1156.54C182.395+1156.22+189.649+1154.59+197.258+1154.14C193.379+1166.02+182.044+1174.34+168.901+1174.95Z" opacity="0.1" fill="#1ee2de"/>
<path d="M184.322+1232.24C177.865+1244.11+163.79+1250.4+149.99+1247.59C136.191+1244.79+126.1+1233.58+125.375+1220.26C125.142+1216.17+125.834+1212.08+127.405+1208.27C129.976+1209.87+132.284+1211.81+134.253+1214.05C137.221+1217.45+139.174+1221.24+142.623+1224.52C148.99+1230.45+159.313+1232.89+168.47+1233.11C173.767+1233.12+179.061+1232.83+184.322+1232.24Z" opacity="0.1" fill="#1ee2de"/>
<path stroke="#f3f3f3" stroke-width="4" d="M970.232+1077.15C963.612+1065.57+971.12+1051.38+979.769+1041.05C988.418+1030.71+998.919+1019.95+998.691+1006.79C998.387+987.851+977.131+976.679+960.137+966.658C947.54+959.194+935.926+950.342+925.54+940.288C921.17+936.44+917.563+931.885+914.887+926.839C911.386+919.431+911.488+911.016+911.691+902.866C912.452+875.872+913.864+848.894+915.927+821.932" fill="none" stroke-linecap="butt" opacity="1" stroke-linejoin="miter"/>
<path d="M883.663+820.566C884.151+810.52+890.021+801.402+899.237+796.377L906.237+809.442L906.035+793.62C909.369+792.704+912.838+792.307+916.307+792.445C933.531+793.204+946.843+807.014+946.044+823.293C945.244+839.572+930.635+852.157+913.411+851.404C896.187+850.651+882.869+836.845+883.663+820.566Z" opacity="1" fill="url(#LinearGradient_11)"/>
<path d="M939.338+1020.31C946.084+1032.72+961.108+1038.97+975.35+1035.29C989.591+1031.61+999.158+1019+998.28+1005.07C997.403+991.142+986.321+979.697+971.718+977.638C957.115+975.58+942.982+983.471+937.842+996.553L957.347+1011.56L935.888+1006.77C935.871+1011.48+937.054+1016.12+939.338+1020.31Z" opacity="1" fill="url(#LinearGradient_12)"/>
<path d="M954.76+963.014C970.63+963.736+984.542+953.078+987.082+938.254C989.621+923.43+979.977+909.168+964.677+905.119L964.829+917.274L957.753+904.04L957.753+904.04C940.529+903.239+925.88+915.786+925.033+932.065C924.854+935.47+925.309+938.878+926.377+942.134C930.214+954.067+941.579+962.428+954.76+963.014Z" opacity="1" fill="url(#LinearGradient_13)"/>
<path d="M878.971+915.284C892.246+915.923+904.494+908.548+909.491+896.906C914.489+885.265+911.141+871.909+901.148+863.625C891.154+855.34+876.707+853.944+865.147+860.145L870.676+874.529L859.313+864.245C853.191+869.487+849.539+876.823+849.167+884.622C849.016+887.353+849.281+890.09+849.954+892.749C853.224+905.538+865.062+914.732+878.971+915.284Z" opacity="1" fill="url(#LinearGradient_14)"/>
<path d="M887.874+828.429C895.077+829.172+902.078+831.282+909.306+831.713C916.535+832.145+924.525+830.491+929.065+825.192C931.181+822.105+933.103+818.903+934.823+815.603C936.805+812.693+939.514+810.289+942.711+808.603C948.237+818.817+946.999+831.133+939.537+840.181C932.075+849.229+919.741+853.369+907.913+850.798C896.084+848.227+886.903+839.409+884.373+828.189C885.515+828.213+886.681+828.309+887.874+828.429Z" opacity="0.1" fill="url(#LinearGradient_15)"/>
<path d="M878.971+915.284C889.916+915.76+900.326+910.782+906.405+902.166C912.484+893.55+913.344+882.554+908.672+873.187C906.19+874.767+904.054+876.786+902.382+879.132C900.517+882.493+898.45+885.751+896.193+888.889C891.348+894.283+883.029+896.081+875.496+895.722C867.962+895.362+860.683+893.324+853.175+892.725C852.135+892.725+851.07+892.581+850.03+892.557C853.214+905.397+865.032+914.677+878.971+915.284Z" opacity="0.1" fill="url(#LinearGradient_16)"/>
<path d="M954.76+963.014C965.599+963.508+975.931+958.643+982.042+950.167C988.153+941.691+989.165+930.823+984.715+921.469C982.145+923.065+979.909+925.097+978.12+927.462C976.075+930.903+973.814+934.225+971.348+937.411C966.072+942.949+957.22+944.915+949.23+944.603C941.24+944.291+934.012+942.661+926.402+942.206C930.262+954.102+941.609+962.428+954.76+963.014Z" opacity="0.1" fill="url(#LinearGradient_17)"/>
<path d="M939.338+1020.31C946.947+1034.17+964.665+1040.03+979.759+1033.68C994.853+1027.32+1002.1+1010.96+996.281+996.337C993.698+997.919+991.388+999.868+989.433+1002.11C986.465+1005.52+984.36+1009.31+981.063+1012.59C974.671+1018.51+964.373+1020.96+955.191+1021.17C949.893+1021.18+944.6+1020.89+939.338+1020.31Z" opacity="0.1" fill="#1ee2de"/>
<path d="M1526.35+842.909C1526.35+710.561+1639.86+603.273+1779.89+603.273C1919.92+603.273+2033.43+710.561+2033.43+842.909C2033.43+975.256+1919.92+1082.54+1779.89+1082.54C1639.86+1082.54+1526.35+975.256+1526.35+842.909Z" opacity="1" fill="#f1f1f1"/>
<path d="M1888.73+904.712C1879.9+896.369+1858.67+883.783+1848.15+879.084C1836+873.57+1831.53+873.666+1822.93+879.54C1815.78+884.334+1811.14+888.961+1802.92+887.259C1794.7+885.557+1778.42+873.954+1762.67+859.115C1746.92+844.275+1734.69+828.98+1732.94+821.093C1731.19+813.206+1736.01+808.915+1741.13+802.154C1747.32+794.027+1747.5+789.808+1741.62+778.325C1736.54+768.376+1723.38+748.358+1714.48+739.968C1705.57+731.577+1703.64+733.423+1698.78+735.173C1693.76+737.159+1688.95+739.566+1684.39+742.365C1675.57+747.951+1670.62+752.602+1667.15+759.602C1663.67+766.602+1659.74+779.595+1679.95+813.613C1694.87+839.637+1713.76+863.442+1736.01+884.262L1736.01+884.262L1736.01+884.262C1758.11+905.344+1783.39+923.229+1811.01+937.339C1846.98+956.518+1860.75+952.706+1868.16+949.446C1875.57+946.185+1880.49+941.558+1886.37+933.144C1889.34+928.84+1891.88+924.291+1893.98+919.551C1895.65+914.948+1897.63+913.078+1888.73+904.712Z" opacity="1" fill="url(#LinearGradient_18)"/>
<path d="M1779.89+603.297C1639.77+603.23+1526.14+710.557+1526.12+842.989C1526.1+975.42+1639.69+1082.78+1779.81+1082.76C1919.92+1082.74+2033.48+975.34+2033.41+842.909C2033.34+710.602+1919.88+603.363+1779.89+603.297ZM1779.89+1050.68C1658.48+1050.68+1560.06+957.66+1560.06+842.909C1560.06+728.157+1658.48+635.133+1779.89+635.133C1901.3+635.133+1999.72+728.157+1999.72+842.909C1999.72+957.66+1901.3+1050.68+1779.89+1050.68Z" opacity="0.1" fill="#000000"/>
<path d="M1341.59+1134.49L1265.68+1207.49C1265.41+1207.74+1265.25+1208.07+1265.25+1208.43C1265.25+1208.78+1265.41+1209.12+1265.68+1209.36L1318.94+1262.9C1321.55+1265.38+1322.32+1269.09+1320.91+1272.32C1319.5+1275.55+1316.17+1277.67+1312.47+1277.69C1310.04+1277.68+1307.71+1276.77+1305.98+1275.15L1252.99+1221.8C1252.43+1221.28+1251.53+1221.28+1250.97+1221.8L1238.06+1234.13C1227.38+1244.45+1212.75+1250.27+1197.47+1250.26C1181.91+1250.19+1167.03+1244.21+1156.18+1233.67L1143.78+1221.69C1143.21+1221.16+1142.31+1221.16+1141.75+1221.69L1088.89+1274.91C1087.17+1276.53+1084.84+1277.45+1082.41+1277.45C1079.97+1277.45+1077.64+1276.53+1075.93+1274.91C1074.2+1273.29+1073.23+1271.08+1073.23+1268.78C1073.23+1266.48+1074.2+1264.28+1075.93+1262.66L1128.99+1209.24C1129.48+1208.7+1129.48+1207.91+1128.99+1207.37L1053.07+1134.37C1052.67+1134+1052.07+1133.88+1051.55+1134.09C1051.03+1134.29+1050.69+1134.77+1050.69+1135.31L1050.69+1281.38C1050.73+1293.13+1060.8+1302.65+1073.24+1302.69L1321.48+1302.69C1333.91+1302.65+1343.99+1293.13+1344.03+1281.38L1344.03+1135.43C1344.05+1134.87+1343.71+1134.36+1343.16+1134.15C1342.61+1133.94+1341.99+1134.08+1341.59+1134.49Z" opacity="1" fill="url(#LinearGradient_19)"/>
<path d="M1197.4+1232.93C1207.79+1233.02+1217.79+1229.13+1225.09+1222.14L1335.66+1115.77C1331.73+1112.7+1326.8+1111+1321.71+1110.98L1073.29+1110.98C1068.19+1110.99+1063.26+1112.69+1059.34+1115.77L1169.93+1222.14C1177.17+1229.09+1187.07+1232.98+1197.4+1232.93Z" opacity="1" fill="url(#LinearGradient_20)"/>
<path d="M342.132+1027.93C342.132+895.586+455.647+788.298+595.675+788.298C735.703+788.298+849.218+895.586+849.218+1027.93C849.218+1160.28+735.703+1267.57+595.675+1267.57C455.647+1267.57+342.132+1160.28+342.132+1027.93Z" opacity="1" fill="#f1f1f1"/>
<path d="M595.675+913.27L494.598+1133.68L504.033+1142.6L595.7+1104.38L687.368+1142.6L696.803+1133.68L595.675+913.27Z" opacity="1" fill="url(#LinearGradient_21)"/>
<path d="M595.675+788.226C455.575+788.16+341.95+895.462+341.904+1027.88C341.857+1160.29+455.405+1267.67+595.506+1267.69C735.606+1267.71+849.193+1160.37+849.193+1027.96C849.193+895.604+735.71+788.292+595.675+788.226ZM595.675+1235.61C474.248+1235.61+375.818+1142.56+375.841+1027.8C375.865+913.031+474.332+820.018+595.76+820.062C717.187+820.106+815.579+913.191+815.509+1027.96C815.495+1142.7+717.076+1235.71+595.675+1235.71L595.675+1235.61Z" opacity="0.1" fill="#000000"/>
<path d="M1803.23+1329.73C1800.93+1324.43+1798.57+1319.14+1796.15+1313.86C1794.16+1308.72+1791.23+1303.94+1787.5+1299.74C1786.08+1298.23+1784.36+1297.01+1782.43+1296.15C1780.3+1295.41+1778.07+1294.98+1775.81+1294.9C1772.36+1294.49+1768.87+1294.4+1765.41+1294.64C1764.06+1294.25+1762.54+1293.75+1761.04+1293.17C1776.45+1289.35+1787.41+1276.45+1788.03+1261.41C1788.03+1260.93+1788.03+1260.43+1788.03+1259.95C1788.12+1241.08+1772+1225.72+1752.04+1225.64C1745.36+1225.63+1738.81+1227.4+1733.14+1230.75C1717.74+1227.44+1701.96+1234.63+1695.1+1248.08C1686.6+1255.76+1681.91+1266.46+1682.16+1277.57C1682.16+1278.07+1682.16+1278.6+1682.16+1279.08C1682.82+1297.7+1695.55+1312.64+1711.63+1314.15C1709.92+1314.88+1708.34+1315.88+1706.97+1317.1C1702.05+1321.58+1701.24+1328.7+1700.7+1335.17L1700.32+1339.97L1691.8+1342.85C1691.25+1343.03+1690.85+1343.49+1690.77+1344.04C1690.69+1344.59+1690.94+1345.14+1691.42+1345.46L1699.56+1350.95C1699.56+1351.4+1699.56+1351.86+1699.56+1352.32C1699.56+1352.77+1699.56+1353.35+1699.71+1353.87C1698.32+1355.03+1697.24+1356.49+1696.57+1358.12C1695.78+1360.63+1695.53+1363.27+1695.83+1365.88L1696.14+1372.57C1696.1+1377.61+1696.82+1382.62+1698.29+1387.46C1699.36+1390.43+1703.97+1397.6+1707.3+1397.65C1704.23+1410.83+1703.42+1438.64+1703.42+1438.64C1703.04+1439+1704.1+1439.34+1705.95+1439.63C1707.78+1452.86+1713.74+1489.97+1724.32+1506.29C1725.98+1511.62+1727.31+1517.03+1728.3+1522.5C1728.3+1522.5+1731.32+1557.77+1735.3+1568.24C1738.7+1577.16+1741.39+1599.17+1742.12+1605.54C1740.72+1605.89+1739.63+1606.94+1739.31+1608.28C1737.3+1613.98+1724.32+1622.66+1724.32+1622.66C1720.34+1624.54+1716.58+1626.81+1713.11+1629.45C1709.02+1632.92+1709.17+1636.06+1727.31+1634.1C1762.31+1630.28+1768.3+1619.71+1768.3+1619.71C1768.3+1619.71+1767.74+1617.94+1766.9+1615.64C1765.84+1612.06+1764.29+1608.62+1762.31+1605.4C1761.81+1604.94+1761.3+1605.71+1760.69+1606.91C1758.05+1591.61+1757.25+1576.08+1758.31+1560.62C1758.31+1560.62+1759.29+1544.41+1754.3+1532.98C1753.19+1526.99+1753.19+1520.86+1754.3+1514.88C1756.3+1507.25+1746.31+1470.07+1746.31+1470.07L1740.58+1442.69C1741.36+1443.63+1741.9+1444.72+1742.17+1445.88L1742.33+1446.43L1742.48+1447.22C1742.54+1447.5+1742.68+1447.76+1742.88+1447.97C1746.79+1463.31+1757.49+1505.82+1757.49+1512.05C1757.49+1519.67+1767.49+1538.73+1767.49+1538.73C1767.49+1538.73+1771.47+1570.18+1778.47+1582.55C1783.8+1591.98+1783.92+1605.78+1783.67+1611.87L1783.67+1611.87C1783.67+1611.87+1782.48+1619.71+1780.47+1621.61C1778.88+1623.48+1777.61+1625.57+1776.69+1627.82L1776.47+1628.27C1776.47+1628.27+1773.47+1634+1775.48+1634.96C1783.1+1637.78+1791.35+1638.77+1799.47+1637.81C1799.47+1637.81+1803.48+1633.02+1803.48+1631.15C1803.4+1630.01+1803.24+1628.87+1803.02+1627.74C1802.29+1623.24+1800.92+1616.14+1800.89+1616.07C1801.73+1613+1798.36+1604.47+1798.36+1604.47L1797.34+1577.78C1799.2+1559.72+1796.81+1541.49+1790.34+1524.39C1790.34+1524.39+1785.27+1507.25+1786.36+1502.48C1787.45+1497.71+1784.35+1447.2+1784.35+1447.2L1784.05+1446.48C1783.78+1442.91+1783.88+1439.32+1784.35+1435.77C1785.34+1424.33+1781.36+1400.5+1780.35+1399.57C1779.52+1397.01+1779.04+1394.35+1778.93+1391.68C1779.15+1389.69+1779.84+1383.86+1780.78+1376.62C1790.64+1376.31+1800.48+1375.51+1810.25+1374.23C1811.2+1374.23+1812.1+1373.88+1812.79+1373.27C1813.19+1372.69+1813.39+1372.01+1813.37+1371.33C1814.54+1356.97+1808.98+1343.01+1803.23+1329.73ZM1783.11+1359.96C1784.15+1353.13+1785.27+1346.51+1786.38+1341.6L1786.54+1342.03C1788.46+1346.97+1790.07+1352.01+1791.36+1357.13C1788.69+1358.28+1785.94+1359.23+1783.11+1359.96Z" opacity="1" fill="#4e4e4e"/>
<path d="M1705.42+1437.13C1705.42+1437.13+1711.41+1488.03+1724.37+1507.81C1726.03+1513.06+1727.36+1518.41+1728.35+1523.82C1728.35+1523.82+1731.34+1558.68+1735.33+1569.03C1739.31+1579.39+1742.3+1607.68+1742.3+1607.68C1742.3+1607.68+1756.25+1622.73+1761.25+1610.51C1758.11+1594.35+1757.1+1577.89+1758.25+1561.51C1758.25+1561.51+1759.24+1545.49+1754.27+1534.18C1753.16+1528.26+1753.16+1522.21+1754.27+1516.29C1756.25+1508.74+1746.28+1472.01+1746.28+1472.01L1738.32+1435.26L1705.42+1437.13Z" opacity="1" fill="#be6f72"/>
<path d="M1768.22+1619.93C1768.22+1619.93+1762.24+1630.28+1727.36+1634.05C1709.25+1635.99+1709.12+1632.9+1713.21+1629.45C1716.67+1626.84+1720.41+1624.59+1724.37+1622.73C1724.37+1622.73+1737.33+1614.27+1739.31+1608.61C1741.29+1602.95+1748.29+1607.68+1748.29+1607.68C1758.25+1621.8+1760.26+1603.89+1762.24+1605.78C1764.22+1608.95+1765.77+1612.34+1766.83+1615.88C1767.66+1618.15+1768.22+1619.93+1768.22+1619.93Z" opacity="1" fill="#7bd4d2"/>
<path d="M1768.22+1619.93C1768.22+1619.93+1762.24+1630.28+1727.36+1634.05C1709.25+1635.99+1709.12+1632.9+1713.21+1629.45C1716.05+1631.15+1721.78+1631.84+1733.32+1627.46C1749.94+1621.03+1761.98+1617.31+1766.83+1615.88C1767.66+1618.15+1768.22+1619.93+1768.22+1619.93Z" opacity="0.1" fill="#000000"/>
<path d="M1758.25+1561.51C1758.25+1561.51+1759.24+1545.49+1754.27+1534.18C1753.16+1528.26+1753.16+1522.21+1754.27+1516.29C1756.25+1508.74+1746.28+1472.01+1746.28+1472.01L1738.32+1435.26L1731.42+1435.65L1739.31+1472.01C1739.31+1472.01+1749.28+1508.74+1747.3+1516.29C1746.19+1522.21+1746.19+1528.26+1747.3+1534.18C1752.37+1545.49+1751.28+1561.51+1751.28+1561.51C1750.13+1577.89+1751.13+1594.35+1754.27+1610.51C1753.73+1612.04+1752.73+1613.39+1751.38+1614.39C1755.08+1615.97+1758.99+1615.9+1761.25+1610.51C1758.11+1594.35+1757.1+1577.89+1758.25+1561.51Z" opacity="0.1" fill="#000000"/>
<path d="M1751.76+1230.34C1745.11+1230.33+1738.59+1232.08+1732.94+1235.4C1717.58+1232.05+1701.81+1239.15+1694.89+1252.54C1686.43+1260.1+1681.75+1270.69+1681.98+1281.69C1681.98+1301.73+1696.26+1317.96+1713.87+1317.96C1726.55+1317.96+1737.66+1309.43+1742.76+1297.08C1745.69+1297.81+1748.71+1298.18+1751.74+1298.18C1771.56+1298.18+1787.63+1283+1787.63+1264.26C1787.63+1245.53+1771.56+1230.34+1751.74+1230.34L1751.76+1230.34Z" opacity="1" fill="#202020"/>
<path d="M1781.18+1441.86L1784.18+1449.38C1784.18+1449.38+1787.17+1499.32+1786.16+1504.04C1785.14+1508.76+1790.16+1525.62+1790.16+1525.62C1796.61+1542.49+1798.99+1560.51+1797.14+1578.36L1798.13+1604.73C1798.13+1604.73+1802.11+1615.09+1800.13+1616.98C1798.15+1618.87+1783.11+1615.3+1783.11+1615.3C1783.11+1615.3+1785.12+1595.52+1778.04+1583.27C1770.96+1571.02+1767.08+1539.93+1767.08+1539.93C1767.08+1539.93+1757.11+1521.09+1757.11+1513.56C1757.11+1506.03+1741.16+1444.78+1741.16+1444.78L1781.18+1441.86Z" opacity="1" fill="#be6f72"/>
<path d="M1703.42+1440.92C1703.42+1440.92+1704.43+1407+1708.49+1396.64C1710.55+1391.8+1712.04+1386.76+1712.93+1381.61C1712.93+1381.61+1773.27+1391.92+1778.27+1388.16C1778.27+1388.16+1779.26+1401.34+1780.27+1402.28C1781.29+1403.21+1785.34+1426.78+1784.25+1438.09C1783.16+1449.41+1784.25+1449.38+1784.25+1449.38C1784.25+1449.38+1743.37+1455.04+1742.38+1449.38C1741.39+1443.72+1738.39+1443.75+1738.39+1443.75C1738.39+1443.75+1701.44+1442.69+1703.42+1440.92Z" opacity="1" fill="#e2a26c"/>
<g opacity="0.1">
<path d="M1736.31+1440.92C1736.31+1440.92+1711.1+1440.27+1703.49+1438.98C1703.49+1440.2+1703.49+1440.92+1703.49+1440.92C1701.51+1442.79+1738.39+1443.75+1738.39+1443.75C1738.9+1443.79+1739.37+1443.98+1739.76+1444.28C1738.42+1440.92+1736.31+1440.92+1736.31+1440.92Z" opacity="0.1" fill="#000000"/>
<path d="M1780.19+1402.28C1779.18+1401.34+1778.19+1388.16+1778.19+1388.16C1777.67+1388.46+1777.09+1388.65+1776.49+1388.73C1776.85+1392.71+1777.53+1398.82+1778.19+1399.45C1778.85+1400.07+1783.26+1423.95+1782.17+1435.26C1781.08+1446.58+1782.17+1446.55+1782.17+1446.55C1782.17+1446.55+1749.83+1451.04+1742+1448.04C1742+1448.45+1742.22+1448.9+1742.3+1449.38C1743.29+1455.04+1784.18+1449.38+1784.18+1449.38C1784.18+1449.38+1783.16+1449.38+1784.18+1438.09C1785.19+1426.8+1781.18+1403.23+1780.19+1402.28Z" opacity="0.1" fill="#000000"/>
<path d="M1736.31+1440.92C1736.31+1440.92+1711.1+1440.27+1703.49+1438.98C1703.49+1440.2+1703.49+1440.92+1703.49+1440.92C1701.51+1442.79+1738.39+1443.75+1738.39+1443.75C1738.9+1443.79+1739.37+1443.98+1739.76+1444.28C1738.42+1440.92+1736.31+1440.92+1736.31+1440.92Z" opacity="0.1" fill="#ff0000"/>
<path d="M1780.19+1402.28C1779.18+1401.34+1778.19+1388.16+1778.19+1388.16C1777.67+1388.46+1777.09+1388.65+1776.49+1388.73C1776.85+1392.71+1777.53+1398.82+1778.19+1399.45C1778.85+1400.07+1783.26+1423.95+1782.17+1435.26C1781.08+1446.58+1782.17+1446.55+1782.17+1446.55C1782.17+1446.55+1749.83+1451.04+1742+1448.04C1742+1448.45+1742.22+1448.9+1742.3+1449.38C1743.29+1455.04+1784.18+1449.38+1784.18+1449.38C1784.18+1449.38+1783.16+1449.38+1784.18+1438.09C1785.19+1426.8+1781.18+1403.23+1780.19+1402.28Z" opacity="0.1" fill="#ff0000"/>
</g>
<path d="M1747.35+1289.7C1748.21+1291.51+1749.51+1293.11+1751.15+1294.35C1752.21+1295.09+1753.43+1295.59+1754.73+1295.81C1752.5+1297.03+1750.06+1297.94+1747.83+1299.17C1744.32+1301.4+1740.93+1303.8+1737.68+1306.36C1734.36+1308.88+1730.3+1310.37+1726.04+1310.63C1729.08+1306.75+1729.7+1301.64+1727.67+1297.22C1726.75+1295.8+1726.15+1294.22+1725.89+1292.57C1725.89+1289.86+1728.43+1287.78+1730.79+1286.34C1732.69+1285.12+1734.64+1283.94+1736.62+1282.77C1738.17+1281.86+1740.5+1279.94+1742.45+1280.01C1744.41+1280.08+1744.63+1281.71+1744.99+1283.39C1745.49+1285.58+1746.28+1287.7+1747.35+1289.7Z" opacity="1" fill="#be6f72"/>
<path d="M1747.35+1289.7C1748.21+1291.51+1749.51+1293.11+1751.15+1294.35C1752.21+1295.09+1753.43+1295.59+1754.73+1295.81C1752.5+1297.03+1750.06+1297.94+1747.83+1299.17C1744.32+1301.4+1740.93+1303.8+1737.68+1306.36C1734.36+1308.88+1730.3+1310.37+1726.04+1310.63C1729.08+1306.75+1729.7+1301.64+1727.67+1297.22C1726.75+1295.8+1726.15+1294.22+1725.89+1292.57C1725.89+1289.86+1728.43+1287.78+1730.79+1286.34C1732.69+1285.12+1734.64+1283.94+1736.62+1282.77C1738.17+1281.86+1740.5+1279.94+1742.45+1280.01C1744.41+1280.08+1744.63+1281.71+1744.99+1283.39C1745.49+1285.58+1746.28+1287.7+1747.35+1289.7Z" opacity="0.1" fill="#000000"/>
<path d="M1747.78+1323.62C1747.78+1311.65+1758.05+1301.95+1770.71+1301.95C1783.37+1301.95+1793.64+1311.65+1793.64+1323.62C1793.64+1335.59+1783.37+1345.29+1770.71+1345.29C1758.05+1345.29+1747.78+1335.59+1747.78+1323.62Z" opacity="1" fill="#be6f72"/>
<path d="M1803.1+1631.22C1803.1+1633.11+1799.12+1637.81+1799.12+1637.81C1791.02+1638.75+1782.8+1637.78+1775.2+1634.98C1773.19+1634.05+1776.19+1628.39+1776.19+1628.39L1776.42+1627.93C1777.33+1625.72+1778.6+1623.65+1780.19+1621.8C1782.17+1619.93+1783.37+1612.21+1783.37+1612.21C1789.55+1602.62+1800.54+1616.36+1800.54+1616.36C1800.54+1616.36+1801.93+1623.55+1802.67+1627.91C1802.92+1629.47+1803.1+1630.74+1803.1+1631.22Z" opacity="1" fill="#7bd4d2"/>
<path d="M1803.1+1631.22C1803.1+1633.11+1799.12+1637.81+1799.12+1637.81C1791.02+1638.75+1782.8+1637.78+1775.2+1634.98C1773.19+1634.05+1776.19+1628.39+1776.19+1628.39L1776.42+1627.93C1783.21+1630.92+1790.64+1632.36+1798.13+1632.15L1802.67+1627.86C1802.92+1629.47+1803.1+1630.74+1803.1+1631.22Z" opacity="0.1" fill="#000000"/>
<path d="M1702.43+1278.38C1702.43+1266.68+1712.47+1257.19+1724.85+1257.19C1737.23+1257.19+1747.27+1266.68+1747.27+1278.38C1747.27+1290.09+1737.23+1299.57+1724.85+1299.57C1712.47+1299.57+1702.43+1290.09+1702.43+1278.38Z" opacity="1" fill="#be6f72"/>
<path d="M1706.76+1320.77C1701.84+1325.2+1701.03+1332.23+1700.53+1338.63L1699.76+1348C1699.49+1350.52+1699.43+1353.07+1699.59+1355.6C1699.59+1357.16+1699.99+1358.74+1700.14+1360.39C1700.3+1362.05+1700.35+1364.13+1700.37+1366.03L1700.37+1379.88C1700.13+1382.74+1700.69+1385.61+1702+1388.2C1703.44+1390.8+1706.74+1391.92+1709.61+1390.79C1711.18+1389.64+1712.29+1388.02+1712.75+1386.19C1715.22+1380.57+1716.93+1374.67+1717.82+1368.64C1718.03+1366.56+1718.05+1364.47+1718.26+1362.38C1718.46+1360.3+1718.84+1358.12+1719.17+1356.01C1720.59+1347.18+1721.22+1338.27+1721.86+1329.37C1722.03+1326.74+1724.55+1316.36+1720.89+1315.2C1719.12+1314.65+1715.44+1316.38+1713.74+1316.95C1711.17+1317.77+1708.79+1319.06+1706.76+1320.77Z" opacity="1" fill="#be6f72"/>
<path d="M1706.76+1320.77C1701.84+1325.2+1701.03+1332.23+1700.53+1338.63L1699.76+1348C1699.49+1350.52+1699.43+1353.07+1699.59+1355.6C1699.59+1357.16+1699.99+1358.74+1700.14+1360.39C1700.3+1362.05+1700.35+1364.13+1700.37+1366.03L1700.37+1379.88C1700.13+1382.74+1700.69+1385.61+1702+1388.2C1703.44+1390.8+1706.74+1391.92+1709.61+1390.79C1711.18+1389.64+1712.29+1388.02+1712.75+1386.19C1715.22+1380.57+1716.93+1374.67+1717.82+1368.64C1718.03+1366.56+1718.05+1364.47+1718.26+1362.38C1718.46+1360.3+1718.84+1358.12+1719.17+1356.01C1720.59+1347.18+1721.22+1338.27+1721.86+1329.37C1722.03+1326.74+1724.55+1316.36+1720.89+1315.2C1719.12+1314.65+1715.44+1316.38+1713.74+1316.95C1711.17+1317.77+1708.79+1319.06+1706.76+1320.77Z" opacity="0.1" fill="#000000"/>
<path d="M1753.26+1292.05C1753.26+1292.05+1736.31+1304.3+1726.35+1307.13C1726.35+1307.13+1720.44+1313.5+1719.42+1315.04C1718.41+1316.57+1716.38+1333.5+1714.35+1337.28C1712.32+1341.07+1707.37+1349.53+1714.35+1358C1714.35+1358+1716.33+1366.48+1715.34+1369.31C1714.35+1372.14+1710.72+1382.5+1714.02+1382.98C1717.32+1383.46+1727.31+1390.02+1736.26+1388.15C1745.22+1386.29+1778.65+1395.35+1778.65+1395.35C1778.65+1395.35+1784.18+1346.8+1788.18+1338.22L1779.21+1335.39C1779.21+1335.39+1754.3+1321.27+1769.24+1299.6C1769.21+1299.6+1755.21+1296.77+1753.26+1292.05Z" opacity="1" fill="#7bd4d2"/>
<path d="M1691.39+1348.79L1711.99+1362.58C1712.53+1362.95+1713.26+1362.95+1713.79+1362.58L1719.37+1358.62C1719.72+1358.34+1719.92+1357.93+1719.92+1357.49C1719.92+1357.06+1719.72+1356.65+1719.37+1356.37L1703.52+1343.06C1703.1+1342.7+1702.5+1342.59+1701.97+1342.77L1691.8+1346.23C1691.25+1346.4+1690.86+1346.85+1690.77+1347.39C1690.69+1347.93+1690.93+1348.47+1691.39+1348.79Z" opacity="1" fill="#e5e5e5"/>
<path d="M1698.32+1390.31C1696.86+1385.54+1696.14+1380.59+1696.16+1375.62L1695.86+1368.98C1695.55+1366.4+1695.8+1363.79+1696.59+1361.31C1698.18+1357.86+1701.31+1355.26+1705.14+1354.23C1708.93+1353.24+1712.89+1352.97+1716.78+1353.44C1717.31+1353.44+1717.83+1353.58+1718.28+1353.83C1718.68+1354.17+1718.96+1354.62+1719.09+1355.12C1720.26+1357.27+1720.42+1359.78+1719.55+1362.05C1718.96+1362.96+1718.16+1363.74+1717.22+1364.33C1714.45+1366.2+1711.23+1367.44+1708.62+1369.48C1708.09+1369.82+1707.68+1370.3+1707.45+1370.87C1707.32+1371.37+1707.32+1371.88+1707.45+1372.38C1707.77+1373.7+1708.22+1374.99+1708.77+1376.24C1708.99+1376.87+1709.39+1377.43+1709.91+1377.87C1710.39+1378.25+1711.03+1378.4+1711.53+1378.76C1712.62+1379.6+1714.91+1380.7+1714.78+1382.02C1714.4+1386.81+1711.36+1392.18+1710.16+1396.93C1707.88+1406.21+1699.79+1394.36+1698.32+1390.31Z" opacity="1" fill="#be6f72"/>
<g opacity="0.1">
<path d="M1730.35+1388.15L1729.8+1388.15C1731.95+1388.55+1734.16+1388.55+1736.31+1388.15L1736.95+1388.15C1734.76+1387.85+1732.54+1387.85+1730.35+1388.15Z" opacity="0.1" fill="#000000"/>
<path d="M1782.68+1336.8C1779.1+1344.4+1773.83+1385.57+1772.89+1393.74C1776.39+1394.6+1778.7+1395.23+1778.7+1395.23C1778.7+1395.23+1784.18+1346.8+1788.18+1338.22L1782.68+1336.8Z" opacity="0.1" fill="#000000"/>
</g>
<path d="M1771.49+1324.29C1771.87+1326.2+1773.05+1327.89+1774.77+1328.97C1776.88+1330.64+1778.83+1332.5+1780.58+1334.53C1783.08+1337.86+1785.02+1341.54+1786.33+1345.43C1788.24+1350.31+1789.84+1355.29+1791.13+1360.35C1778.44+1365.91+1764.04+1365.64+1750.54+1369.31C1744.73+1370.76+1739.46+1373.71+1735.33+1377.82C1731.15+1382.01+1729.1+1387.7+1729.72+1393.43C1729.74+1393.76+1729.84+1394.08+1730.02+1394.36C1730.47+1394.84+1731.13+1395.09+1731.8+1395.04C1735.17+1395.03+1738.45+1393.97+1741.11+1392.01C1743.74+1390.07+1746.13+1387.85+1748.24+1385.4C1749.54+1383.79+1751.3+1382.56+1753.31+1381.85C1760.64+1379.74+1768.53+1379.86+1776.14+1379.74C1787.52+1379.53+1798.88+1378.68+1810.15+1377.2C1810.98+1377.29+1811.82+1377.02+1812.41+1376.46C1813+1375.9+1813.29+1375.11+1813.19+1374.32C1814.31+1360.18+1808.76+1346.37+1803.05+1333.26C1800.77+1328+1798.42+1322.76+1796+1317.55C1794.01+1312.46+1791.09+1307.74+1787.37+1303.6C1785.96+1302.1+1784.23+1300.89+1782.3+1300.05C1780.12+1299.31+1777.82+1298.9+1775.5+1298.85C1771.81+1298.38+1768.07+1298.32+1764.37+1298.66C1763.78+1300.43+1763.42+1302.26+1763.3+1304.1C1763.51+1310.58+1766.5+1316.64+1769.44+1322.49C1769.82+1323.38+1770.91+1323.43+1771.49+1324.29Z" opacity="1" fill="#be6f72"/>
<path stroke="#000000" stroke-width="1" d="M1730.89+1336.42C1729.17+1339.2+1728.29+1342.36+1728.35+1345.58C1728.36+1346.85+1728.57+1348.11+1728.98+1349.32C1730.39+1352.75+1733.36+1355.4+1737.08+1356.51" fill="none" stroke-linecap="butt" opacity="0.1" stroke-linejoin="miter"/>
<path d="M1743.8+1257.67C1742.55+1257.67+1741.31+1257.85+1740.12+1258.22C1736.8+1253.43+1728.98+1250.12+1719.83+1250.12C1707.7+1250.12+1697.89+1256.04+1697.89+1263.33C1697.89+1270.61+1707.7+1276.51+1719.83+1276.51C1724.37+1276.56+1728.86+1275.66+1732.99+1273.87C1735.56+1278.9+1741.64+1281.4+1747.28+1279.75C1752.92+1278.1+1756.44+1272.79+1755.56+1267.27C1754.68+1261.75+1749.65+1257.67+1743.75+1257.67L1743.8+1257.67Z" opacity="1" fill="#202020"/>
<path d="M1744.79+1277.45C1740.2+1277.45+1736.01+1274.96+1734.03+1271.05C1729.9+1272.83+1725.41+1273.73+1720.87+1273.68C1708.77+1273.68+1698.95+1267.79+1698.95+1260.5C1698.91+1260.06+1698.91+1259.62+1698.95+1259.18C1698.23+1260.46+1697.85+1261.88+1697.84+1263.33C1697.84+1270.52+1707.65+1276.51+1719.78+1276.51C1724.32+1276.56+1728.81+1275.66+1732.94+1273.87C1735.18+1278.27+1740.15+1280.8+1745.26+1280.16C1750.38+1279.53+1754.48+1275.86+1755.44+1271.07C1753.47+1274.95+1749.34+1277.42+1744.79+1277.45Z" opacity="0.1" fill="#000000"/>
<path d="M1694.92+1258.1C1701.84+1244.71+1717.61+1237.61+1732.97+1240.96C1743.58+1234.77+1756.83+1234.23+1767.97+1239.54C1779.1+1244.85+1786.52+1255.25+1787.55+1266.99C1787.55+1266.06+1787.55+1265.12+1787.55+1264.17C1787.52+1251.89+1780.47+1240.59+1769.12+1234.62C1757.77+1228.65+1743.89+1228.95+1732.84+1235.4C1717.48+1232.05+1701.71+1239.15+1694.79+1252.54C1686.33+1260.1+1681.64+1270.69+1681.88+1281.69C1681.88+1282.65+1681.88+1283.58+1681.88+1284.52C1682.38+1274.43+1687.06+1264.94+1694.92+1258.1Z" opacity="0.1" fill="#000000"/>
<path stroke="#f3f3f3" stroke-width="4" d="M1923.61+1265.29C1930.23+1253.71+1922.72+1239.5+1914.07+1229.16C1905.42+1218.83+1894.92+1208.09+1895.15+1194.91C1895.45+1175.99+1916.71+1164.82+1933.7+1154.78C1946.3+1147.31+1957.91+1138.46+1968.3+1128.41C1972.66+1124.55+1976.27+1120+1978.95+1114.96C1982.45+1107.55+1982.35+1099.13+1982.15+1090.98C1981.4+1063.97+1979.99+1037+1977.91+1010.05" fill="none" stroke-linecap="butt" opacity="1" stroke-linejoin="miter"/>
<path d="M2010.17+1008.61C2009.68+998.573+2003.81+989.464+1994.6+984.446L1987.6+997.512L1987.8+981.689C1984.47+980.75+1981+980.353+1977.53+980.515C1960.3+981.274+1946.99+995.089+1947.8+1011.37C1948.6+1027.65+1963.22+1040.23+1980.45+1039.47C1997.67+1038.71+2010.98+1024.89+2010.17+1008.61Z" opacity="1" fill="url(#LinearGradient_22)"/>
<path d="M1954.5+1208.38C1947.75+1220.79+1932.73+1227.03+1918.49+1223.35C1904.25+1219.67+1894.69+1207.06+1895.56+1193.13C1896.44+1179.21+1907.52+1167.76+1922.12+1165.7C1936.72+1163.64+1950.85+1171.52+1956+1184.6L1936.49+1199.61L1957.95+1194.81C1957.97+1199.53+1956.79+1204.19+1954.5+1208.38Z" opacity="1" fill="url(#LinearGradient_23)"/>
<path d="M1939.08+1151.06C1923.21+1151.78+1909.3+1141.12+1906.76+1126.3C1904.22+1111.48+1913.86+1097.21+1929.16+1093.16L1929.01+1105.32L1936.08+1092.11L1936.08+1092.11C1953.31+1091.36+1967.92+1103.95+1968.73+1120.23C1969.12+1128.05+1966.21+1135.69+1960.63+1141.48C1955.06+1147.27+1947.27+1150.72+1939+1151.08L1939.08+1151.06Z" opacity="1" fill="url(#LinearGradient_24)"/>
<path d="M2014.87+1103.4C2001.59+1104.04+1989.34+1096.67+1984.35+1085.02C1979.35+1073.38+1982.7+1060.03+1992.69+1051.74C2002.68+1043.46+2017.13+1042.06+2028.69+1048.26L2023.16+1062.65L2034.52+1052.34C2040.64+1057.59+2044.29+1064.92+2044.67+1072.72C2044.82+1075.45+2044.56+1078.18+2043.88+1080.84C2040.62+1093.64+2028.78+1102.84+2014.87+1103.4Z" opacity="1" fill="url(#LinearGradient_25)"/>
<path d="M2005.99+1016.47C1998.79+1017.24+1991.76+1019.35+1984.53+1019.78C1977.3+1020.21+1969.31+1018.56+1964.77+1013.24C1962.65+1010.15+1960.73+1006.95+1959.01+1003.65C1957.04+1000.75+1954.34+998.342+1951.15+996.649C1945.63+1006.86+1946.86+1019.18+1954.33+1028.23C1961.79+1037.27+1974.12+1041.42+1985.95+1038.84C1997.78+1036.27+2006.96+1027.45+2009.49+1016.23C2008.32+1016.28+2007.16+1016.35+2005.99+1016.47Z" opacity="0.1" fill="#1ee2de"/>
<path d="M2014.87+1103.4C2003.92+1103.88+1993.51+1098.9+1987.43+1090.28C1981.35+1081.67+1980.49+1070.67+1985.17+1061.3C1987.65+1062.88+1989.78+1064.89+1991.46+1067.23C1993.31+1070.59+1995.38+1073.85+1997.64+1076.98C2002.49+1082.4+2010.81+1084.17+2018.34+1083.84C2025.88+1083.5+2033.15+1081.44+2040.66+1080.84C2041.7+1080.84+2042.77+1080.67+2043.81+1080.65C2040.63+1093.5+2028.81+1102.78+2014.87+1103.4Z" opacity="0.1" fill="#1ee2de"/>
<path d="M1939.08+1151.06C1928.22+1151.56+1917.88+1146.69+1911.76+1138.2C1905.65+1129.71+1904.65+1118.83+1909.12+1109.47C1911.68+1111.08+1913.92+1113.11+1915.72+1115.46C1918.25+1118.7+1919.65+1122.44+1922.49+1125.41C1927.77+1130.97+1936.62+1132.91+1944.61+1132.74C1952.6+1132.58+1959.83+1130.78+1967.44+1130.23C1963.58+1142.13+1952.23+1150.46+1939.08+1151.06Z" opacity="0.1" fill="#1ee2de"/>
<path d="M1954.5+1208.38C1946.77+1222.04+1929.2+1227.74+1914.23+1221.44C1899.26+1215.13+1891.98+1198.97+1897.56+1184.41C1900.13+1186+1902.44+1187.94+1904.4+1190.18C1907.4+1193.61+1909.35+1197.38+1912.77+1200.68C1919.17+1206.61+1929.46+1209.03+1938.65+1209.27C1943.94+1209.26+1949.24+1208.97+1954.5+1208.38Z" opacity="0.1" fill="url(#LinearGradient_26)"/>
<path stroke="#f3f3f3" stroke-width="4" d="M2065.89+1629.35C2072.51+1617.77+2065+1603.56+2056.35+1593.22C2047.71+1582.89+2037.2+1572.15+2037.43+1558.97C2037.74+1540.05+2058.99+1528.88+2075.99+1518.84C2088.58+1511.37+2100.2+1502.52+2110.58+1492.46C2114.95+1488.61+2118.55+1484.06+2121.24+1479.02C2124.74+1471.61+2124.64+1463.19+2124.43+1455.04C2123.71+1428.03+2122.29+1401.05+2120.2+1374.11" fill="none" stroke-linecap="butt" opacity="1" stroke-linejoin="miter"/>
<path d="M2152.46+1372.67C2151.97+1362.63+2146.1+1353.52+2136.89+1348.51L2129.89+1361.57L2130.09+1345.75C2126.8+1344.82+2123.37+1344.43+2119.94+1344.57C2102.72+1345.33+2089.4+1359.15+2090.21+1375.43C2091.01+1391.71+2105.63+1404.29+2122.86+1403.53C2140.08+1402.77+2153.39+1388.95+2152.59+1372.67L2152.46+1372.67Z" opacity="1" fill="url(#LinearGradient_27)"/>
<path d="M2095.11+1570.74C2088.36+1583.15+2073.34+1589.4+2059.1+1585.71C2044.86+1582.03+2035.3+1569.43+2036.17+1555.5C2037.05+1541.57+2048.13+1530.13+2062.73+1528.06C2077.33+1526+2091.46+1533.89+2096.61+1546.96L2077.1+1561.97L2098.56+1557.18C2098.58+1561.89+2097.4+1566.55+2095.11+1570.74Z" opacity="1" fill="url(#LinearGradient_28)"/>
<path d="M2084.83+1504.39C2068.96+1505.12+2055.04+1494.46+2052.5+1479.63C2049.97+1464.81+2059.61+1450.55+2074.91+1446.5L2074.76+1458.65L2081.83+1445.44L2081.83+1445.44C2099.06+1444.7+2113.67+1457.28+2114.48+1473.56C2114.87+1481.38+2111.96+1489.03+2106.38+1494.82C2100.81+1500.6+2093.02+1504.06+2084.75+1504.42L2084.83+1504.39Z" opacity="1" fill="url(#LinearGradient_29)"/>
<path d="M2157.15+1467.46C2143.88+1468.1+2131.63+1460.72+2126.63+1449.08C2121.63+1437.44+2124.98+1424.09+2134.98+1415.8C2144.97+1407.52+2159.42+1406.12+2170.98+1412.32L2165.45+1426.71L2176.81+1416.4C2182.93+1421.64+2186.58+1428.98+2186.96+1436.77C2187.11+1439.51+2186.84+1442.24+2186.17+1444.9C2182.9+1457.7+2171.07+1466.9+2157.15+1467.46Z" opacity="1" fill="url(#LinearGradient_30)"/>
<path d="M2148.28+1380.53C2141.07+1381.3+2134.05+1383.41+2126.82+1383.84C2119.59+1384.27+2111.6+1382.62+2107.06+1377.3C2104.94+1374.21+2103.01+1371.01+2101.3+1367.71C2099.32+1364.8+2096.62+1362.4+2093.44+1360.71C2087.91+1370.92+2089.15+1383.24+2096.61+1392.29C2104.07+1401.33+2116.41+1405.47+2128.24+1402.9C2140.07+1400.33+2149.25+1391.51+2151.78+1380.29C2150.61+1380.34+2149.44+1380.41+2148.28+1380.53Z" opacity="0.1" fill="#1ee2de"/>
<path d="M2157.15+1467.46C2146.21+1467.94+2135.8+1462.96+2129.72+1454.34C2123.64+1445.73+2122.78+1434.73+2127.45+1425.36C2129.93+1426.93+2132.07+1428.95+2133.74+1431.28C2135.6+1434.65+2137.66+1437.91+2139.93+1441.04C2144.77+1446.46+2153.09+1448.23+2160.63+1447.9C2168.16+1447.56+2175.44+1445.5+2182.95+1444.9C2183.99+1444.9+2185.05+1444.73+2186.09+1444.71C2182.91+1457.55+2171.1+1466.84+2157.15+1467.46Z" opacity="0.1" fill="#1ee2de"/>
<path d="M2081.36+1515.12C2070.51+1515.62+2060.16+1510.75+2054.05+1502.26C2047.93+1493.77+2046.93+1482.88+2051.41+1473.53C2053.97+1475.14+2056.2+1477.17+2058+1479.52C2060.54+1482.76+2061.93+1486.5+2064.78+1489.47C2070.05+1495.03+2078.9+1496.97+2086.89+1496.8C2094.88+1496.64+2102.11+1494.84+2109.72+1494.29C2105.86+1506.19+2094.52+1514.52+2081.36+1515.12Z" opacity="0.1" fill="#000000"/>
<path d="M2096.79+1572.44C2089.06+1586.1+2071.48+1591.8+2056.51+1585.5C2041.54+1579.19+2034.27+1563.03+2039.84+1548.47C2042.42+1550.06+2044.73+1552+2046.69+1554.24C2049.68+1557.67+2051.76+1561.44+2055.06+1564.74C2061.45+1570.67+2071.75+1573.09+2080.93+1573.33C2086.23+1573.32+2091.52+1573.02+2096.79+1572.44Z" opacity="0.1" fill="#1ee2de"/>
<path d="M1014.57+1291.45C1014.64+1283.99+1010.96+1276.95+1004.65+1272.46C1004.57+1259.04+994.282+1247.62+980.276+1245.42C978.143+1235.8+970.748+1227.99+960.872+1224.92L960.872+1224.92C959.694+1224.57+958.49+1224.31+957.271+1224.13L956.916+1224.13L956.281+1224.13L955.774+1224.13L955.216+1224.13L954.531+1224.13L952.984+1224.13C939.068+1224.43+927.411+1234.18+925.388+1247.19C916.485+1245.25+908.343+1247.77+906.846+1253.09C906.471+1254.5+906.56+1255.99+907.1+1257.36C908.622+1261.48+913.568+1265.44+920.188+1267.38L921.05+1267.62L922.344+1267.93L922.623+1267.93L922.623+1267.93C921.209+1270.77+920.481+1273.87+920.492+1277.02C920.45+1284.87+925.062+1292.09+932.439+1295.71L931.856+1296.05C931.031+1296.76+930.374+1297.63+929.928+1298.59C928.327+1301.27+927.075+1304.12+926.199+1307.08C925.565+1309.62+925.464+1312.26+924.677+1314.77C923.206+1319.4+919.452+1323.31+919.021+1328.13C918.818+1330.28+919.199+1332.92+917.575+1334.31C917.176+1334.64+916.742+1334.93+916.282+1335.17C915.157+1335.93+914.201+1336.88+913.466+1337.98C912.98+1338.98+912.31+1339.89+911.488+1340.66C910.017+1341.69+907.607+1341.6+906.897+1343.21C906.187+1344.81+908.038+1346.71+907.607+1348.46C907.176+1350.21+905.603+1350.54+904.462+1351.52C903.134+1352.87+902.199+1354.53+901.748+1356.32C896.889+1357.19+891.869+1355.98+888.051+1353.01C888.698+1354.56+889.174+1356.16+889.472+1357.8C887.264+1356.21+884.761+1355.03+882.09+1354.3C879.086+1353.01+876.406+1351.13+874.227+1348.79L878.438+1348.24L859.846+1321.41L854.342+1320.33L859.262+1329.28C858.429+1329.64+857.814+1330.33+857.588+1331.17C857.326+1332.17+857.266+1333.2+857.411+1334.22C857.663+1336.64+858.087+1339.04+858.679+1341.41L860.099+1347.69C860.226+1348.26+860.378+1348.86+860.556+1349.44C858.701+1349.35+856.843+1349.55+855.052+1350.01C851.365+1348.72+847.523+1347.86+843.613+1347.45C842.776+1347.29+841.913+1347.29+841.076+1347.45C840.129+1347.87+839.302+1348.51+838.667+1349.29C835.464+1352.81+832.619+1356.59+830.169+1360.61C820.024+1377.06+806.809+1391.42+794.304+1406.28C785.68+1409.59+776.98+1412.73+768.28+1415.87L749.561+1422.63C745.911+1424.19+741.952+1425.01+737.944+1425.03C736.169+1425.03+733.962+1424.67+732.871+1426.1C732.382+1426.85+731.998+1427.66+731.73+1428.5L729.802+1428.69L729.802+1428.69C728.915+1425.81+727.384+1423.15+725.313+1420.88C724.386+1421.03+723.597+1421.6+723.208+1422.41C722.751+1423.2+722.472+1424.07+721.939+1424.81C720.95+1426.2+719.2+1426.87+717.957+1428.05C716.714+1429.22+715.928+1431.04+714.558+1432.24C712.691+1433.55+710.497+1434.37+708.192+1434.64C704.716+1435.41+701.364+1436.61+698.224+1438.21C697.074+1438.89+695.838+1439.43+694.546+1439.82C693.117+1440.08+691.653+1440.13+690.208+1439.96L680.316+1439.27C679.428+1439.16+678.527+1439.2+677.653+1439.39C675.615+1440.17+674.345+1442.11+674.508+1444.18C674.766+1446.23+675.902+1448.1+677.653+1449.33C679.364+1450.53+681.265+1451.46+683.284+1452.09C691.844+1455.24+700.668+1457.71+709.663+1459.48L709.663+1461.37C715.956+1464.37+722.907+1465.93+729.954+1465.92C730.477+1465.96+731+1465.87+731.476+1465.66C732.124+1465.2+732.575+1464.54+732.745+1463.79C734.848+1457.84+736.177+1451.68+736.701+1445.43L736.701+1445.43C737.939+1445.35+739.152+1445.06+740.278+1444.56C743.677+1443.68+747.075+1445.88+750.601+1446.24C754.938+1446.7+758.946+1444.3+763.055+1442.84L764.831+1442.29C763.661+1443.71+762.276+1444.96+760.722+1446C759.022+1447.15+757.12+1448.02+755.471+1449.21C754.075+1450.41+752.583+1451.5+751.007+1452.48C749.896+1452.96+748.752+1453.38+747.583+1453.72C745.854+1454.33+744.21+1455.13+742.687+1456.12C741.338+1456.88+740.2+1457.93+739.365+1459.19C738.518+1460.49+738.414+1462.11+739.086+1463.5C739.795+1464.63+740.988+1465.42+742.358+1465.66C743.694+1465.85+745.054+1465.85+746.391+1465.66C751.768+1465.28+757.12+1464.82+762.472+1464.37C764.734+1464.23+766.982+1463.93+769.193+1463.45C770.36+1463.19+771.527+1462.83+772.694+1462.52C774.696+1462.04+776.744+1461.75+778.806+1461.66C779.404+1461.61+780.005+1461.67+780.582+1461.82C781.825+1462.21+782.713+1463.41+783.981+1463.65C784.841+1463.75+785.714+1463.64+786.517+1463.33C790.427+1462.54+794.414+1462.14+798.413+1462.14C800.163+1462.14+802.218+1461.73+803.029+1460.19C803.841+1458.66+802.37+1456.19+801.711+1454.15C801.372+1452.85+801.185+1451.52+801.153+1450.17C800.846+1446.87+799.846+1443.66+798.21+1440.73C797.328+1439.36+796.589+1437.92+796.004+1436.41C803.674+1433.66+811.013+1430.14+817.893+1425.91C821.662+1423.33+825.888+1421.41+830.372+1420.23C835.668+1419.63+841.039+1420.23+846.048+1421.96C858.243+1425.3+870.24+1429.25+881.989+1433.8C887.595+1435.98+893.175+1438.28+898.958+1439.94C900.645+1442.08+902.683+1443.95+904.995+1445.47C908.989+1447.6+913.475+1448.76+918.057+1448.86C924.17+1449.38+930.309+1449.6+936.446+1449.5C941.145+1449.7+945.829+1448.88+950.143+1447.11C951.173+1446.62+952.135+1446.01+953.009+1445.31C956.363+1445.58+959.67+1444.43+962.039+1442.17C965.365+1439.47+967.759+1435.9+968.913+1431.91C970.409+1426.44+969.268+1419.92+972.819+1415.56C973.758+1414.36+975+1413.4+975.939+1412.2C977.075+1410.56+977.643+1408.62+977.562+1406.66C977.604+1406.59+977.655+1406.51+977.714+1406.45C978.493+1404.69+979.006+1402.83+979.236+1400.93C979.672+1399.44+980.223+1397.98+980.885+1396.57C982.688+1392.34+984.263+1388.03+985.603+1383.65C986.518+1380.74+987.247+1377.77+987.784+1374.78C988.165+1372.38+988.393+1369.98+988.596+1367.59C988.864+1363.81+989.64+1360.08+990.904+1356.49C994.079+1347.93+995.875+1338.98+996.23+1329.92L996.23+1329.4C1005.92+1328.35+1013.15+1320.49+1012.92+1311.27C1012.92+1308.6+1012.33+1305.97+1011.17+1303.53C1013.41+1299.86+1014.59+1295.69+1014.57+1291.45ZM923.815+1395.66C924.094+1396.59+924.424+1397.5+924.753+1398.42C923.257+1397.05+921.811+1395.63+920.315+1394.24C920.898+1394.44+921.507+1394.6+922.065+1394.82C922.651+1395.05+923.212+1395.33+923.739+1395.66L923.815+1395.66ZM916.637+1391.06C907.861+1383.86+897.715+1378.28+888.736+1371.3C893.631+1373.58+898.4+1376.24+903.118+1378.78C908.715+1381.8+914.388+1384.7+920.137+1387.48C919.193+1388.88+917.98+1390.09+916.561+1391.06L916.637+1391.06ZM920.365+1372.93L920.797+1372.52C920.797+1373.56+920.797+1374.49+920.797+1375.38L918.438+1374.61C919.091+1374.09+919.709+1373.53+920.289+1372.93L920.365+1372.93ZM843.181+1392.35C846.781+1388.5+849.912+1384.28+852.515+1379.76C855.99+1385.49+861.647+1389.64+866.441+1394.46C858.704+1393.52+850.943+1392.73+843.181+1392.35Z" opacity="1" fill="url(#LinearGradient_31)"/>
<path d="M855.661+1322.54L861.19+1323.6L880.036+1349.94L871.742+1351L855.661+1322.54Z" opacity="1" fill="#2f2e41"/>
<path d="M721.584+1429.41C723.084+1434.06+724.932+1438.6+727.114+1443.01C733.358+1441.76+739.503+1440.1+745.503+1438.04C744.32+1436.38+743.041+1434.78+741.673+1433.25C740.184+1431.72+738.425+1430.44+736.473+1429.48C734.394+1429.04+732.236+1429.04+730.157+1429.48C727.317+1429.41+724.45+1429.46+721.584+1429.41Z" opacity="1" fill="#fbbebe"/>
<path d="M736.498+1436.44C733.464+1435.15+731.168+1432.69+730.208+1429.68C729.242+1426.69+727.607+1423.93+725.414+1421.6C724.475+1421.72+723.67+1422.29+723.284+1423.11C722.827+1423.88+722.548+1424.74+722.041+1425.51C721.026+1426.87+719.251+1427.54+717.982+1428.69C716.714+1429.84+715.953+1431.64+714.584+1432.82C712.701+1434.13+710.489+1434.95+708.166+1435.21C704.637+1435.97+701.226+1437.15+698.021+1438.74C696.847+1439.4+695.596+1439.93+694.292+1440.32C692.846+1440.52+691.376+1440.52+689.929+1440.32L679.936+1439.65C679.096+1439.52+678.239+1439.52+677.399+1439.65C675.3+1440.37+673.991+1442.35+674.229+1444.44C674.468+1446.49+675.622+1448.34+677.399+1449.53C679.135+1450.7+681.051+1451.63+683.081+1452.26C691.782+1455.36+700.741+1457.76+709.866+1459.45L709.866+1461.32C716.221+1464.27+723.205+1465.8+730.284+1465.8C730.804+1465.83+731.324+1465.75+731.806+1465.56C732.454+1465.11+732.904+1464.44+733.074+1463.69C735.479+1457.07+736.887+1450.17+737.259+1443.17C737.422+1441.4+737.277+1439.61+736.828+1437.88C736.27+1436.17+738.147+1436.89+736.422+1436.22" opacity="1" fill="#d2d1d4"/>
<path d="M928.152+1400.84C898.527+1402.51+869.256+1394.32+839.58+1393.45C835.896+1393.22+832.197+1393.44+828.571+1394.1C824.797+1395.07+821.141+1396.41+817.665+1398.1C801.761+1405.1+785.3+1410.91+768.864+1416.68L749.967+1423.32C746.292+1424.89+742.307+1425.71+738.274+1425.72C736.473+1425.72+734.266+1425.36+733.201+1426.78C730.132+1431.09+731.578+1437.4+733.607+1442.24C734.266+1443.8+735.382+1445.5+737.158+1445.67C738.404+1445.59+739.624+1445.29+740.76+1444.8C744.184+1443.94+747.608+1446.12+751.159+1446.48C755.522+1446.91+759.58+1444.56+763.715+1443.13C770.563+1440.73+778.02+1440.73+785.224+1439.67C797.272+1437.78+808.457+1432.48+818.908+1426.46C822.707+1423.9+826.959+1422.01+831.463+1420.85C836.799+1420.26+842.208+1420.84+847.265+1422.56C859.556+1425.83+871.654+1429.72+883.511+1434.21C889.675+1436.74+895.993+1438.93+902.433+1440.75C916.489+1444.23+931.35+1443.39+944.867+1438.35C949.611+1436.58+954.76+1433.56+955.013+1428.62C955.191+1425.86+952.908+1423.44+951.412+1421.07C950.448+1419.56+949.458+1418.05+948.419+1416.59C943.346+1409.64+937.157+1400.33+928.152+1400.84Z" opacity="1" fill="#07aaa7"/>
<path d="M778.477+1430.71C783.11+1432.19+787.785+1433.57+792.503+1434.83C795.04+1430.73+800.113+1427.88+801.203+1423.18C801.267+1422.98+801.267+1422.76+801.203+1422.56C801.078+1422.36+800.893+1422.2+800.671+1422.1C797.279+1420.34+793.523+1419.3+789.662+1419.06C786.619+1418.89+785.224+1421.89+783.854+1423.99C783.321+1424.93+779.72+1431.16+778.477+1430.71Z" opacity="1" fill="#fbbebe"/>
<path d="M784.97+1427.78C782.167+1427.33+779.692+1425.79+778.147+1423.54C777.513+1422.46+776.803+1421+775.484+1421.14C774.165+1421.29+773.734+1422.58+773.455+1423.71C772.577+1427.96+771.295+1432.12+769.625+1436.15C767.951+1440.2+765.113+1443.73+761.432+1446.34C759.707+1447.46+757.805+1448.3+756.105+1449.5C754.698+1450.68+753.197+1451.75+751.616+1452.71C750.496+1453.19+749.344+1453.59+748.166+1453.91C746.433+1454.53+744.782+1455.33+743.245+1456.31C741.877+1457.05+740.72+1458.1+739.872+1459.36C739.02+1460.63+738.924+1462.24+739.618+1463.6C740.336+1464.71+741.529+1465.48+742.89+1465.71C744.244+1465.9+745.62+1465.9+746.974+1465.71C752.377+1465.35+757.779+1464.89+763.182+1464.44C765.459+1464.3+767.723+1464+769.954+1463.55L773.48+1462.64C775.494+1462.14+777.561+1461.85+779.643+1461.78C780.25+1461.72+780.861+1461.78+781.444+1461.94C782.687+1462.33+783.575+1463.5+784.869+1463.74C785.728+1463.82+786.595+1463.71+787.405+1463.43C791.348+1462.63+795.37+1462.24+799.402+1462.26C801.178+1462.26+803.258+1461.82+804.069+1460.34C805.084+1458.47+803.41+1456.38+802.725+1454.37C802.398+1453.09+802.211+1451.78+802.167+1450.46C801.864+1447.2+800.854+1444.03+799.199+1441.16C797.83+1438.76+795.953+1436.13+796.917+1433.58C797.396+1432.78+797.706+1431.89+797.83+1430.97C797.449+1426.85+787.456+1428.31+784.97+1427.78Z" opacity="1" fill="#e7e7e7"/>
<path d="M883.739+1355.91C878.482+1353.73+874.269+1349.79+871.919+1344.84C871.437+1343.78+871.032+1342.65+870.55+1341.6C869.002+1338.03+866.587+1334.85+863.498+1332.32C862.84+1331.66+861.922+1331.29+860.962+1331.29C860.002+1331.56+859.274+1332.31+859.06+1333.23C858.776+1334.21+858.707+1335.23+858.857+1336.23C859.115+1338.59+859.538+1340.93+860.125+1343.23L861.571+1349.41C861.762+1350.36+862.06+1351.28+862.458+1352.17C863.077+1353.21+863.894+1354.13+864.868+1354.88C866.187+1356.03+867.531+1357.13+868.876+1358.24C869.653+1358.88+870.504+1359.43+871.412+1359.89C872.829+1360.53+874.344+1360.95+875.902+1361.14C881.954+1361.88+887.729+1363.99+892.744+1367.27C892.744+1367.27+892.744+1363.13+892.744+1362.67C892.679+1361.47+892.238+1360.31+891.475+1359.34C889.152+1357.74+886.526+1356.58+883.739+1355.91Z" opacity="1" fill="#fbbebe"/>
<path d="M883.739+1355.91C878.482+1353.73+874.269+1349.79+871.919+1344.84C871.437+1343.78+871.032+1342.65+870.55+1341.6C869.002+1338.03+866.587+1334.85+863.498+1332.32C862.84+1331.66+861.922+1331.29+860.962+1331.29C860.002+1331.56+859.274+1332.31+859.06+1333.23C858.776+1334.21+858.707+1335.23+858.857+1336.23C859.115+1338.59+859.538+1340.93+860.125+1343.23L861.571+1349.41C861.762+1350.36+862.06+1351.28+862.458+1352.17C863.077+1353.21+863.894+1354.13+864.868+1354.88C866.187+1356.03+867.531+1357.13+868.876+1358.24C869.653+1358.88+870.504+1359.43+871.412+1359.89C872.829+1360.53+874.344+1360.95+875.902+1361.14C881.954+1361.88+887.729+1363.99+892.744+1367.27C892.744+1367.27+892.744+1363.13+892.744+1362.67C892.679+1361.47+892.238+1360.31+891.475+1359.34C889.152+1357.74+886.526+1356.58+883.739+1355.91Z" opacity="0.1" fill="#000000"/>
<path d="M936.852+1301.73C936.852+1297.95+940.077+1294.88+944.056+1294.88C948.034+1294.88+951.259+1297.95+951.259+1301.73C951.259+1305.52+948.034+1308.59+944.056+1308.59C940.077+1308.59+936.852+1305.52+936.852+1301.73Z" opacity="1" fill="#2f2e41"/>
<path d="M939.592+1297.61C937.664+1297.17+935.631+1297.45+933.91+1298.38C933.078+1299.07+932.413+1299.93+931.957+1300.89C930.344+1303.52+929.083+1306.32+928.203+1309.24C927.569+1311.63+927.467+1314.34+926.656+1316.81C925.185+1321.37+921.405+1325.23+920.974+1329.97C920.771+1332.11+921.152+1334.6+919.503+1336.04C919.099+1336.37+918.667+1336.66+918.209+1336.92C917.068+1337.64+916.099+1338.58+915.369+1339.68C914.872+1340.66+914.193+1341.54+913.365+1342.29C911.894+1343.33+909.459+1343.23+908.749+1344.69C908.038+1346.15+909.89+1348.14+909.459+1349.87C909.028+1351.6+907.43+1351.93+906.288+1352.89C904.944+1354.23+903.998+1355.89+903.549+1357.69C898.67+1358.57+893.624+1357.39+889.751+1354.45C891.424+1359.25+892.155+1364.31+891.907+1369.36C892.161+1370.99+891.704+1372.65+890.638+1373.96C896.36+1374.37+902.027+1375.3+907.556+1376.74C909.952+1377.5+912.542+1377.5+914.937+1376.74C916.22+1376.09+917.371+1375.23+918.336+1374.2C921.38+1371.28+924.576+1368.09+925.311+1364.04C925.494+1361.75+925.536+1359.45+925.438+1357.16C925.728+1354.31+926.348+1351.51+927.29+1348.79C928.896+1343.15+929.973+1337.39+930.511+1331.58C930.841+1327.98+934.138+1325.11+935.863+1321.99C939.11+1315.92+942.458+1309.62+942.686+1302.81C942.788+1300.6+941.976+1297.85+939.592+1297.61Z" opacity="1" fill="#c7c7c7"/>
<path d="M939.309+1297.26C937.38+1296.82+935.348+1297.1+933.627+1298.03C932.795+1298.72+932.13+1299.58+931.674+1300.54C930.061+1303.17+928.8+1305.97+927.92+1308.89C927.286+1311.28+927.184+1313.99+926.373+1316.46C924.902+1321.02+921.122+1324.88+920.691+1329.62C920.488+1331.76+920.869+1334.25+919.22+1335.69C918.816+1336.02+918.384+1336.31+917.926+1336.57C916.784+1337.29+915.816+1338.23+915.085+1339.33C914.589+1340.31+913.91+1341.19+913.082+1341.94C911.611+1342.97+909.176+1342.88+908.465+1344.34C907.755+1345.8+909.607+1347.79+909.176+1349.52C908.744+1351.25+907.146+1351.58+906.005+1352.54C904.66+1353.88+903.715+1355.54+903.266+1357.33C898.387+1358.22+893.341+1357.04+889.467+1354.1C891.141+1358.9+891.872+1363.96+891.623+1369.01C891.878+1370.64+891.421+1372.3+890.355+1373.61C896.077+1374.02+901.743+1374.95+907.273+1376.39C909.669+1377.15+912.259+1377.15+914.654+1376.39C915.937+1375.74+917.088+1374.88+918.053+1373.85C921.097+1370.93+924.293+1367.74+925.028+1363.69C925.211+1361.4+925.253+1359.1+925.155+1356.81C925.444+1353.96+926.065+1351.16+927.007+1348.44C928.612+1342.8+929.69+1337.04+930.228+1331.23C930.558+1327.63+933.855+1324.76+935.58+1321.64C938.827+1315.57+942.175+1309.27+942.403+1302.46C942.504+1300.25+941.693+1297.5+939.309+1297.26Z" opacity="0.1" fill="#f1f1f1"/>
<path d="M932.845+1406.73C926.681+1403.95+922.166+1398.8+917.169+1394.36C907.658+1385.9+896.016+1379.98+885.997+1372C879.351+1366.75+873.314+1360.63+866.136+1356.22C859.706+1352.37+852.425+1349.97+844.855+1349.2C844.021+1349.02+843.154+1349.02+842.319+1349.2C841.36+1349.58+840.528+1350.2+839.909+1351C836.675+1354.45+833.795+1358.18+831.311+1362.14C818.629+1382.52+800.594+1399.64+785.655+1418.58C785.312+1418.97+785.061+1419.43+784.919+1419.92C784.856+1420.65+785.052+1421.39+785.477+1422.01L788.521+1427.61C790.22+1430.78+792.96+1434.45+796.612+1433.82C798.257+1433.37+799.728+1432.48+800.848+1431.26L814.494+1418.91L828.8+1405.99C837.17+1398.44+845.692+1390.7+851.171+1381.01C855.432+1388.01+863.016+1392.59+868.191+1398.99C870.169+1401.39+871.792+1404.1+873.568+1406.69C876.383+1410.81+879.605+1414.69+882.801+1418.67L899.211+1438.45C901.291+1441.24+903.865+1443.68+906.821+1445.64C910.867+1447.72+915.379+1448.87+919.985+1448.98C926.149+1449.49+932.339+1449.7+938.526+1449.6C943.265+1449.78+947.987+1448.96+952.35+1447.2C956.788+1445.36+959.703+1441.26+959.833+1436.68C959.58+1434.35+958.773+1432.12+957.474+1430.13C951.538+1420.14+943.878+1411.7+932.845+1406.73Z" opacity="1" fill="#13cfcc"/>
<path d="M942.94+1306.48C942.94+1303.57+945.427+1301.2+948.495+1301.2C951.562+1301.2+954.049+1303.57+954.049+1306.48C954.049+1309.39+951.562+1311.75+948.495+1311.75C945.427+1311.75+942.94+1309.39+942.94+1306.48Z" opacity="1" fill="#e8e8f0"/>
<path d="M947.277+1302.52C948.516+1304.88+948.735+1307.59+947.886+1310.1C947.01+1312.56+945.808+1314.9+944.309+1317.07C943.021+1319.31+941.463+1321.41+939.668+1323.31C948.241+1323.69+956.535+1320.53+964.068+1316.69C970.156+1313.6+976.218+1309.79+979.465+1304.01C977.505+1304.45+975.44+1304.08+973.783+1303C972.148+1301.94+970.686+1300.65+969.446+1299.19L965.159+1294.64C964.187+1293.63+963.336+1292.53+962.623+1291.35C961.681+1289.74+961.282+1287.89+961.481+1286.05C959.772+1287.74+957.866+1289.23+955.8+1290.51C952.73+1292.41+949.357+1293.77+946.263+1295.64C945.197+1296.31+942.762+1297.37+943.396+1298.71C944.03+1300.05+946.415+1301.08+947.277+1302.52Z" opacity="1" fill="#fbbebe"/>
<path d="M947.277+1302.52C948.516+1304.88+948.735+1307.59+947.886+1310.1C947.01+1312.56+945.808+1314.9+944.309+1317.07C943.021+1319.31+941.463+1321.41+939.668+1323.31C948.241+1323.69+956.535+1320.53+964.068+1316.69C970.156+1313.6+976.218+1309.79+979.465+1304.01C977.505+1304.45+975.44+1304.08+973.783+1303C972.148+1301.94+970.686+1300.65+969.446+1299.19L965.159+1294.64C964.187+1293.63+963.336+1292.53+962.623+1291.35C961.681+1289.74+961.282+1287.89+961.481+1286.05C959.772+1287.74+957.866+1289.23+955.8+1290.51C952.73+1292.41+949.357+1293.77+946.263+1295.64C945.197+1296.31+942.762+1297.37+943.396+1298.71C944.03+1300.05+946.415+1301.08+947.277+1302.52Z" opacity="0.1" fill="#000000"/>
<path d="M947.379+1303.31C945.599+1305.68+945.599+1308.86+947.379+1311.22C947.632+1311.51+948.545+1313.31+948.926+1313.33C949.303+1313.3+949.65+1313.13+949.89+1312.86C951.84+1310.93+953.653+1308.89+955.318+1306.74C957.016+1304.6+959.459+1303.09+962.217+1302.47C965.634+1302.35+968.992+1303.34+971.728+1305.28C973.001+1305.83+974.121+1306.65+975+1307.68C975.613+1308.73+975.976+1309.9+976.066+1311.11C976.895+1318.34+977.217+1325.62+977.03+1332.9C977.175+1338.15+976.81+1343.41+975.939+1348.6C975.381+1351.26+974.569+1353.87+974.189+1356.58C973.891+1358.97+973.772+1361.37+973.834+1363.77L973.834+1373.8C973.766+1375.63+973.902+1377.47+974.24+1379.28C974.747+1381.47+975.837+1383.5+976.573+1385.64C977.332+1388.09+977.85+1390.6+978.12+1393.14L979.566+1403.5C980.023+1406.76+980.378+1410.33+978.272+1413.09C977.334+1414.26+976.091+1415.22+975.127+1416.4C971.551+1420.81+972.591+1427.11+971.196+1432.51C970.021+1436.45+967.596+1439.97+964.246+1442.57C961.828+1444.83+958.475+1445.97+955.089+1445.67C950.625+1444.88+947.962+1440.49+946.744+1436.34C945.527+1432.19+945.096+1427.69+942.458+1424.19C940.037+1421.54+937.175+1419.28+933.986+1417.5C930.759+1415.69+928.389+1412.78+927.366+1409.37C927.087+1407.86+927.366+1406.3+927.087+1404.77C926.601+1400.84+923.89+1397.46+920.01+1395.97C917.728+1395.13+914.937+1394.82+913.618+1392.85C916.884+1390.92+919.264+1387.9+920.289+1384.39C921.299+1380.9+921.844+1377.31+921.913+1373.7L922.674+1361.71C923.029+1356.32+923.181+1351+925.692+1346.15C926.808+1344+928.228+1341.96+929.37+1339.83C930.917+1336.83+932.231+1333.73+933.301+1330.55C935.128+1325.61+936.954+1320.67+938.577+1315.68C939.21+1313.26+940.183+1310.93+941.469+1308.76C942.838+1306.5+944.817+1303.79+947.379+1303.31Z" opacity="1" fill="#000000"/>
<path d="M919.097+1381.56L922.471+1381.56L923.181+1376.77C923.273+1375.81+923.512+1374.86+923.891+1373.96C924.448+1373.01+925.102+1372.11+925.844+1371.28C929.141+1366.84+928.913+1360.97+929.725+1355.58C931.196+1348.45+933.687+1341.54+937.131+1335.05L943.675+1321.27C944.271+1320.14+944.747+1318.96+945.096+1317.75C945.37+1316.4+945.506+1315.04+945.502+1313.67C945.502+1311.54+946.212+1303.77+946.288+1301.68C946.288+1300.89+944.436+1301.32+944.056+1300.63C943.244+1299.09+942.128+1303.24+940.581+1304.15C939.127+1305.2+938.069+1306.66+937.562+1308.32C936.142+1311.78+935.28+1315.52+933.961+1318.94C932.814+1322.52+930.708+1325.76+927.848+1328.34C926.504+1329.44+924.956+1330.33+923.688+1331.53C919.63+1335.32+919.224+1341.34+919.097+1346.75C918.996+1350.06+918.336+1381.56+919.097+1381.56Z" opacity="1" fill="#c7c7c7"/>
<path d="M967.645+1297.58C964.467+1299.15+962.244+1302.04+961.633+1305.38C961.054+1308.68+960.031+1311.9+958.59+1314.96C954.481+1321.73+944.005+1323.69+941.088+1331C940.355+1333.46+939.963+1336+939.921+1338.55C939.414+1343.8+937.588+1348.86+937.03+1354.09C936.751+1358.16+936.853+1362.24+937.334+1366.29L941.012+1407.57C941.716+1413.65+941.348+1419.79+939.921+1425.74C943.691+1426.25+947.535+1425.65+950.93+1424.02C954.354+1422.53+957.499+1420.49+960.822+1418.77C966.503+1415.8+972.794+1413.71+977.791+1409.75C978.686+1409.08+979.458+1408.27+980.073+1407.36C980.838+1405.62+981.35+1403.8+981.595+1401.94C982.027+1400.48+982.578+1399.05+983.244+1397.67C985.074+1393.51+986.666+1389.25+988.012+1384.92C988.928+1382.05+989.656+1379.14+990.194+1376.19C990.6+1373.8+990.828+1371.4+991.031+1369C991.296+1365.28+992.08+1361.62+993.364+1358.09C996.547+1349.67+998.352+1340.85+998.716+1331.91C998.815+1330.63+998.721+1329.34+998.437+1328.08C997.88+1326.54+997.131+1325.06+996.205+1323.69C994.683+1320.98+993.669+1318.01+992.35+1315.25C988.753+1309.18+983.598+1304.06+977.359+1300.37C974.417+1298.47+970.967+1296.46+967.645+1297.58Z" opacity="1" fill="#c7c7c7"/>
<path d="M891.019+1364.95C888.415+1363.66+886.058+1361.96+884.044+1359.94C883.13+1358.93+882.369+1357.8+881.507+1356.8C879.155+1354.41+876.098+1352.74+872.731+1352C869.4+1351.31+865.994+1351+862.585+1351.07C860.297+1350.92+858+1351.18+855.813+1351.84C853.597+1352.54+851.907+1354.25+851.323+1356.39C851.136+1359.04+852.436+1361.59+854.748+1363.1C856.728+1364.64+859.067+1365.71+861.571+1366.22C863.61+1366.56+865.667+1366.79+867.734+1366.91C879.858+1368.11+890.689+1374.35+901.317+1380.03C910.651+1385.05+920.171+1389.71+929.877+1394.03C930.253+1391.29+930.414+1388.52+930.359+1385.76C930.359+1383.7+930.181+1380.53+928.127+1379.31C925.205+1378.15+922.161+1377.29+919.046+1376.74C912.787+1374.81+906.677+1372.47+900.759+1369.74C897.411+1368.38+894.189+1366.7+891.019+1364.95Z" opacity="1" fill="#fbbebe"/>
<path d="M922.445+1279.63C922.445+1268.28+932.121+1259.08+944.056+1259.08C955.991+1259.08+965.666+1268.28+965.666+1279.63C965.666+1290.98+955.991+1300.17+944.056+1300.17C932.121+1300.17+922.445+1290.98+922.445+1279.63Z" opacity="1" fill="#fbbebe"/>
<path d="M973.808+1320.86C972.083+1323.15+970.676+1325.64+969.623+1328.27C967.087+1333.45+962.775+1337.86+960.67+1343.35C958.564+1348.84+958.539+1355.89+954.202+1360.37C953.333+1361.06+952.676+1361.95+952.299+1362.96C952.282+1363.59+952.214+1364.21+952.096+1364.83C951.462+1366.46+948.647+1366.53+948.114+1368.21C947.962+1368.69+948.114+1369.22+947.86+1369.7C947.429+1370.77+945.907+1370.94+944.918+1371.59C942.813+1372.93+943.244+1376.05+941.748+1377.99C940.418+1379.46+938.357+1380.15+936.345+1379.79C934.377+1379.41+932.485+1378.74+930.739+1377.8C930.112+1377.47+929.422+1377.27+928.71+1377.2C927.868+1377.23+927.055+1377.49+926.377+1377.97C922.491+1380.67+920.3+1385.04+920.543+1389.59C920.834+1394.09+921.968+1398.49+923.891+1402.61C924.105+1403.32+924.477+1403.99+924.982+1404.55C926.526+1405.7+928.65+1405.85+930.359+1404.94C932.014+1404.01+933.775+1403.26+935.609+1402.71C938.958+1402.13+942.23+1404.31+945.628+1404.12C948.103+1403.78+950.434+1402.81+952.375+1401.32C955.788+1399.39+958.854+1396.96+961.456+1394.12C962.927+1392.28+963.992+1390.19+965.311+1388.23C966.989+1385.84+968.81+1383.54+970.765+1381.35L983.244+1366.96C984.483+1365.6+985.603+1364.14+986.592+1362.6C987.701+1360.5+988.552+1358.29+989.128+1356.01C990.462+1352.21+991.314+1348.27+991.665+1344.28C991.742+1340.99+991.436+1337.69+990.752+1334.46C990.373+1331.23+989.519+1328.08+988.215+1325.08C985.501+1319.66+978.907+1315.25+973.808+1320.86Z" opacity="1" fill="#d6d6d6"/>
<path d="M1017.23+1294.06C1017.27+1286.67+1013.55+1279.72+1007.24+1275.36C1007.03+1262+996.636+1250.74+982.66+1248.73C979.975+1236.06+968.032+1227.06+954.37+1227.41C940.709+1227.76+929.298+1237.36+927.341+1250.14C918.362+1248.22+910.144+1250.72+908.647+1255.94C907.151+1261.17+913.492+1267.93+922.953+1270.33C925.937+1271.12+929.044+1271.41+932.134+1271.19C936.588+1277.39+943.608+1281.53+951.462+1282.58C953.809+1292.66+961.978+1300.62+972.565+1303.15C974.011+1306.42+976.243+1309.34+979.084+1311.66C979.084+1312.3+979.084+1312.98+979.084+1313.65C979.084+1323.19+987.272+1330.93+997.372+1330.93C1007.47+1330.93+1015.66+1323.19+1015.66+1313.65C1015.66+1311.01+1015.06+1308.4+1013.91+1306C1016.14+1302.38+1017.29+1298.25+1017.23+1294.06Z" opacity="1" fill="#b87d4c"/>
<path d="M914.735+1257.05C916.231+1251.82+924.449+1249.33+933.428+1251.24C935.627+1238.26+947.412+1228.66+961.329+1228.52L963.181+1228.52C960.599+1227.77+957.915+1227.39+955.216+1227.39C941.299+1227.53+929.515+1237.13+927.315+1250.12C918.336+1248.2+910.118+1250.69+908.622+1255.92C907.125+1261.15+913.466+1267.91+922.927+1270.3C924.701+1270.77+926.519+1271.06+928.355+1271.19C919.3+1268.62+913.238+1262.39+914.735+1257.05Z" opacity="0.1" fill="#000000"/>
<path d="M985.07+1314.65C985.032+1314+985.032+1313.34+985.07+1312.69C982.214+1310.38+979.979+1307.46+978.551+1304.18C967.948+1301.66+959.77+1293.68+957.448+1283.58C949.586+1282.56+942.553+1278.43+938.095+1272.22C936.294+1272.36+934.482+1272.31+932.693+1272.08C937.179+1277.78+943.891+1281.55+951.335+1282.55C953.682+1292.63+961.851+1300.59+972.439+1303.12C973.884+1306.4+976.116+1309.31+978.957+1311.63C978.957+1312.28+978.957+1312.95+978.957+1313.62C978.787+1323.3+986.911+1331.28+997.144+1331.51C989.8+1328.81+984.99+1322.1+985.07+1314.65Z" opacity="0.1" fill="#000000"/>
<path d="M948.635+1285.73C947.153+1283.88+947.135+1281.54+948.596+1280.49C950.058+1279.44+952.445+1280.08+953.927+1281.93C955.41+1283.77+955.428+1286.12+953.966+1287.17C952.505+1288.22+950.118+1287.57+948.635+1285.73Z" opacity="1" fill="#fbbebe"/>
</g>
</svg>
