<?xml version="1.0" encoding="UTF-8" standalone="no"?> <!-- Created with Vectornator for iOS (http://vectornator.io/) --><!DOCTYPE svg PUBLIC "-//W3C//DTD SVG 1.1//EN" "http://www.w3.org/Graphics/SVG/1.1/DTD/svg11.dtd">
<svg height="100%" style="fill-rule:nonzero;clip-rule:evenodd;stroke-linecap:round;stroke-linejoin:round;" xmlns:xlink="http://www.w3.org/1999/xlink" xmlns="http://www.w3.org/2000/svg" xml:space="preserve" width="100%" xmlns:vectornator="http://vectornator.io" version="1.1" viewBox="0 0 2384.24 1683.99">
<metadata>
<vectornator:setting key="doHistoryDisabled" value="0"/>
<vectornator:setting key="GuidesVisible" value="1"/>
<vectornator:setting key="SnapToGrid" value="0"/>
<vectornator:setting key="CMYKEnabledKey" value="0"/>
<vectornator:setting key="IsolateActiveLayer" value="0"/>
<vectornator:setting key="DynamicGuides" value="0"/>
<vectornator:setting key="Units" value="Millimeters"/>
<vectornator:setting key="SnapToEdges" value="0"/>
<vectornator:setting key="SnapToPoints" value="0"/>
<vectornator:setting key="TimeLapseWatermarkDisabled" value="0"/>
<vectornator:setting key="RulersVisible" value="1"/>
<vectornator:setting key="OutlineMode" value="0"/>
<vectornator:setting key="SnapToGuides" value="1"/>
<vectornator:setting key="DimensionsVisible" value="1"/>
<vectornator:setting key="PencilOnly" value="0"/>
<vectornator:setting key="DisplayWhiteBackground" value="0"/>
</metadata>
<defs>
<radialGradient cx="442.582" r="1075.85" id="RadialGradient" gradientUnits="userSpaceOnUse" gradientTransform="matrix(1.52046 0 0 1.52046 -11.674 -594.319)" cy="1157.6">
<stop stop-color="#2ecdac" offset="0"/>
<stop stop-color="#4418b1" offset="1"/>
</radialGradient>
<linearGradient y1="875.841" id="LinearGradient" x1="553.121" y2="875.841" x2="834.127" gradientUnits="userSpaceOnUse" gradientTransform="matrix(1 0 0 1 0 0)">
<stop stop-color="#cdcdcd" offset="0"/>
<stop stop-color="#ffffff" offset="1"/>
</linearGradient>
<linearGradient y1="853.532" id="LinearGradient_2" x1="469.561" y2="853.532" x2="711.316" gradientUnits="userSpaceOnUse" gradientTransform="matrix(1 0 0 1 0 0)">
<stop stop-color="#cdcdcd" offset="0"/>
<stop stop-color="#ffffff" offset="1"/>
</linearGradient>
</defs>
<g id="Layer 1" vectornator:layerName="Layer 1">
<path d="M1879.72+863.501C1879.97+1065.95+1801.71+1260.62+1661.41+1406.57C1652.95+1415.43+1644.26+1424.07+1635.35+1432.5C1621.77+1445.42+1607.73+1457.84+1593.23+1469.76C1457.63+1581.48+1288.35+1644.25+1112.7+1647.96C1106.85+1648.1+1100.98+1648.16+1095.08+1648.16C954.994+1648.16+778.799+1573.34+618.902+1469.76C605.673+1461.19+592.562+1452.42+579.569+1443.46C573.495+1439.3+567.451+1435.09+561.437+1430.82C499.767+1387.28+441.23+1339.46+386.258+1287.71C350.265+1253.93+316.514+1217.84+285.218+1179.67C162.359+1028.12+135.26+891.571+310.417+863.501C331.155+860.188+351.282+856.647+370.798+852.878C399.067+847.445+426.121+841.578+451.961+835.276C486.767+826.818+519.468+817.645+550.063+807.758C560.355+804.445+570.411+801.066+580.231+797.621C725.419+746.627+822.594+680.128+888.739+607.976C899.958+595.763+910.301+583.403+919.768+570.895C934.253+551.857+947.41+531.845+959.146+511C975.345+482.038+988.95+451.7+999.805+420.341L1000.4+418.618C1053.03+266.805+1037.02+125.99+1095.08+78.8607C1343.27-122.622+1652.27+164.308+1797.3+502.674C1804.61+519.724+1811.48+536.877+1817.93+554.133C1820.82+561.84+1823.61+569.563+1826.3+577.3C1833.36+597.463+1839.78+617.679+1845.53+637.946C1847.74+645.675+1849.85+653.398+1851.85+661.113C1853.99+669.439+1856.05+677.743+1857.94+686.047C1872.06+746.847+1879.72+806.809+1879.72+863.501Z" opacity="1" fill="url(#RadialGradient)"/>
<path d="M1129.31+409.674L1080.15+409.674C1076.98+409.675+1074.41+412.245+1074.41+415.416L1074.41+464.599C1074.41+466.12+1075.02+467.577+1076.09+468.65C1077.17+469.723+1078.63+470.324+1080.15+470.32L1129.31+470.32C1132.47+470.321+1135.04+467.763+1135.05+464.599L1135.05+415.416C1135.04+412.248+1132.48+409.683+1129.31+409.674Z" opacity="1" fill="#ffffff"/>
<path d="M1129.31+493.487L1080.15+493.487C1076.98+493.488+1074.41+496.058+1074.41+499.229L1074.41+548.413C1074.41+549.933+1075.02+551.39+1076.09+552.463C1077.17+553.536+1078.63+554.137+1080.15+554.133L1129.31+554.133C1132.47+554.134+1135.04+551.576+1135.05+548.413L1135.05+499.229C1135.04+496.061+1132.48+493.496+1129.31+493.487Z" opacity="1" fill="#e6e6e6"/>
<path d="M1129.31+577.3L1080.15+577.3C1076.98+577.301+1074.41+579.872+1074.41+583.042L1074.41+632.204C1074.41+633.727+1075.01+635.19+1076.09+636.267C1077.16+637.345+1078.63+637.949+1080.15+637.945L1129.31+637.945C1132.48+637.944+1135.05+635.374+1135.05+632.204L1135.05+583.042C1135.04+579.875+1132.48+577.309+1129.31+577.3Z" opacity="1" fill="#e6e6e6"/>
<path d="M1134.97+665.839C1134.46+663.111+1132.09+661.127+1129.31+661.113L1080.15+661.113C1076.98+661.114+1074.41+663.684+1074.41+666.855L1074.41+716.017C1074.4+717.54+1075.01+719.003+1076.09+720.08C1077.16+721.158+1078.63+721.762+1080.15+721.759L1129.31+721.759C1132.48+721.757+1135.05+719.187+1135.05+716.017L1135.05+666.855C1135.06+666.514+1135.03+666.174+1134.97+665.839Z" opacity="1" fill="#e6e6e6"/>
<path d="M1131.54+745.368C1130.83+745.075+1130.08+744.925+1129.31+744.926L1080.15+744.926C1078.63+744.923+1077.16+745.527+1076.09+746.605C1075.01+747.682+1074.41+749.144+1074.41+750.668L1074.41+799.83C1074.4+801.355+1075+802.819+1076.08+803.898C1077.16+804.976+1078.63+805.579+1080.15+805.572L1129.31+805.572C1132.48+805.57+1135.05+803+1135.05+799.83L1135.05+750.668C1135.05+748.358+1133.67+746.274+1131.54+745.368Z" opacity="1" fill="#e6e6e6"/>
<path d="M1232.58+409.674L1183.42+409.674C1180.25+409.675+1177.68+412.245+1177.68+415.416L1177.68+464.599C1177.68+466.12+1178.29+467.577+1179.36+468.65C1180.44+469.723+1181.9+470.324+1183.42+470.32L1232.58+470.32C1235.74+470.321+1238.31+467.763+1238.32+464.599L1238.32+415.416C1238.31+412.248+1235.75+409.683+1232.58+409.674Z" opacity="1" fill="#e6e6e6"/>
<path d="M1232.58+493.487L1183.42+493.487C1180.25+493.488+1177.68+496.058+1177.68+499.229L1177.68+548.413C1177.68+549.933+1178.29+551.39+1179.36+552.463C1180.44+553.536+1181.9+554.137+1183.42+554.133L1232.58+554.133C1235.74+554.134+1238.31+551.576+1238.32+548.413L1238.32+499.229C1238.31+496.061+1235.75+493.496+1232.58+493.487Z" opacity="1" fill="#2ae7bf"/>
<path d="M1232.58+577.3L1183.42+577.3C1180.25+577.301+1177.68+579.872+1177.68+583.042L1177.68+632.204C1177.68+633.727+1178.28+635.19+1179.36+636.267C1180.43+637.345+1181.9+637.949+1183.42+637.945L1232.58+637.945C1235.75+637.944+1238.32+635.374+1238.32+632.204L1238.32+583.042C1238.31+579.875+1235.75+577.309+1232.58+577.3Z" opacity="1" fill="#2ae7bf"/>
<path d="M1232.58+661.113L1183.42+661.113C1180.95+661.115+1178.76+662.699+1177.99+665.044C1177.78+665.626+1177.68+666.238+1177.68+666.855L1177.68+716.017C1177.68+717.54+1178.28+719.003+1179.36+720.08C1180.43+721.158+1181.9+721.762+1183.42+721.759L1232.58+721.759C1235.75+721.757+1238.32+719.187+1238.32+716.017L1238.32+666.855C1238.31+663.688+1235.75+661.122+1232.58+661.113Z" opacity="1" fill="#2ae7bf"/>
<path d="M1232.58+744.926L1183.42+744.926C1181.9+744.923+1180.43+745.527+1179.36+746.605C1178.28+747.682+1177.68+749.144+1177.68+750.668L1177.68+799.83C1177.68+801.353+1178.28+802.816+1179.36+803.893C1180.43+804.971+1181.9+805.575+1183.42+805.572L1232.58+805.572C1235.75+805.57+1238.32+803+1238.32+799.83L1238.32+750.668C1238.32+747.497+1235.75+744.927+1232.58+744.926Z" opacity="1" fill="#e6e6e6"/>
<path d="M1335.85+409.674L1286.69+409.674C1283.52+409.675+1280.95+412.245+1280.95+415.416L1280.95+464.599C1280.95+466.12+1281.56+467.577+1282.63+468.65C1283.71+469.723+1285.17+470.324+1286.69+470.32L1335.85+470.32C1339.01+470.321+1341.58+467.763+1341.59+464.599L1341.59+415.416C1341.58+412.248+1339.02+409.683+1335.85+409.674Z" opacity="1" fill="#2ae7bf"/>
<path d="M1335.85+493.487L1286.69+493.487C1283.52+493.488+1280.95+496.058+1280.95+499.229L1280.95+548.413C1280.95+549.933+1281.56+551.39+1282.63+552.463C1283.71+553.536+1285.17+554.137+1286.69+554.133L1335.85+554.133C1339.01+554.134+1341.58+551.576+1341.59+548.413L1341.59+499.229C1341.58+496.061+1339.02+493.496+1335.85+493.487Z" opacity="1" fill="#2ae7bf"/>
<path d="M1335.85+577.3L1286.69+577.3C1283.52+577.301+1280.95+579.872+1280.95+583.042L1280.95+632.204C1280.95+633.727+1281.55+635.19+1282.63+636.267C1283.7+637.345+1285.17+637.949+1286.69+637.945L1335.85+637.945C1339.02+637.944+1341.59+635.374+1341.59+632.204L1341.59+583.042C1341.58+579.875+1339.02+577.309+1335.85+577.3Z" opacity="1" fill="#e6e6e6"/>
<path d="M1335.85+661.113L1286.69+661.113C1283.52+661.114+1280.95+663.685+1280.95+666.855L1280.95+716.017C1280.95+717.54+1281.55+719.003+1282.63+720.08C1283.7+721.158+1285.17+721.762+1286.69+721.759L1335.85+721.759C1339.02+721.757+1341.59+719.187+1341.59+716.017L1341.59+666.855C1341.58+663.688+1339.02+661.122+1335.85+661.113Z" opacity="1" fill="#2ae7bf"/>
<path d="M1335.85+744.926L1286.69+744.926C1285.17+744.923+1283.7+745.527+1282.63+746.605C1281.55+747.682+1280.95+749.144+1280.95+750.668L1280.95+799.83C1280.95+801.353+1281.55+802.816+1282.63+803.893C1283.7+804.971+1285.17+805.575+1286.69+805.572L1335.85+805.572C1339.02+805.57+1341.59+803+1341.59+799.83L1341.59+750.668C1341.59+747.497+1339.02+744.927+1335.85+744.926Z" opacity="1" fill="#2ae7bf"/>
<path d="M1439.12+409.674L1389.96+409.674C1386.79+409.675+1384.22+412.245+1384.22+415.416L1384.22+464.599C1384.22+466.12+1384.83+467.577+1385.9+468.65C1386.98+469.723+1388.44+470.324+1389.96+470.32L1439.12+470.32C1442.28+470.321+1444.85+467.763+1444.86+464.599L1444.86+415.416C1444.85+412.248+1442.29+409.683+1439.12+409.674Z" opacity="1" fill="#2ae7bf"/>
<path d="M1439.12+493.487L1389.96+493.487C1386.79+493.488+1384.22+496.058+1384.22+499.229L1384.22+548.413C1384.22+549.933+1384.83+551.39+1385.9+552.463C1386.98+553.536+1388.44+554.137+1389.96+554.133L1439.12+554.133C1442.28+554.134+1444.85+551.576+1444.86+548.413L1444.86+499.229C1444.85+496.061+1442.29+493.496+1439.12+493.487Z" opacity="1" fill="#ffffff"/>
<path d="M1439.12+577.3L1389.96+577.3C1386.79+577.301+1384.22+579.871+1384.22+583.042L1384.22+632.204C1384.22+633.727+1384.82+635.19+1385.9+636.267C1386.97+637.345+1388.44+637.949+1389.96+637.945L1439.12+637.945C1442.29+637.944+1444.86+635.374+1444.86+632.204L1444.86+583.042C1444.85+579.875+1442.29+577.309+1439.12+577.3Z" opacity="1" fill="#ffffff"/>
<path d="M1439.12+661.113L1389.96+661.113C1386.79+661.114+1384.22+663.684+1384.22+666.855L1384.22+716.017C1384.22+717.54+1384.82+719.003+1385.9+720.08C1386.97+721.158+1388.44+721.762+1389.96+721.759L1439.12+721.759C1442.29+721.757+1444.86+719.187+1444.86+716.017L1444.86+666.855C1444.85+663.688+1442.29+661.122+1439.12+661.113Z" opacity="1" fill="#e6e6e6"/>
<path d="M1439.12+744.926L1389.96+744.926C1388.44+744.923+1386.97+745.527+1385.9+746.604C1384.82+747.682+1384.22+749.144+1384.22+750.668L1384.22+799.83C1384.22+801.353+1384.82+802.816+1385.9+803.893C1386.97+804.971+1388.44+805.575+1389.96+805.572L1439.12+805.572C1442.29+805.57+1444.86+803+1444.86+799.83L1444.86+750.668C1444.86+747.497+1442.29+744.927+1439.12+744.926Z" opacity="1" fill="#2ae7bf"/>
<path d="M1542.39+409.674L1493.21+409.674C1490.05+409.685+1487.49+412.253+1487.49+415.416L1487.49+464.599C1487.49+467.758+1490.05+470.319+1493.21+470.32L1542.39+470.32C1545.56+470.321+1548.12+467.763+1548.13+464.599L1548.13+415.416C1548.12+412.248+1545.56+409.683+1542.39+409.674Z" opacity="1" fill="#ffffff"/>
<path d="M1542.39+493.487L1493.21+493.487C1490.05+493.498+1487.49+496.066+1487.49+499.229L1487.49+548.413C1487.49+551.571+1490.05+554.132+1493.21+554.133L1542.39+554.133C1545.56+554.134+1548.12+551.576+1548.13+548.413L1548.13+499.229C1548.12+496.061+1545.56+493.496+1542.39+493.487Z" opacity="1" fill="#ffffff"/>
<path d="M1542.39+577.3L1493.21+577.3C1490.05+577.311+1487.49+579.879+1487.49+583.042L1487.49+632.204C1487.48+633.724+1488.08+635.184+1489.16+636.261C1490.23+637.338+1491.69+637.944+1493.21+637.945L1542.39+637.945C1545.56+637.944+1548.13+635.374+1548.13+632.204L1548.13+583.042C1548.12+579.875+1545.56+577.309+1542.39+577.3Z" opacity="1" fill="#ffffff"/>
<path d="M1542.39+661.113L1493.21+661.113C1490.05+661.124+1487.49+663.692+1487.49+666.855L1487.49+716.017C1487.48+717.537+1488.08+718.997+1489.16+720.074C1490.23+721.151+1491.69+721.757+1493.21+721.759L1542.39+721.759C1545.56+721.757+1548.13+719.187+1548.13+716.017L1548.13+666.855C1548.12+663.688+1545.56+661.122+1542.39+661.113Z" opacity="1" fill="#2ae7bf"/>
<path d="M1542.39+744.926L1493.21+744.926C1491.69+744.928+1490.23+745.534+1489.16+746.611C1488.08+747.688+1487.48+749.148+1487.49+750.668L1487.49+799.83C1487.48+801.35+1488.08+802.81+1489.16+803.887C1490.23+804.964+1491.69+805.57+1493.21+805.572L1542.39+805.572C1545.56+805.57+1548.13+803+1548.13+799.83L1548.13+750.668C1548.13+747.497+1545.56+744.927+1542.39+744.926Z" opacity="1" fill="#e6e6e6"/>
<path d="M1645.66+409.674L1596.48+409.674C1593.32+409.685+1590.76+412.253+1590.76+415.416L1590.76+464.599C1590.76+467.758+1593.32+470.319+1596.48+470.32L1645.66+470.32C1648.83+470.321+1651.39+467.763+1651.4+464.599L1651.4+415.416C1651.39+412.248+1648.83+409.683+1645.66+409.674Z" opacity="1" fill="#ffffff"/>
<path d="M1645.66+493.487L1596.48+493.487C1593.32+493.498+1590.76+496.066+1590.76+499.229L1590.76+548.413C1590.76+551.571+1593.32+554.132+1596.48+554.133L1645.66+554.133C1648.83+554.134+1651.39+551.576+1651.4+548.413L1651.4+499.229C1651.39+496.062+1648.83+493.496+1645.66+493.487Z" opacity="1" fill="#ffffff"/>
<path d="M1645.66+577.3L1596.48+577.3C1593.32+577.311+1590.76+579.879+1590.76+583.042L1590.76+632.204C1590.75+633.724+1591.35+635.184+1592.43+636.261C1593.5+637.338+1594.96+637.944+1596.48+637.945L1645.66+637.945C1648.83+637.944+1651.4+635.374+1651.4+632.204L1651.4+583.042C1651.39+579.875+1648.83+577.309+1645.66+577.3Z" opacity="1" fill="#2ae7bf"/>
<path d="M1645.66+661.113L1596.48+661.113C1593.32+661.124+1590.76+663.692+1590.76+666.855L1590.76+716.017C1590.75+717.537+1591.35+718.997+1592.43+720.074C1593.5+721.151+1594.96+721.757+1596.48+721.759L1645.66+721.759C1648.83+721.757+1651.4+719.187+1651.4+716.017L1651.4+666.855C1651.39+663.688+1648.83+661.122+1645.66+661.113Z" opacity="1" fill="#e6e6e6"/>
<path d="M1645.66+744.926L1596.48+744.926C1594.96+744.928+1593.5+745.534+1592.43+746.611C1591.35+747.688+1590.75+749.148+1590.76+750.668L1590.76+799.83C1590.75+801.35+1591.35+802.81+1592.43+803.887C1593.5+804.964+1594.96+805.57+1596.48+805.572L1645.66+805.572C1648.83+805.57+1651.4+803+1651.4+799.83L1651.4+750.668C1651.4+747.497+1648.83+744.928+1645.66+744.926Z" opacity="1" fill="#ffffff"/>
<path d="M1748.93+409.674L1699.75+409.674C1696.59+409.685+1694.03+412.253+1694.03+415.416L1694.03+464.599C1694.03+467.758+1696.59+470.319+1699.75+470.32L1748.93+470.32C1752.1+470.321+1754.66+467.763+1754.67+464.599L1754.67+415.416C1754.66+412.248+1752.1+409.683+1748.93+409.674Z" opacity="1" fill="#2ae7bf"/>
<path d="M1748.93+493.487L1699.75+493.487C1696.59+493.498+1694.03+496.066+1694.03+499.229L1694.03+548.413C1694.03+551.571+1696.59+554.132+1699.75+554.133L1748.93+554.133C1752.1+554.134+1754.66+551.576+1754.67+548.413L1754.67+499.229C1754.66+496.062+1752.1+493.496+1748.93+493.487Z" opacity="1" fill="#2ae7bf"/>
<path d="M1748.93+577.3L1699.75+577.3C1696.59+577.311+1694.03+579.879+1694.03+583.042L1694.03+632.204C1694.02+633.724+1694.62+635.184+1695.7+636.261C1696.77+637.338+1698.23+637.944+1699.75+637.945L1748.93+637.945C1752.1+637.944+1754.67+635.374+1754.67+632.204L1754.67+583.042C1754.66+579.875+1752.1+577.309+1748.93+577.3Z" opacity="1" fill="#e6e6e6"/>
<path d="M1748.93+661.113L1699.75+661.113C1696.59+661.124+1694.03+663.692+1694.03+666.855L1694.03+716.017C1694.02+717.537+1694.62+718.997+1695.7+720.074C1696.77+721.151+1698.23+721.757+1699.75+721.759L1748.93+721.759C1752.1+721.757+1754.67+719.187+1754.67+716.017L1754.67+666.855C1754.66+663.688+1752.1+661.122+1748.93+661.113Z" opacity="1" fill="#ffffff"/>
<path d="M1748.93+744.926L1699.75+744.926C1698.23+744.928+1696.77+745.534+1695.7+746.611C1694.62+747.688+1694.02+749.148+1694.03+750.668L1694.03+799.83C1694.02+801.35+1694.62+802.81+1695.7+803.887C1696.77+804.964+1698.23+805.57+1699.75+805.572L1748.93+805.572C1752.1+805.57+1754.67+803+1754.67+799.83L1754.67+750.668C1754.67+747.497+1752.1+744.928+1748.93+744.926Z" opacity="1" fill="#2ae7bf"/>
<path d="M1852.2+409.674L1803.02+409.674C1799.86+409.685+1797.3+412.253+1797.3+415.416L1797.3+464.599C1797.3+467.758+1799.86+470.319+1803.02+470.32L1852.2+470.32C1855.37+470.321+1857.93+467.762+1857.94+464.599L1857.94+415.416C1857.93+412.248+1855.37+409.683+1852.2+409.674Z" opacity="1" fill="#2ae7bf"/>
<path d="M1852.2+493.487L1803.02+493.487C1799.86+493.498+1797.3+496.066+1797.3+499.229L1797.3+548.413C1797.3+551.571+1799.86+554.132+1803.02+554.133L1852.2+554.133C1855.37+554.134+1857.93+551.576+1857.94+548.413L1857.94+499.229C1857.93+496.062+1855.37+493.496+1852.2+493.487Z" opacity="1" fill="#2ae7bf"/>
<path d="M1852.2+577.3L1803.02+577.3C1799.86+577.311+1797.3+579.879+1797.3+583.042L1797.3+632.204C1797.29+633.724+1797.89+635.184+1798.97+636.261C1800.04+637.338+1801.5+637.944+1803.02+637.945L1852.2+637.945C1855.37+637.944+1857.94+635.374+1857.94+632.204L1857.94+583.042C1857.93+579.875+1855.37+577.309+1852.2+577.3Z" opacity="1" fill="#e6e6e6"/>
<path d="M1852.2+661.113L1803.02+661.113C1799.86+661.124+1797.3+663.692+1797.3+666.855L1797.3+716.017C1797.29+717.537+1797.89+718.997+1798.97+720.074C1800.04+721.151+1801.5+721.757+1803.02+721.759L1852.2+721.759C1855.37+721.757+1857.94+719.187+1857.94+716.017L1857.94+666.855C1857.93+663.688+1855.37+661.122+1852.2+661.113Z" opacity="1" fill="#2ae7bf"/>
<path d="M1852.2+744.926L1803.02+744.926C1801.5+744.928+1800.04+745.534+1798.97+746.611C1797.89+747.688+1797.29+749.148+1797.3+750.668L1797.3+799.83C1797.29+801.35+1797.89+802.81+1798.97+803.887C1800.04+804.964+1801.5+805.57+1803.02+805.572L1852.2+805.572C1855.37+805.57+1857.94+803+1857.94+799.83L1857.94+750.668C1857.94+747.497+1855.37+744.928+1852.2+744.926Z" opacity="1" fill="#2ae7bf"/>
<path d="M1955.47+409.674L1906.29+409.674C1903.13+409.685+1900.57+412.253+1900.57+415.416L1900.57+464.599C1900.57+467.758+1903.13+470.319+1906.29+470.32L1955.47+470.32C1958.64+470.321+1961.2+467.762+1961.21+464.599L1961.21+415.416C1961.2+412.248+1958.64+409.683+1955.47+409.674Z" opacity="1" fill="#e6e6e6"/>
<path d="M1955.47+493.487L1906.29+493.487C1903.13+493.498+1900.57+496.066+1900.57+499.229L1900.57+548.413C1900.57+551.571+1903.13+554.132+1906.29+554.133L1955.47+554.133C1958.64+554.134+1961.2+551.576+1961.21+548.413L1961.21+499.229C1961.2+496.062+1958.64+493.496+1955.47+493.487Z" opacity="1" fill="#2ae7bf"/>
<path d="M1955.47+577.3L1906.29+577.3C1903.13+577.311+1900.57+579.879+1900.57+583.042L1900.57+632.204C1900.56+633.724+1901.16+635.184+1902.24+636.261C1903.31+637.338+1904.77+637.944+1906.29+637.945L1955.47+637.945C1958.64+637.944+1961.21+635.374+1961.21+632.204L1961.21+583.042C1961.2+579.875+1958.64+577.309+1955.47+577.3Z" opacity="1" fill="#2ae7bf"/>
<path d="M1955.47+661.113L1906.29+661.113C1903.13+661.124+1900.57+663.692+1900.57+666.855L1900.57+716.017C1900.56+717.537+1901.16+718.997+1902.24+720.074C1903.31+721.151+1904.77+721.757+1906.29+721.759L1955.47+721.759C1958.64+721.757+1961.21+719.187+1961.21+716.017L1961.21+666.855C1961.2+663.688+1958.64+661.122+1955.47+661.113Z" opacity="1" fill="#2ae7bf"/>
<path d="M1955.47+744.926L1906.29+744.926C1904.77+744.928+1903.31+745.534+1902.24+746.611C1901.16+747.688+1900.56+749.148+1900.57+750.668L1900.57+799.83C1900.56+801.35+1901.16+802.81+1902.24+803.887C1903.31+804.964+1904.77+805.57+1906.29+805.572L1955.47+805.572C1958.64+805.57+1961.21+803+1961.21+799.83L1961.21+750.668C1961.21+747.497+1958.64+744.928+1955.47+744.926Z" opacity="1" fill="#e6e6e6"/>
<path d="M2058.74+409.674L2009.56+409.674C2006.4+409.685+2003.84+412.253+2003.84+415.416L2003.84+464.599C2003.84+467.758+2006.4+470.319+2009.56+470.32L2058.74+470.32C2061.91+470.321+2064.47+467.762+2064.48+464.599L2064.48+415.416C2064.47+412.248+2061.91+409.683+2058.74+409.674Z" opacity="1" fill="#e6e6e6"/>
<path d="M2058.74+493.487L2009.56+493.487C2006.4+493.498+2003.84+496.066+2003.84+499.229L2003.84+548.413C2003.84+551.571+2006.4+554.132+2009.56+554.133L2058.74+554.133C2061.91+554.134+2064.47+551.576+2064.48+548.413L2064.48+499.229C2064.47+496.062+2061.91+493.496+2058.74+493.487Z" opacity="1" fill="#e6e6e6"/>
<path d="M2058.74+577.3L2009.56+577.3C2006.4+577.311+2003.84+579.879+2003.84+583.042L2003.84+632.204C2003.83+633.724+2004.43+635.184+2005.51+636.261C2006.58+637.338+2008.04+637.944+2009.56+637.945L2058.74+637.945C2061.91+637.944+2064.48+635.374+2064.48+632.204L2064.48+583.042C2064.47+579.875+2061.91+577.309+2058.74+577.3Z" opacity="1" fill="#2ae7bf"/>
<path d="M2058.74+661.113L2009.56+661.113C2006.4+661.124+2003.84+663.692+2003.84+666.855L2003.84+716.017C2003.83+717.537+2004.43+718.997+2005.51+720.074C2006.58+721.151+2008.04+721.757+2009.56+721.759L2058.74+721.759C2061.91+721.757+2064.48+719.187+2064.48+716.017L2064.48+666.855C2064.47+663.688+2061.91+661.122+2058.74+661.113Z" opacity="1" fill="#e6e6e6"/>
<path d="M2058.74+744.926L2009.56+744.926C2008.04+744.928+2006.58+745.534+2005.51+746.611C2004.43+747.688+2003.83+749.148+2003.84+750.668L2003.84+799.83C2003.83+801.35+2004.43+802.81+2005.51+803.887C2006.58+804.964+2008.04+805.57+2009.56+805.572L2058.74+805.572C2061.91+805.57+2064.48+803+2064.48+799.83L2064.48+750.668C2064.48+747.497+2061.91+744.928+2058.74+744.926Z" opacity="1" fill="#e6e6e6"/>
<path d="M928.33+1469.76L926.961+1469.76L928.132+1469.61L928.33+1469.76Z" opacity="1" fill="#2f2e41"/>
<path d="M424.394+1181.53C420.059+1181.73+416.062+1179.2+414.388+1175.2C412.714+1171.2+413.72+1166.57+416.907+1163.63C417.167+1162.59+417.354+1161.85+417.614+1160.81C417.521+1160.59+417.427+1160.36+417.333+1160.14C412.975+1149.84+402.863+1143.17+391.683+1143.21C380.504+1143.25+370.441+1150+366.159+1160.33C357.79+1180.49+347.134+1200.68+344.51+1221.99C343.354+1231.42+343.842+1240.97+345.951+1250.22C326.292+1207.34+316.085+1160.73+316.019+1113.56C316.015+1101.72+316.672+1089.89+317.989+1078.13C319.077+1068.48+320.586+1058.91+322.517+1049.4C333.053+997.819+355.675+949.471+388.525+908.329C404.424+899.654+417.282+886.314+425.366+870.106C428.295+864.28+430.365+858.06+431.511+851.641C429.718+851.876+427.895+852.023+426.101+852.141C425.543+852.17+424.955+852.2+424.396+852.229L424.185+852.239C420.159+852.419+416.401+850.22+414.587+846.621C412.773+843.022+413.239+838.693+415.779+835.564C416.554+834.611+417.328+833.658+418.104+832.706C419.28+831.236+420.485+829.795+421.661+828.325C421.797+828.185+421.925+828.038+422.044+827.884C423.396+826.208+424.749+824.561+426.101+822.885C423.632+819.054+420.312+815.844+416.398+813.506C402.844+805.568+384.144+811.066+374.353+823.327C364.533+835.587+362.68+852.788+366.091+868.106C369.445+881.141+374.993+893.51+382.498+904.683C381.762+905.624+380.998+906.535+380.263+907.476C366.826+924.755+355.114+943.308+345.297+962.871C347.684+940.955+344.835+918.785+336.982+898.185C329.024+878.987+314.108+862.818+300.972+846.221C285.194+826.286+252.839+834.986+250.06+860.257C250.033+860.502+250.006+860.747+249.981+860.991C251.932+862.092+253.842+863.26+255.71+864.496C260.515+867.706+262.857+873.537+261.607+879.178C260.357+884.82+255.772+889.116+250.061+889.996L249.775+890.041C250.47+897.073+251.699+904.041+253.45+910.887C263.711+949.521+289.615+982.127+324.927+1000.86C326.074+1001.45+327.192+1002.03+328.338+1002.59C318.474+1030.55+312.287+1059.66+309.932+1089.21C308.599+1106.65+308.678+1124.16+310.168+1141.58L310.079+1140.96C306.316+1121.59+295.982+1104.11+280.824+1091.48C258.31+1072.98+226.503+1066.17+202.214+1051.31C196.944+1047.92+190.189+1047.91+184.902+1051.26C179.615+1054.62+176.758+1060.74+177.581+1066.95C177.614+1067.17+177.647+1067.39+177.68+1067.6C181.301+1069.08+184.826+1070.78+188.236+1072.69C190.187+1073.79+192.097+1074.96+193.965+1076.19C198.77+1079.4+201.112+1085.23+199.862+1090.88C198.612+1096.52+194.027+1100.81+188.316+1101.69L188.03+1101.74C187.824+1101.77+187.648+1101.8+187.442+1101.83C193.629+1116.6+202.311+1130.19+213.11+1142.02C240.072+1170.95+277.766+1187.49+317.312+1187.74L317.342+1187.74C322.653+1210.82+330.349+1233.29+340.305+1254.78L422.338+1254.78C422.632+1253.87+422.896+1252.92+423.161+1252.01C415.568+1252.49+407.945+1252.04+400.462+1250.66C406.549+1243.19+412.635+1235.67+418.721+1228.2C418.857+1228.06+418.985+1227.91+419.103+1227.76C422.191+1223.93+425.307+1220.14+428.395+1216.32L428.396+1216.31C428.561+1204.6+427.216+1192.91+424.396+1181.54L424.394+1181.53Z" opacity="0.564446" fill="#d2ebff"/>
<path d="M1481.37+1257.9C1481.37+1258.81+1481.01+1259.68+1480.38+1260.31C1479.74+1260.95+1478.87+1261.31+1477.97+1261.31L227.71+1261.31C225.83+1261.31+224.307+1259.78+224.307+1257.9C224.307+1256.03+225.83+1254.5+227.71+1254.5L1477.97+1254.5C1478.87+1254.5+1479.74+1254.86+1480.38+1255.5C1481.01+1256.13+1481.37+1257+1481.37+1257.9Z" opacity="1" fill="#ffffff"/>
<path d="M878.991+820.86C869.46+818.579+859.407+820.637+851.539+826.481C843.67+832.324+838.794+841.353+838.223+851.137L766.749+876.011L771.271+923.133L871.713+886.588C888.584+886.456+902.69+873.726+904.547+856.957C906.404+840.188+895.425+824.68+878.991+820.86Z" opacity="1" fill="#ffb6b6"/>
<path d="M762.506+957.821C734.086+977.629+684.018+987.763+615.875+987.298C608.248+987.319+600.961+984.141+595.786+978.538C577.552+959.551+578.264+916.21+578.378+912.023L558.393+836.707C557.965+835.556+546.903+804.652+558.157+783.072C563.002+773.95+571.594+767.402+581.675+765.149C623.94+753.934+663.67+867.067+668.719+882.016L728.031+871.916L768.991+870.231L810.664+847.228L834.127+903.381L776.063+945.814C772.057+950.361+767.503+954.394+762.506+957.821Z" opacity="1" fill="url(#LinearGradient)"/>
<path d="M876.949+1580.58L920.639+1582.62L949.305+1415.07L884.823+1412.06L876.949+1580.58Z" opacity="1" fill="#ffb6b6"/>
<path d="M867.123+1558.52L936.38+1557.62L934.996+1587.21L998.537+1635.63C1004.98+1640.54+1007.48+1649.07+1004.71+1656.68C1001.94+1664.29+994.548+1669.21+986.458+1668.84L904.234+1664.99L891.431+1635.06L884.528+1664.07L853.527+1662.62L867.123+1558.52Z" opacity="1" fill="#995e0e"/>
<path d="M1333.1+1220.83L1349.02+1180.09L1199.46+1099.32L1123.9+1146.8L1333.1+1220.83Z" opacity="1" fill="#ffb6b6"/>
<path d="M1309.06+1223.08L1330.38+1157.18L1357.97+1167.96L1424.18+1123.26C1430.89+1118.73+1439.77+1119.09+1446.09+1124.14C1452.41+1129.2+1454.71+1137.79+1451.77+1145.33L1421.81+1222L1389.35+1224.55L1414.63+1240.37L1403.33+1269.28L1309.06+1223.08Z" opacity="1" fill="#995e0e"/>
<path d="M473.895+1099.59C473.895+1099.59+492.04+1215.42+577.813+1224C663.587+1232.58+742.651+1193.94+742.651+1193.94L982.816+1119.97C982.816+1119.97+1238.27+1192.55+1281.15+1203.99C1281.15+1203.99+1310.73+1136.84+1309.74+1132.51C1300.62+1092.6+1288.74+1119.6+1288.74+1119.6L1017.12+999.517C1017.12+999.517+974.238+988.08+899.902+1019.53C825.565+1050.98+626.418+1126.79+626.418+1126.79L473.895+1099.59Z" opacity="1" fill="#00334e"/>
<path d="M474.886+1092.48C474.886+1092.48+460.581+1231.25+544.134+1252.45C623.559+1272.61+733.116+1251.93+733.116+1251.93L863.724+1238.3C863.724+1238.3+869.442+1406.11+869.442+1489.03C895.978+1492.63+922.718+1494.54+949.497+1494.75C955.215+1494.75+955.595+1491.75+955.595+1491.75L966.667+1201.71C968.24+1176.21+958.962+1151.23+941.125+1132.94C923.287+1114.65+898.55+1104.75+873.019+1105.69C866.853+1105.92+860.386+1106.36+853.616+1107C773.268+1114.7+673.52+1098.32+673.52+1098.32L474.886+1092.48Z" opacity="1" fill="#00334e"/>
<path d="M706.64+891.168C706.64+891.168+740.56+1096.29+717.637+1112.67C694.714+1129.04+663.278+1129.1+663.278+1129.1L655.968+1015.85L706.64+891.168Z" opacity="1" fill="#000000"/>
<path d="M650.066+639.249L695.419+682.345C738.732+723.503+749.471+788.407+721.722+841.322L700.043+882.663L650.066+639.249Z" opacity="1" fill="#000000"/>
<path d="M639.924+646.495L701.377+716.492C714.864+731.854+723.222+751.041+725.286+771.38L725.286+771.38C726.223+780.615+725.846+789.936+724.167+799.066L701.008+924.964L683.6+1106.78C683.6+1106.78+549.213+1147.5+535.458+1084.62C521.702+1021.75+639.924+646.495+639.924+646.495Z" opacity="1" fill="#000000"/>
<path d="M582.241+1123.87C493.9+1109.14+472.26+1106.22+470.912+1105.71L469.561+1105.19L478.416+1052.06L515.807+960.18C518.235+930.126+533.984+889.404+524.974+856.696C498.782+761.611+541.335+627.245+560.795+616.952L614.744+581.585L633.682+598.947L666.517+644.913C693.533+765.256+712.192+877.423+711.284+884.279L694.61+1002.09L674.962+1047.29C615.357+1076.05+655.438+1136.06+582.241+1123.87Z" opacity="1" fill="url(#LinearGradient_2)"/>
<path d="M742.18+1037.43L880.887+1000.32L893.1+997.427L901.808+995.359L911.957+992.959L912.038+992.941C913.513+992.604+915.061+992.862+916.347+993.658L967.85+1055.41C968.316+1055.69+968.726+1056.06+969.061+1056.5C969.2+1056.61+969.323+1056.74+969.428+1056.88C970.585+1058.46+970.881+1060.51+970.216+1062.35C969.551+1064.19+968.014+1065.58+966.115+1066.06L759.193+1113.68C757.004+1114.17+754.726+1113.37+753.334+1111.61L751.234+1108.89L739.784+1053.75L738.969+1046.59C738.449+1045.93+738.083+1045.16+737.895+1044.34C737.203+1041.25+739.109+1038.18+742.18+1037.43Z" opacity="1" fill="#515151"/>
<path d="M751.233+1108.88L753.345+1111.61C754.734+1113.37+757.005+1114.17+759.189+1113.68L966.118+1066.06C968.017+1065.59+969.555+1064.2+970.218+1062.36C970.882+1060.52+970.585+1058.47+969.425+1056.89C969.325+1056.74+969.203+1056.61+969.063+1056.5L751.233+1108.88Z" opacity="0.17" fill="#000000"/>
<path d="M910.924+992.556L907.181+728.761C907.024+727.173+907.504+725.588+908.516+724.353L935.031+669.169L937.785+665.823C938.809+664.599+940.272+663.825+941.86+663.667L947.631+663.13C950.942+662.804+953.889+665.224+954.215+668.535L954.215+668.535L959.412+947.651L959.417+947.671L961.992+974.546L965.043+1006.46L965.052+1006.5L969.815+1056.15C969.996+1057.87+969.414+1059.58+968.222+1060.83C967.061+1062.1+965.411+1062.81+963.692+1062.77L959.937+1062.7C958.497+1062.66+957.116+1062.11+956.037+1061.16L953.937+1059.27L952.964+1058.38L912.916+996.477C911.779+995.47+911.067+994.068+910.924+992.556Z" opacity="1" fill="#515151"/>
<path d="M935.041+669.169L952.96+1058.4L953.939+1059.27L956.033+1061.15C957.11+1062.11+958.492+1062.66+959.934+1062.69L963.694+1062.77C965.415+1062.8+967.066+1062.09+968.234+1060.83C969.403+1059.56+969.978+1057.86+969.816+1056.15L954.208+668.543C953.889+665.231+950.947+662.803+947.634+663.119L941.851+663.673C940.265+663.819+938.804+664.596+937.796+665.829L935.041+669.169Z" opacity="0.17" fill="#000000"/>
<path d="M936.547+684.897L912.299+744.752L915.298+923.809L941.551+961.775L936.547+684.897Z" opacity="1" fill="#ffffff"/>
<path d="M758.166+1035.85C755.402+1036.64+753.8+1039.52+754.586+1042.28L765.269+1086.8L775.278+1083.95L764.596+1039.43C763.808+1036.67+760.93+1035.07+758.166+1035.85Z" opacity="1" fill="#000000"/>
<path d="M778.185+1030.15C775.421+1030.94+773.819+1033.82+774.605+1036.58L776.885+1044.59L786.895+1041.74L784.615+1033.73C783.827+1030.97+780.949+1029.37+778.185+1030.15Z" opacity="1" fill="#000000"/>
<path d="M798.204+1024.45C795.44+1025.24+793.838+1028.12+794.624+1030.88L796.904+1038.89L806.914+1036.04L804.634+1028.03C803.846+1025.27+800.968+1023.67+798.204+1024.45Z" opacity="1" fill="#2f2e41"/>
<path d="M818.223+1018.75C815.459+1019.54+813.857+1022.42+814.643+1025.18L816.923+1033.19L826.933+1030.34L824.653+1022.33C823.865+1019.57+820.987+1017.97+818.223+1018.75Z" opacity="1" fill="#2f2e41"/>
<path d="M838.242+1013.05C835.478+1013.84+833.876+1016.72+834.662+1019.48L836.942+1027.49L846.952+1024.64L844.672+1016.63C843.884+1013.87+841.006+1012.27+838.242+1013.05Z" opacity="1" fill="#2f2e41"/>
<path d="M858.261+1007.35C855.497+1008.14+853.895+1011.02+854.681+1013.78L856.961+1021.79L866.971+1018.94L864.69+1010.93C863.903+1008.17+861.025+1006.57+858.261+1007.35Z" opacity="1" fill="#000000"/>
<path d="M878.28+1001.65C875.516+1002.44+873.914+1005.32+874.7+1008.08L876.98+1016.09L886.99+1013.24L884.709+1005.23C883.922+1002.47+881.044+1000.87+878.28+1001.65Z" opacity="1" fill="#000000"/>
<path d="M898.299+995.953C895.535+996.741+893.933+999.619+894.719+1002.38L896.999+1010.39L907.009+1007.54L904.728+999.532C903.94+996.769+901.062+995.167+898.299+995.953Z" opacity="1" fill="#000000"/>
<path d="M782.386+1048.41C779.623+1049.2+778.021+1052.08+778.806+1054.84L781.087+1062.85L791.096+1060L788.816+1051.99C788.028+1049.23+785.15+1047.62+782.386+1048.41Z" opacity="1" fill="#000000"/>
<path d="M802.405+1042.71C799.642+1043.5+798.04+1046.38+798.825+1049.14L801.106+1057.15L811.115+1054.3L808.835+1046.29C808.047+1043.53+805.169+1041.92+802.405+1042.71Z" opacity="1" fill="#000000"/>
<path d="M822.424+1037.01C819.661+1037.8+818.058+1040.68+818.844+1043.44L821.125+1051.45L831.134+1048.6L828.854+1040.59C828.066+1037.83+825.188+1036.22+822.424+1037.01Z" opacity="1" fill="#2f2e41"/>
<path d="M842.443+1031.31C839.68+1032.1+838.077+1034.98+838.863+1037.74L841.143+1045.75L851.153+1042.9L848.873+1034.89C848.085+1032.13+845.207+1030.52+842.443+1031.31Z" opacity="1" fill="#2f2e41"/>
<path d="M862.462+1025.61C859.699+1026.4+858.096+1029.28+858.882+1032.04L861.162+1040.05L871.172+1037.2L868.892+1029.19C868.104+1026.43+865.226+1024.82+862.462+1025.61Z" opacity="1" fill="#000000"/>
<path d="M882.481+1019.91C879.718+1020.7+878.115+1023.57+878.901+1026.34L881.181+1034.35L891.191+1031.5L888.911+1023.49C888.123+1020.73+885.245+1019.12+882.481+1019.91Z" opacity="1" fill="#000000"/>
<path d="M902.5+1014.21C899.736+1015+898.134+1017.87+898.92+1020.64L901.2+1028.65L911.21+1025.8L908.93+1017.79C908.142+1015.03+905.264+1013.42+902.5+1014.21Z" opacity="1" fill="#000000"/>
<path d="M786.587+1066.67C783.824+1067.45+782.222+1070.33+783.008+1073.1L785.288+1081.1L795.297+1078.25L793.017+1070.25C792.229+1067.48+789.351+1065.88+786.587+1066.67Z" opacity="1" fill="#000000"/>
<path d="M806.606+1060.97C803.843+1061.75+802.241+1064.63+803.027+1067.4L805.307+1075.4L815.316+1072.55L813.036+1064.55C812.248+1061.78+809.37+1060.18+806.606+1060.97Z" opacity="1" fill="#000000"/>
<path d="M826.625+1055.27C823.862+1056.05+822.26+1058.93+823.046+1061.7L825.326+1069.7L835.335+1066.85L833.055+1058.85C832.267+1056.08+829.389+1054.48+826.625+1055.27Z" opacity="1" fill="#000000"/>
<path d="M846.644+1049.57C843.881+1050.35+842.279+1053.23+843.065+1056L845.345+1064L855.354+1061.15L853.074+1053.15C852.286+1050.38+849.408+1048.78+846.644+1049.57Z" opacity="1" fill="#000000"/>
<path d="M866.663+1043.87C863.9+1044.65+862.298+1047.53+863.084+1050.3L865.364+1058.3L875.373+1055.45L873.093+1047.44C872.305+1044.68+869.427+1043.08+866.663+1043.87Z" opacity="1" fill="#000000"/>
<path d="M886.682+1038.17C883.919+1038.95+882.317+1041.83+883.103+1044.59L885.383+1052.6L895.392+1049.75L893.112+1041.74C892.324+1038.98+889.446+1037.38+886.682+1038.17Z" opacity="1" fill="#000000"/>
<path d="M906.701+1032.46C903.938+1033.25+902.336+1036.13+903.121+1038.89L905.402+1046.9L915.411+1044.05L913.131+1036.04C912.343+1033.28+909.465+1031.68+906.701+1032.46Z" opacity="1" fill="#000000"/>
<path d="M839.229+977.3C833.793+969.145+825.025+963.815+815.283+962.746C805.54+961.677+795.825+964.978+788.75+971.761L719.44+941.375L690.701+978.991L789.184+1020.53C801.64+1031.91+820.639+1032.17+833.406+1021.14C846.174+1010.11+848.676+991.279+839.229+977.3Z" opacity="1" fill="#ffb6b6"/>
<path d="M639.127+989.017C604.821+984.204+561.228+957.574+511.596+910.88C505.991+905.707+502.811+898.421+502.83+890.794C502.38+864.474+532.384+833.189+535.315+830.198L571.899+761.397C572.368+760.261+585.281+730.085+608.21+721.922C617.967+718.531+628.719+719.576+637.64+724.782C676.249+745.311+628.414+855.263+621.946+869.655L672.292+902.598L703.462+929.225L749.656+940.712L728.657+997.832L657.232+989.438C651.203+990.046+645.121+989.905+639.127+989.017Z" opacity="1" fill="#e9e9e9"/>
<path d="M641.036+575.801C593.827+570.144+560.245+526.436+566.027+478.175C571.809+429.915+614.767+395.377+661.975+401.033C709.184+406.69+742.766+450.398+736.984+498.659C731.202+546.919+688.244+581.457+641.036+575.801Z" opacity="1" fill="#ffb6b6"/>
<path d="M427.314+423.114C443.874+407.911+453.475+386.259+467.396+368.41C481.317+350.561+503.593+335.762+524.41+342.798C538.76+347.649+548.58+362.001+552.604+377.172C556.627+392.343+555.793+408.443+554.928+424.209C558.424+392.015+583.34+363.384+613.749+356.621C644.155+349.858+677.704+365.485+692.944+393.512C711.344+380.146+736.833+382.659+752.269+399.36C766.913+415.982+767.199+444.315+752.898+461.566C738.597+478.817+711.642+482.653+693.718+469.987L686.195+475.409C688.41+489.206+679.126+504.078+666.09+507.61C655.519+510.475+641.366+508.092+636.325+518.22C632.803+525.298+636.786+533.78+641.347+540.089C645.908+546.398+651.429+553.011+651.116+560.948C650.646+572.924+637.392+579.764+625.95+580.932C598.358+583.747+570.035+567.733+557.39+542.165C557.146+541.672+556.877+541.176+556.581+540.675C541.712+516.115+537.602+486.52+545.216+458.838C546.744+453.462+546.355+449.28+542.732+447.529C527.072+439.963+479.904+446.254+464.781+455.237C449.657+464.219+436.88+476.973+422.184+486.703C407.487+496.433+389.442+503.134+372.875+498.02C359.606+493.924+349.246+482.694+342.908+469.885C336.57+457.077+333.762+442.695+331.409+428.456C359.328+449.377+401.249+447.043+427.314+423.114Z" opacity="1" fill="#b16c0e"/>
<path d="M414.296+995.902L414.339+995.844L414.296+995.961L414.296+995.902Z" opacity="1" fill="#2f2e41"/>
</g>
</svg>
