<svg xmlns="http://www.w3.org/2000/svg" viewBox="0 0 24 24"><path fill="#F2F2F2" d="M13.078 11.242l4.736 4.736 2.121-1.414-3.182-6.718z"/><path fill="#F2F2F2" d="M15.435 3.528c-.589.354-1.369.91-2.382 1.697l-9.381.146L1.55 7.493l6.43 1.963c-.833.725-1.64 1.44-2.382 2.103L1.55 10.321 0 12l2.383 2.528c-.145.217-.226.471-.231.739a1.388 1.388 0 0 0 1.888 1.325c1.56-.603 6.929-2.756 10.516-5.148 4.284-2.856 6.439-5.011 7.147-5.72.604-.603 1.806-2.436 1.06-3.181-.587-.588-3.73-1.174-7.328.985z"/><linearGradient id="a" x1="15.577" x2="19.052" y1="10.606" y2="14.081" gradientUnits="userSpaceOnUse"><stop offset="0" stop-opacity=".1"/><stop offset="1" stop-opacity="0"/></linearGradient><path fill="url(#a)" d="M14.556 11.444c-.251.167-.512.333-.778.497l4.036 4.037 2.121-1.415-2.46-5.192a59.164 59.164 0 0 1-2.92 2.073z"/><path d="M21.526 5.548c-.708.708-2.863 2.863-7.147 5.72-3.587 2.391-8.956 4.544-10.516 5.147-.479.186-1.019.085-1.404-.247a1.388 1.388 0 0 0 1.581.424c1.56-.603 6.929-2.756 10.516-5.148 4.284-2.856 6.439-5.011 7.147-5.72.604-.603 1.806-2.436 1.06-3.181-.025-.026 0 0 0 0 .573.794-.657 2.425-1.237 3.005z" opacity=".05"/><path fill="#FFF" d="M.171 12.181l1.556-1.683 4.049 1.238c.742-.663 1.653-1.47 2.485-2.195l-.28-.085c-.795.693-1.671 1.468-2.382 2.103L1.55 10.321 0 12l.171.181zM3.849 5.548l9.381-.146c1.013-.788 1.793-1.343 2.382-1.697 3.443-2.066 6.383-1.72 7.152-1.162 0 0 .03.029 0 0-.588-.588-3.73-1.174-7.329.985-.589.354-1.369.91-2.382 1.697l-9.381.146L1.55 7.493l.27.082L3.85 5.548z" opacity=".2"/><path fill="#666" d="M8 21h16v1H8z"/><linearGradient id="b" x1="2.202" x2="26.198" y1="6.096" y2="17.286" gradientUnits="userSpaceOnUse"><stop offset="0" stop-color="#FFF" stop-opacity=".2"/><stop offset="1" stop-color="#FFF" stop-opacity="0"/></linearGradient><path fill="url(#b)" d="M17.814 15.978l2.121-1.415-2.46-5.192c2.383-1.804 3.705-3.123 4.228-3.646.604-.604 1.806-2.437 1.06-3.182-.587-.588-3.73-1.174-7.328.985-.589.354-1.369.91-2.381 1.697l-9.382.146L1.55 7.493l6.43 1.963c-.833.725-1.64 1.44-2.382 2.103L1.55 10.321 0 12l2.383 2.528c-.145.217-.226.471-.231.739a1.388 1.388 0 0 0 1.888 1.325c1.45-.56 6.195-2.463 9.738-4.65l4.036 4.036zM8 21v1h16v-1H8z"/></svg>