<?xml version="1.0" encoding="UTF-8" standalone="no"?> <!-- Created with Vectornator for iOS (http://vectornator.io/) --><!DOCTYPE svg PUBLIC "-//W3C//DTD SVG 1.1//EN" "http://www.w3.org/Graphics/SVG/1.1/DTD/svg11.dtd">
<svg height="100%" style="fill-rule:nonzero;clip-rule:evenodd;stroke-linecap:round;stroke-linejoin:round;" xmlns:xlink="http://www.w3.org/1999/xlink" xmlns="http://www.w3.org/2000/svg" xml:space="preserve" width="100%" xmlns:vectornator="http://vectornator.io" version="1.1" viewBox="0 0 2384.24 1683.99">
<metadata>
<vectornator:setting key="OutlineMode" value="0"/>
<vectornator:setting key="DimensionsVisible" value="1"/>
<vectornator:setting key="DisplayWhiteBackground" value="0"/>
<vectornator:setting key="Units" value="Millimeters"/>
<vectornator:setting key="SnapToGrid" value="0"/>
<vectornator:setting key="doHistoryDisabled" value="0"/>
<vectornator:setting key="TimeLapseWatermarkDisabled" value="0"/>
<vectornator:setting key="SnapToPoints" value="0"/>
<vectornator:setting key="GuidesVisible" value="1"/>
<vectornator:setting key="RulersVisible" value="1"/>
<vectornator:setting key="IsolateActiveLayer" value="0"/>
<vectornator:setting key="SnapToEdges" value="0"/>
<vectornator:setting key="SnapToGuides" value="1"/>
<vectornator:setting key="CMYKEnabledKey" value="0"/>
<vectornator:setting key="PencilOnly" value="0"/>
<vectornator:setting key="DynamicGuides" value="0"/>
</metadata>
<defs>
<radialGradient cx="1503.02" r="623.297" id="RadialGradient" gradientUnits="userSpaceOnUse" gradientTransform="matrix(1.04336 0 0 1.02853 -96.9739 -29.6959)" cy="945.999">
<stop stop-color="#441a00" offset="0"/>
<stop stop-color="#e29d49" offset="1"/>
</radialGradient>
<linearGradient y1="406.666" id="LinearGradient" x1="1543" y2="406.666" x2="1692.26" gradientUnits="userSpaceOnUse" gradientTransform="matrix(1.04336 0 0 1.02853 -96.9739 -29.6959)">
<stop stop-color="#07aaa7" offset="0"/>
<stop stop-color="#1be0dc" offset="1"/>
</linearGradient>
<linearGradient y1="912.463" id="LinearGradient_2" x1="787.73" y2="912.463" x2="936.986" gradientUnits="userSpaceOnUse" gradientTransform="matrix(1.04336 0 0 1.02853 -96.9739 -29.6959)">
<stop stop-color="#07aaa7" offset="0"/>
<stop stop-color="#13dfdb" offset="1"/>
</linearGradient>
<radialGradient cx="1926.62" r="113.278" id="RadialGradient_2" gradientUnits="userSpaceOnUse" gradientTransform="matrix(1.04336 0 0 1.02853 -96.9739 -29.6959)" cy="1016.32">
<stop stop-color="#07aaa7" offset="0"/>
<stop stop-color="#13dfdb" offset="1"/>
</radialGradient>
<radialGradient cx="662.574" r="133.912" id="RadialGradient_3" gradientUnits="userSpaceOnUse" gradientTransform="matrix(1.04336 0 0 1.02853 -96.9739 -29.6959)" cy="1072.36">
<stop stop-color="#07aaa7" offset="0"/>
<stop stop-color="#13dfdb" offset="1"/>
</radialGradient>
<radialGradient cx="1139.29" r="157.981" id="RadialGradient_4" gradientUnits="userSpaceOnUse" gradientTransform="matrix(1.04336 0 0 1.02853 -96.9739 -29.6959)" cy="1213.21">
<stop stop-color="#07aaa7" offset="0"/>
<stop stop-color="#13dfdb" offset="1"/>
</radialGradient>
<linearGradient y1="1491.91" id="LinearGradient_3" x1="1072.23" y2="1419.56" x2="1151.72" gradientUnits="userSpaceOnUse" gradientTransform="matrix(1.04336 0 0 1.02853 -104.02 -29.6959)">
<stop stop-color="#07908e" offset="0"/>
<stop stop-color="#1be0dc" offset="1"/>
</linearGradient>
</defs>
<g id="Layer 1" vectornator:layerName="Layer 1">
<path d="M1867.36+676.531C1762.15+602.505+1597.37+532.496+1415.27+484.458C1249.47+440.718+1087.75+419.6+959.865+424.993L959.2+410.996C1088.6+405.541+1252+426.836+1419.29+470.967C1603.09+519.454+1769.65+590.289+1876.27+665.31L1867.36+676.531Z" opacity="1" fill="#fff0cc"/>
<path d="M1856.44+733.551C1856.53+799.137+1841.92+864.004+1813.56+923.914C1811.2+928.93+1808.73+933.899+1806.17+938.821C1704.61+1134.61+1472.94+1238.54+1247.39+1189.5C1021.84+1140.46+862.08+951.425+862.046+733.551C862.046+722.72+862.438+711.974+863.222+701.312C863.594+695.89+864.076+690.5+864.666+685.144C892.048+437.451+1120.73+253.325+1384.97+266.222C1649.2+279.119+1856.42+484.52+1856.44+733.551Z" opacity="1" fill="url(#RadialGradient)"/>
<path d="M1813.56+923.914C1811.2+928.93+1808.73+933.899+1806.17+938.821C1791.64+940.306+1776.34+941.385+1760.29+942.057C1746.99+942.618+1733.31+942.898+1719.34+942.898C1597.24+942.898+1450.3+921.686+1300.19+882.092C1132.9+837.958+981.552+776.227+874.015+708.261C870.353+705.95+866.755+703.633+863.222+701.312C863.594+695.89+864.076+690.501+864.666+685.144C870.368+688.969+876.248+692.798+882.306+696.633C988.578+763.786+1138.41+824.859+1304.21+868.6C1453.01+907.858+1598.57+928.888+1719.26+928.888C1733.06+928.888+1746.51+928.612+1759.62+928.061C1778.7+927.248+1796.68+925.866+1813.56+923.914Z" opacity="0.1" fill="#000000"/>
<path d="M1719.34+931.692C1597.25+931.695+1450.3+910.48+1300.19+870.882C1132.9+826.752+981.551+765.018+874.013+697.054C764.23+627.672+712.751+559.306+729.057+504.549C745.363+449.792+827.096+416.568+959.2+410.996L959.865+424.993C898.175+427.594+847.899+436.224+810.436+450.643C773.064+465.026+750.506+484.435+743.39+508.331C736.274+532.226+744.828+559.842+768.813+590.412C792.857+621.055+831.043+653.021+882.311+685.423C988.571+752.579+1138.4+813.653+1304.21+857.392C1453.01+896.647+1598.56+917.682+1719.27+917.685C1733.06+917.685+1746.51+917.409+1759.61+916.857C1821.3+914.254+1871.58+905.625+1909.04+891.207C1946.42+876.824+1968.97+857.415+1976.09+833.519C1988.87+790.612+1950.25+734.859+1867.36+676.532L1876.27+665.311C1918.93+695.326+1950.51+724.912+1970.12+753.245C1991.16+783.621+1997.99+811.902+1990.42+837.301C1974.12+892.057+1892.38+925.281+1760.28+930.853C1746.99+931.414+1733.32+931.692+1719.34+931.692Z" opacity="1" fill="#ffeccc"/>
<path d="M1366.7+175.835C1366.7+172.873+1369.25+170.472+1372.39+170.472C1375.54+170.472+1378.09+172.873+1378.09+175.835C1378.09+178.796+1375.54+181.197+1372.39+181.197C1369.25+181.197+1366.7+178.796+1366.7+175.835Z" opacity="1" fill="#f2f2f2"/>
<path d="M606.742+404.661C606.742+399.566+611.13+395.436+616.543+395.436C621.956+395.436+626.345+399.566+626.345+404.661C626.345+409.756+621.956+413.886+616.543+413.886C611.13+413.886+606.742+409.756+606.742+404.661Z" opacity="1" fill="#fff0cc"/>
<path d="M576.29+765.724C576.29+755.66+584.959+747.5+595.653+747.5C606.346+747.5+615.015+755.66+615.015+765.724C615.015+775.789+606.346+783.948+595.653+783.948C584.959+783.948+576.29+775.789+576.29+765.724Z" opacity="1" fill="#36f3f0"/>
<path d="M1745.01+208.009C1745.01+201.301+1750.79+195.863+1757.92+195.863C1765.04+195.863+1770.82+201.301+1770.82+208.009C1770.82+214.717+1765.04+220.154+1757.92+220.154C1750.79+220.154+1745.01+214.717+1745.01+208.009Z" opacity="1" fill="#35f3f0"/>
<path d="M2194.65+712.101C2194.65+701.21+2204.03+692.381+2215.6+692.381C2227.18+692.381+2236.56+701.21+2236.56+712.101C2236.56+722.992+2227.18+731.821+2215.6+731.821C2204.03+731.821+2194.65+722.992+2194.65+712.101Z" opacity="1" fill="#fff0cc"/>
<path d="M2042.78+397.14C2042.78+392.467+2046.8+388.679+2051.77+388.679C2056.73+388.679+2060.76+392.467+2060.76+397.14C2060.76+401.813+2056.73+405.601+2051.77+405.601C2046.8+405.601+2042.78+401.813+2042.78+397.14Z" opacity="1" fill="#ffffff"/>
<path d="M946.261+288.444C946.261+281.154+952.539+275.244+960.285+275.244C968.03+275.244+974.308+281.154+974.308+288.444C974.308+295.733+968.03+301.643+960.285+301.643C952.539+301.643+946.261+295.733+946.261+288.444Z" opacity="1" fill="#35f3f0"/>
<path d="M2011.32+672.115C2011.32+667.442+2015.34+663.654+2020.31+663.654C2025.27+663.654+2029.3+667.442+2029.3+672.115C2029.3+676.788+2025.27+680.576+2020.31+680.576C2015.34+680.576+2011.32+676.788+2011.32+672.115Z" opacity="1" fill="#36f3f0"/>
<path d="M260.309+703.245C260.309+697.43+265.319+692.715+271.498+692.715C277.677+692.715+282.687+697.43+282.687+703.245C282.687+709.061+277.677+713.776+271.498+713.776C265.319+713.776+260.309+709.061+260.309+703.245Z" opacity="1" fill="#fff0cc"/>
<path d="M429.357+529.945C429.357+523.647+434.782+518.541+441.473+518.541C448.165+518.541+453.59+523.647+453.59+529.945C453.59+536.243+448.165+541.349+441.473+541.349C434.782+541.349+429.357+536.243+429.357+529.945Z" opacity="1" fill="#36f3f0"/>
<path d="M1219.46+21.434L1195.55+21.434L1195.55-1.06947L1182.72-1.06947L1182.72+21.434L1158.8+21.434L1158.8+33.5187L1182.72+33.5187L1182.72+56.0222L1195.55+56.0222L1195.55+33.5187L1219.46+33.5187L1219.46+21.434Z" opacity="1" fill="#fff0cc"/>
<path d="M1774.11+1239.15L1759.09+1239.15L1759.09+1225.02L1751.04+1225.02L1751.04+1239.15L1736.03+1239.15L1736.03+1246.73L1751.04+1246.73L1751.04+1260.86L1759.09+1260.86L1759.09+1246.73L1774.11+1246.73L1774.11+1239.15Z" opacity="1" fill="#cccccc"/>
<path d="M2120.64+1166.82L2109.42+1166.82L2109.42+1156.25L2103.39+1156.25L2103.39+1166.82L2092.17+1166.82L2092.17+1172.49L2103.39+1172.49L2103.39+1183.05L2109.42+1183.05L2109.42+1172.49L2120.64+1172.49L2120.64+1166.82Z" opacity="1" fill="#36f3f0"/>
<path d="M1003.96+654.903C1003.96+633.185+1022.67+615.579+1045.75+615.579C1068.82+615.579+1087.53+633.185+1087.53+654.903C1087.53+676.621+1068.82+694.227+1045.75+694.227C1022.67+694.227+1003.96+676.621+1003.96+654.903Z" opacity="0.1" fill="#b56f1a"/>
<path d="M1465.45+1049.93C1465.45+1028.21+1484.16+1010.6+1507.23+1010.6C1530.31+1010.6+1549.01+1028.21+1549.01+1049.93C1549.01+1071.65+1530.31+1089.25+1507.23+1089.25C1484.16+1089.25+1465.45+1071.65+1465.45+1049.93Z" opacity="0.1" fill="#000000"/>
<path d="M1324.92+715.676C1324.92+693.958+1343.62+676.352+1366.7+676.352C1389.77+676.352+1408.48+693.958+1408.48+715.676C1408.48+737.394+1389.77+755+1366.7+755C1343.62+755+1324.92+737.394+1324.92+715.676Z" opacity="0.1" fill="#000000"/>
<path d="M1024.85+931.956C1024.85+910.239+1043.56+892.633+1066.64+892.633C1089.71+892.633+1108.42+910.239+1108.42+931.956C1108.42+953.674+1089.71+971.28+1066.64+971.28C1043.56+971.28+1024.85+953.674+1024.85+931.956Z" opacity="0.1" fill="#000000"/>
<path d="M1549.01+504.758C1549.01+483.04+1567.72+465.434+1590.79+465.434C1613.87+465.434+1632.57+483.04+1632.57+504.758C1632.57+526.476+1613.87+544.082+1590.79+544.082C1567.72+544.082+1549.01+526.476+1549.01+504.758Z" opacity="0.1" fill="#000000"/>
<path d="M1687.65+771.087C1687.65+749.369+1706.35+731.763+1729.43+731.763C1752.5+731.763+1771.21+749.369+1771.21+771.087C1771.21+792.805+1752.5+810.411+1729.43+810.411C1706.35+810.411+1687.65+792.805+1687.65+771.087Z" opacity="0.1" fill="#000000"/>
<path d="M1535.72+340.313C1535.72+311.685+1560.38+288.477+1590.79+288.477C1621.21+288.477+1645.87+311.685+1645.87+340.313C1645.87+368.941+1621.21+392.149+1590.79+392.149C1560.38+392.149+1535.72+368.941+1535.72+340.313Z" opacity="1" fill="#ffffff"/>
<path d="M1590.79+265.241C1547.79+265.241+1512.93+298.052+1512.93+338.526C1512.93+379+1590.79+511.908+1590.79+511.908C1590.79+511.908+1668.66+379+1668.66+338.526C1668.66+298.052+1633.8+265.241+1590.79+265.241ZM1590.79+374.275C1570.87+374.275+1554.71+359.07+1554.71+340.313C1554.71+321.557+1570.87+306.352+1590.79+306.352C1610.72+306.352+1626.88+321.557+1626.88+340.313C1626.88+359.07+1610.72+374.275+1590.79+374.275C1590.79+374.275+1590.79+374.275+1590.79+374.275Z" opacity="1" fill="url(#LinearGradient)"/>
<path d="M990.455+480.916C990.455+452.287+1015.11+429.08+1045.53+429.08C1075.95+429.08+1100.6+452.287+1100.6+480.916C1100.6+509.544+1075.95+532.751+1045.53+532.751C1015.11+532.751+990.455+509.544+990.455+480.916Z" opacity="1" fill="#ffffff"/>
<path d="M1045.53+405.843C1002.53+405.843+967.665+438.654+967.665+479.128C967.665+519.602+1045.53+652.51+1045.53+652.51C1045.53+652.51+1123.39+519.602+1123.39+479.128C1123.39+438.654+1088.53+405.843+1045.53+405.843ZM1045.53+514.877C1025.6+514.877+1009.45+499.672+1009.45+480.916C1009.45+462.159+1025.6+446.954+1045.53+446.954C1065.46+446.954+1081.61+462.159+1081.61+480.916C1081.61+499.672+1065.46+514.877+1045.53+514.877C1045.53+514.877+1045.53+514.877+1045.53+514.877Z" opacity="1" fill="#000000"/>
<path d="M1681.37+600.428C1681.37+571.8+1706.03+548.592+1736.45+548.592C1766.86+548.592+1791.52+571.8+1791.52+600.428C1791.52+629.056+1766.86+652.264+1736.45+652.264C1706.03+652.264+1681.37+629.056+1681.37+600.428Z" opacity="1" fill="#ffffff"/>
<path d="M1743.62+531.183C1700.62+531.183+1665.76+563.994+1665.76+604.468C1665.76+644.942+1743.62+777.85+1743.62+777.85C1743.62+777.85+1821.49+644.942+1821.49+604.468C1821.49+563.994+1786.63+531.183+1743.62+531.183ZM1743.62+640.217C1723.69+640.217+1707.54+625.012+1707.54+606.256C1707.54+587.499+1723.69+572.294+1743.62+572.294C1763.55+572.294+1779.71+587.499+1779.71+606.256C1779.71+625.012+1763.55+640.217+1743.62+640.217C1743.62+640.217+1743.62+640.217+1743.62+640.217Z" opacity="1" fill="#000000"/>
<path d="M747.7+860.542C747.7+831.914+772.358+808.706+802.775+808.706C833.192+808.706+857.849+831.914+857.849+860.542C857.849+889.17+833.192+912.378+802.775+912.378C772.358+912.378+747.7+889.17+747.7+860.542Z" opacity="1" fill="#ffffff"/>
<path d="M802.775+785.47C759.772+785.47+724.911+818.281+724.911+858.755C724.911+899.229+802.775+1032.14+802.775+1032.14C802.775+1032.14+880.638+899.229+880.638+858.755C880.638+818.281+845.778+785.47+802.775+785.47ZM802.775+894.504C782.846+894.504+766.691+879.299+766.691+860.542C766.691+841.786+782.846+826.581+802.775+826.581C822.703+826.581+838.858+841.786+838.858+860.542C838.858+879.299+822.703+894.504+802.775+894.504C802.775+894.504+802.775+894.504+802.775+894.504Z" opacity="1" fill="url(#LinearGradient_2)"/>
<path d="M1999.49+1233.98C1970.98+1201.93+1956.53+1169.11+1967.22+1160.69C1977.91+1152.26+2009.69+1171.42+2038.2+1203.47C2066.72+1235.52+2081.17+1268.34+2070.47+1276.76C2059.78+1285.19+2028+1266.03+1999.49+1233.98Z" opacity="1" fill="#f1f1f1"/>
<path d="M1686.93+1192.44C1686.93+1108.83+1758.94+1041.06+1847.77+1041.06C1936.6+1041.06+2008.61+1108.83+2008.61+1192.44C2008.61+1276.05+1936.6+1343.82+1847.77+1343.82C1758.94+1343.82+1686.93+1276.05+1686.93+1192.44Z" opacity="1" fill="#f1f1f1"/>
<path d="M1866.99+1311.25L1915.85+1311.25L1915.85+1311.25L1915.85+1393.65L1915.85+1393.65L1866.99+1393.65L1866.99+1393.65L1866.99+1311.25L1866.99+1311.25Z" opacity="1" fill="#f1f1f1"/>
<path d="M1769.26+1311.25L1818.12+1311.25L1818.12+1311.25L1818.12+1393.65L1818.12+1393.65L1769.26+1393.65L1769.26+1393.65L1769.26+1311.25L1769.26+1311.25Z" opacity="1" fill="#f1f1f1"/>
<path d="M1834.41+1394.6C1834.41+1386.67+1852.64+1380.23+1875.13+1380.23C1897.62+1380.23+1915.85+1386.67+1915.85+1394.6C1915.85+1402.54+1897.62+1408.98+1875.13+1408.98C1852.64+1408.98+1834.41+1402.54+1834.41+1394.6Z" opacity="1" fill="#f1f1f1"/>
<path d="M1736.68+1392.69C1736.68+1384.75+1754.91+1378.32+1777.4+1378.32C1799.89+1378.32+1818.12+1384.75+1818.12+1392.69C1818.12+1400.63+1799.89+1407.06+1777.4+1407.06C1754.91+1407.06+1736.68+1400.63+1736.68+1392.69Z" opacity="1" fill="#f1f1f1"/>
<path d="M1797.27+1002.15C1811.63+947.708+1875.03+915.672+1938.87+930.592C2002.71+945.512+2042.82+1001.74+2028.46+1056.18C2014.1+1110.61+1966.45+1110.79+1902.61+1095.87C1838.77+1080.95+1782.91+1056.58+1797.27+1002.15Z" opacity="1" fill="url(#RadialGradient_2)"/>
<path d="M1655.79+1143.67C1615.66+1125.75+1587.97+1101.62+1593.95+1089.76C1599.92+1077.9+1637.3+1082.81+1677.43+1100.73C1717.56+1118.64+1745.25+1142.78+1739.27+1154.63C1733.3+1166.49+1695.92+1161.58+1655.79+1143.67Z" opacity="1" fill="#f1f1f1"/>
<path d="M1770.1+1160.5C1770.1+1132.62+1794.11+1110.03+1823.73+1110.03C1853.34+1110.03+1877.35+1132.62+1877.35+1160.5C1877.35+1188.37+1853.34+1210.97+1823.73+1210.97C1794.11+1210.97+1770.1+1188.37+1770.1+1160.5Z" opacity="1" fill="#000000"/>
<path d="M1783.81+1142.41C1783.81+1133.11+1791.81+1125.58+1801.69+1125.58C1811.56+1125.58+1819.56+1133.11+1819.56+1142.41C1819.56+1151.7+1811.56+1159.23+1801.69+1159.23C1791.81+1159.23+1783.81+1151.7+1783.81+1142.41Z" opacity="1" fill="#f1f1f1"/>
<path d="M1857.37+1265.65C1860.91+1283.94+1848.03+1301.46+1828.6+1304.79C1809.17+1308.12+1790.55+1295.99+1787.02+1277.7L1787.02+1277.7L1787.01+1277.64C1783.49+1259.35+1798.51+1252.88+1817.94+1249.57C1837.37+1246.26+1853.85+1247.37+1857.37+1265.65Z" opacity="1" fill="#000000"/>
<path d="M1516.52+870.837C1470.41+834.217+1401.74+838.693+1361.43+880.944C1321.12+923.195+1323.76+987.939+1367.39+1027.16C1411.02+1066.38+1479.86+1065.88+1522.85+1026.04L1659.82+1134.82C1664.16+1138.26+1670.64+1137.75+1674.31+1133.67C1677.98+1129.59+1677.44+1123.48+1673.1+1120.03L1673.09+1120.01L1536.12+1011.24C1569.1+966.698+1560.6+905.849+1516.52+870.837ZM1507.69+1000.77C1477.9+1034+1425.12+1038.21+1389.81+1010.17C1354.5+982.123+1350.02+932.448+1379.82+899.213C1409.62+865.978+1462.39+861.77+1497.71+889.813L1497.71+889.813C1533.02+917.856+1537.49+967.531+1507.69+1000.77Z" opacity="1" fill="#e0e0e0"/>
<path d="M1389.81+1010.17C1356.53+983.736+1350.36+937.702+1375.61+904.318C1374.01+905.834+1372.47+907.422+1370.97+909.082C1341.18+942.316+1345.65+991.991+1380.96+1020.03C1416.27+1048.08+1469.05+1043.87+1498.85+1010.63C1500.33+1008.97+1501.74+1007.27+1503.05+1005.53C1472.34+1034.58+1423.09+1036.59+1389.81+1010.17Z" opacity="0.3" fill="#000000"/>
<path d="M760.686+1148.83C747.662+1144.14+749.959+1108.69+765.816+1069.64C781.674+1030.59+805.088+1002.73+818.112+1007.42C831.136+1012.1+828.84+1047.56+812.982+1086.61C797.124+1125.66+773.711+1153.51+760.686+1148.83Z" opacity="1" fill="#f1f1f1"/>
<path d="M479.889+1192.44C479.889+1108.83+551.901+1041.06+640.732+1041.06C729.563+1041.06+801.575+1108.83+801.575+1192.44C801.575+1276.05+729.563+1343.82+640.732+1343.82C551.901+1343.82+479.889+1276.05+479.889+1192.44Z" opacity="1" fill="#f1f1f1"/>
<path d="M567.436+1311.25L616.3+1311.25L616.3+1311.25L616.3+1393.65L616.3+1393.65L567.436+1393.65L567.436+1393.65L567.436+1311.25L567.436+1311.25Z" opacity="1" fill="#f1f1f1"/>
<path d="M665.163+1311.25L714.027+1311.25L714.027+1311.25L714.027+1393.65L714.027+1393.65L665.163+1393.65L665.163+1393.65L665.163+1311.25L665.163+1311.25Z" opacity="1" fill="#f1f1f1"/>
<path d="M567.436+1394.6C567.436+1386.67+585.667+1380.23+608.156+1380.23C630.645+1380.23+648.876+1386.67+648.876+1394.6C648.876+1402.54+630.645+1408.98+608.156+1408.98C585.667+1408.98+567.436+1402.54+567.436+1394.6Z" opacity="1" fill="#f1f1f1"/>
<path d="M665.164+1392.69C665.164+1384.75+683.394+1378.32+705.883+1378.32C728.372+1378.32+746.603+1384.75+746.603+1392.69C746.603+1400.63+728.372+1407.06+705.883+1407.06C683.394+1407.06+665.164+1400.63+665.164+1392.69Z" opacity="1" fill="#f1f1f1"/>
<path d="M589.832+1154.11C589.832+1125.54+614.444+1102.38+644.804+1102.38C675.164+1102.38+699.775+1125.54+699.775+1154.11C699.775+1182.69+675.164+1205.85+644.804+1205.85C614.444+1205.85+589.832+1182.69+589.832+1154.11Z" opacity="1" fill="#000000"/>
<path d="M626.48+1154.11C626.48+1144.59+634.684+1136.87+644.804+1136.87C654.924+1136.87+663.128+1144.59+663.128+1154.11C663.128+1163.64+654.924+1171.36+644.804+1171.36C634.684+1171.36+626.48+1163.64+626.48+1154.11Z" opacity="1" fill="#f1f1f1"/>
<path d="M484.709+1051.66C471.721+996.913+513.237+941.598+577.436+928.106C641.635+914.614+704.207+948.054+717.194+1002.8C730.181+1057.54+687.634+1077.73+623.435+1091.22C559.236+1104.71+497.696+1106.4+484.709+1051.66Z" opacity="1" fill="url(#RadialGradient_3)"/>
<path d="M448.75+1143.67C408.619+1125.75+380.931+1101.62+386.906+1089.76C392.881+1077.9+430.257+1082.81+470.388+1100.73C510.519+1118.64+538.207+1142.78+532.232+1154.63C526.257+1166.49+488.881+1161.58+448.75+1143.67Z" opacity="1" fill="#f1f1f1"/>
<path d="M561.726+1247.05C561.726+1261.87+602.26+1291.13+647.238+1291.13C692.216+1291.13+734.387+1249.41+734.387+1234.6C734.387+1219.78+692.215+1237.47+647.238+1237.47C602.26+1237.47+561.726+1232.24+561.726+1247.05Z" opacity="1" fill="#000000"/>
<path d="M1001.7+1466.61C1001.7+1383.01+1073.71+1315.23+1162.54+1315.23C1251.37+1315.23+1323.38+1383.01+1323.38+1466.61C1323.38+1550.22+1251.37+1618+1162.54+1618C1073.71+1618+1001.7+1550.22+1001.7+1466.61Z" opacity="1" fill="#f1f1f1"/>
<path d="M1089.24+1585.42L1138.11+1585.42L1138.11+1585.42L1138.11+1667.82L1138.11+1667.82L1089.24+1667.82L1089.24+1667.82L1089.24+1585.42L1089.24+1585.42Z" opacity="1" fill="#f1f1f1"/>
<path d="M1186.97+1585.42L1235.83+1585.42L1235.83+1585.42L1235.83+1667.82L1235.83+1667.82L1186.97+1667.82L1186.97+1667.82L1186.97+1585.42L1186.97+1585.42Z" opacity="1" fill="#f1f1f1"/>
<path d="M1089.24+1668.78C1089.24+1660.84+1107.47+1654.41+1129.96+1654.41C1152.45+1654.41+1170.68+1660.84+1170.68+1668.78C1170.68+1676.72+1152.45+1683.15+1129.96+1683.15C1107.47+1683.15+1089.24+1676.72+1089.24+1668.78Z" opacity="1" fill="#f1f1f1"/>
<path d="M1186.97+1666.86C1186.97+1658.93+1205.2+1652.49+1227.69+1652.49C1250.18+1652.49+1268.41+1658.93+1268.41+1666.86C1268.41+1674.8+1250.18+1681.24+1227.69+1681.24C1205.2+1681.24+1186.97+1674.8+1186.97+1666.86Z" opacity="1" fill="#f1f1f1"/>
<path d="M1006.52+1325.83C993.529+1271.09+1035.04+1215.77+1099.24+1202.28C1163.44+1188.79+1226.01+1222.23+1239+1276.97C1251.99+1331.72+1209.44+1351.91+1145.24+1365.4C1081.04+1378.89+1019.5+1380.57+1006.52+1325.83Z" opacity="1" fill="url(#RadialGradient_4)"/>
<path d="M1051.59+1569.02L992.846+1464.39C985.949+1452.11+986.284+1437.34+993.732+1425.34C1001.18+1413.35+1014.69+1405.82+1029.44+1405.45L1091.09+1403.89L1091.5+1417.94L1029.84+1419.51C1020.25+1419.75+1011.47+1424.64+1006.63+1432.44C1001.79+1440.24+1001.57+1449.84+1006.05+1457.82L1064.8+1562.45L1051.59+1569.02Z" opacity="1" fill="#08a0a0"/>
<path d="M1193.58+1569.02L1180.37+1562.45L1239.11+1457.82C1243.6+1449.84+1243.38+1440.24+1238.54+1432.44C1233.69+1424.64+1224.92+1419.75+1215.32+1419.51L1153.67+1417.94L1154.07+1403.89L1215.72+1405.45C1230.48+1405.82+1243.99+1413.35+1251.43+1425.34C1258.88+1437.34+1259.22+1452.11+1252.32+1464.39L1193.58+1569.02Z" opacity="1" fill="#08a0a0"/>
<path d="M1276.81+1489.49C1233.25+1467.8+1203.8+1439.79+1211.03+1426.92C1218.26+1414.05+1259.44+1421.19+1303+1442.88C1346.57+1464.57+1376.01+1492.59+1368.78+1505.46C1361.55+1518.33+1320.37+1511.18+1276.81+1489.49Z" opacity="1" fill="#f1f1f1"/>
<path d="M1156.14+1440.38C1156.14+1440.38+1167.81+1392.06+1145.64+1394.26C1123.47+1396.46+1093.13+1397.56+1084.97+1397.56C1076.8+1397.56+1030.13+1392.06+1023.13+1420.62C1016.13+1449.17+1006.79+1484.31+1026.63+1506.27C1026.63+1506.27+1033.63+1602.91+1060.46+1609.5C1087.3+1616.09+1158.47+1623.77+1184.14+1591.93C1199.35+1572.76+1204.89+1548.28+1199.31+1524.94L1187.64+1524.94L1156.14+1440.38Z" opacity="1" fill="url(#LinearGradient_3)"/>
<path d="M1045.34+1513.96C1045.34+1513.96+1065.18+1522.74+1106.01+1517.25L1106.01+1533.73L1045.34+1529.33L1045.34+1513.96Z" opacity="0.1" fill="#000000"/>
</g>
</svg>
